<?xml version="1.0" encoding="UTF-8"?>
<svg version="1.1" xmlns="http://www.w3.org/2000/svg" width="225" height="225">
<path d="M0 0 C74.25 0 148.5 0 225 0 C225 74.25 225 148.5 225 225 C150.75 225 76.5 225 0 225 C0 150.75 0 76.5 0 0 Z " fill="#FDFDFD" transform="translate(0,0)"/>
<path d="M0 0 C2.36663015 0.01080429 4.73251232 -0.00002662 7.09912109 -0.01269531 C18.80982965 -0.02401588 30.38120471 0.65154436 41.66552734 4.07324219 C42.68775391 4.3684375 43.70998047 4.66363281 44.76318359 4.96777344 C48.56289869 6.69776752 50.23228494 7.74314245 52.60302734 11.26074219 C53.31958217 15.79326949 53.25446235 20.24429134 53.16552734 24.82324219 C53.17648438 26.05494141 53.18744141 27.28664063 53.19873047 28.55566406 C53.12438611 37.65045789 53.12438611 37.65045789 50.56762695 40.64331055 C49.59515015 41.44393921 49.59515015 41.44393921 48.60302734 42.26074219 C49.25279541 42.79304443 49.90256348 43.32534668 50.57202148 43.8737793 C53.16193265 46.91760204 53.1058361 48.49817921 53.09912109 52.45214844 C53.09976563 53.64388672 53.10041016 54.835625 53.10107422 56.06347656 C53.08109375 57.30419922 53.06111328 58.54492188 53.04052734 59.82324219 C53.04761719 61.06783203 53.05470703 62.31242187 53.06201172 63.59472656 C52.99716372 72.80813123 52.99716372 72.80813123 51.07592773 75.0144043 C50.58987061 75.4256958 50.10381348 75.8369873 49.60302734 76.26074219 C49.60302734 76.92074219 49.60302734 77.58074219 49.60302734 78.26074219 C50.09198486 78.68266846 50.58094238 79.10459473 51.0847168 79.53930664 C53.22411761 81.96492413 52.94670612 83.60897906 52.89599609 86.80371094 C52.88632813 87.87685547 52.87666016 88.95 52.86669922 90.05566406 C52.8415625 91.17521484 52.81642578 92.29476562 52.79052734 93.44824219 C52.77022461 95.1449707 52.77022461 95.1449707 52.74951172 96.87597656 C52.71412692 99.67137536 52.66475683 102.46582111 52.60302734 105.26074219 C53.63242432 105.24503174 53.63242432 105.24503174 54.68261719 105.22900391 C57.78105023 105.18752344 60.87942495 105.1614415 63.97802734 105.13574219 C65.05826172 105.11898437 66.13849609 105.10222656 67.25146484 105.08496094 C68.28271484 105.07851562 69.31396484 105.07207031 70.37646484 105.06542969 C71.80611572 105.04971924 71.80611572 105.04971924 73.26464844 105.03369141 C75.60302734 105.26074219 75.60302734 105.26074219 77.60302734 107.26074219 C78.00350179 109.58349396 78.34273774 111.91813576 78.60302734 114.26074219 C81.57302734 115.25074219 84.54302734 116.24074219 87.60302734 117.26074219 C88.15990234 116.58011719 88.71677734 115.89949219 89.29052734 115.19824219 C91.60302734 113.26074219 91.60302734 113.26074219 94.01196289 113.43945312 C98.49571517 114.86066698 101.17862169 118.22117874 104.41552734 121.51074219 C105.45483398 122.51427734 105.45483398 122.51427734 106.51513672 123.53808594 C107.16933594 124.19421875 107.82353516 124.85035156 108.49755859 125.52636719 C109.09415283 126.12223633 109.69074707 126.71810547 110.30541992 127.33203125 C111.97092892 129.80757614 111.96473662 131.33437792 111.60302734 134.26074219 C111.08740234 134.75574219 110.57177734 135.25074219 110.04052734 135.76074219 C109.56615234 136.25574219 109.09177734 136.75074219 108.60302734 137.26074219 C108.79131506 139.70554297 108.79131506 139.70554297 109.60302734 142.26074219 C109.93636068 143.92740885 110.26969401 145.59407552 110.60302734 147.26074219 C111.71677734 147.21949219 112.83052734 147.17824219 113.97802734 147.13574219 C117.60302734 147.26074219 117.60302734 147.26074219 119.60302734 149.26074219 C119.84594727 151.7668457 119.84594727 151.7668457 119.83349609 154.88964844 C119.8315625 156.00662109 119.82962891 157.12359375 119.82763672 158.27441406 C119.81539062 159.44552734 119.80314453 160.61664063 119.79052734 161.82324219 C119.78956055 163.58571289 119.78956055 163.58571289 119.78857422 165.38378906 C119.74314875 174.12062078 119.74314875 174.12062078 118.60302734 175.26074219 C115.93243883 175.4018938 113.27870497 175.30321326 110.60302734 175.26074219 C109.61302734 178.56074219 108.62302734 181.86074219 107.60302734 185.26074219 C108.28365234 185.81761719 108.96427734 186.37449219 109.66552734 186.94824219 C111.60302734 189.26074219 111.60302734 189.26074219 111.42431641 191.66748047 C109.99995576 196.16497118 106.64218947 198.87755146 103.35302734 202.13574219 C102.68400391 202.83699219 102.01498047 203.53824219 101.32568359 204.26074219 C100.66955078 204.91816406 100.01341797 205.57558594 99.33740234 206.25292969 C98.7415332 206.85476074 98.14566406 207.4565918 97.53173828 208.07666016 C95.60302734 209.26074219 95.60302734 209.26074219 92.99462891 209.07373047 C90.60302734 208.26074219 90.60302734 208.26074219 88.60302734 206.26074219 C85.71141756 206.53381958 85.71141756 206.53381958 82.60302734 207.26074219 C81.65427734 207.44636719 80.70552734 207.63199219 79.72802734 207.82324219 C78.67615234 208.03980469 78.67615234 208.03980469 77.60302734 208.26074219 C77.63396484 210.20980469 77.63396484 210.20980469 77.66552734 212.19824219 C77.68702189 213.55239852 77.67450933 214.90830302 77.60302734 216.26074219 C75.82853141 218.03523813 73.25285474 217.39104291 70.85302734 217.39355469 C69.68771484 217.39484375 68.52240234 217.39613281 67.32177734 217.39746094 C66.09458984 217.39359375 64.86740234 217.38972656 63.60302734 217.38574219 C62.37583984 217.38960937 61.14865234 217.39347656 59.88427734 217.39746094 C58.13630859 217.39552734 58.13630859 217.39552734 56.35302734 217.39355469 C55.27537109 217.39242676 54.19771484 217.39129883 53.08740234 217.39013672 C50.60302734 217.26074219 50.60302734 217.26074219 49.60302734 216.26074219 C49.46187573 213.59015368 49.56055627 210.93641981 49.60302734 208.26074219 C48.88115234 208.11636719 48.15927734 207.97199219 47.41552734 207.82324219 C44.60302734 207.26074219 44.60302734 207.26074219 41.97802734 206.51074219 C41.19427734 206.42824219 40.41052734 206.34574219 39.60302734 206.26074219 C38.58198183 207.23924414 37.58241525 208.24054645 36.60302734 209.26074219 C33.57890389 209.65506973 32.10321489 209.59937737 29.55078125 207.87133789 C27.42684199 205.78659443 25.31115062 203.69891594 23.22802734 201.57324219 C22.47908203 200.85201172 21.73013672 200.13078125 20.95849609 199.38769531 C20.25595703 198.68193359 19.55341797 197.97617188 18.82958984 197.24902344 C18.18586426 196.60489502 17.54213867 195.9607666 16.87890625 195.29711914 C15.60302734 193.26074219 15.60302734 193.26074219 15.79199219 190.62475586 C16.60302734 188.26074219 16.60302734 188.26074219 18.35302734 186.44824219 C19.87050487 184.3684458 19.87050487 184.3684458 19.13037109 182.23339844 C18.36174548 180.1992218 17.53312344 178.22586829 16.60302734 176.26074219 C15.30365234 176.11636719 14.00427734 175.97199219 12.66552734 175.82324219 C8.72802734 175.38574219 8.72802734 175.38574219 7.60302734 174.26074219 C7.51633302 172.77202359 7.49599241 171.27929719 7.50537109 169.78808594 C7.50859375 168.88896484 7.51181641 167.98984375 7.51513672 167.06347656 C7.52770508 165.64518555 7.52770508 165.64518555 7.54052734 164.19824219 C7.54503906 163.24884766 7.54955078 162.29945313 7.55419922 161.32128906 C7.56602624 158.96771154 7.58250709 156.61425741 7.60302734 154.26074219 C6.68529541 154.28430786 6.68529541 154.28430786 5.74902344 154.30834961 C-36.77063155 155.2464578 -36.77063155 155.2464578 -50.39697266 145.26074219 C-53.57026954 140.50079687 -52.72516465 135.41900872 -52.70947266 129.82324219 C-52.73364258 128.10524414 -52.73364258 128.10524414 -52.75830078 126.35253906 C-52.75894531 125.25103516 -52.75958984 124.14953125 -52.76025391 123.01464844 C-52.76323486 122.00732666 -52.76621582 121.00000488 -52.76928711 119.9621582 C-52.34357174 116.87327918 -51.56148367 115.4767028 -49.39697266 113.26074219 C-48.73697266 113.26074219 -48.07697266 113.26074219 -47.39697266 113.26074219 C-47.39697266 112.60074219 -47.39697266 111.94074219 -47.39697266 111.26074219 C-48.03634766 110.97199219 -48.67572266 110.68324219 -49.33447266 110.38574219 C-51.39697266 109.26074219 -51.39697266 109.26074219 -52.39697266 107.26074219 C-52.69434979 103.18359916 -52.67507275 99.09745132 -52.70947266 95.01074219 C-52.73847656 93.87765625 -52.76748047 92.74457031 -52.79736328 91.57714844 C-52.84612139 85.17858409 -52.75748405 81.11148859 -48.39697266 76.26074219 C-49.04601562 75.71724121 -49.69505859 75.17374023 -50.36376953 74.61376953 C-52.86154523 71.72309204 -52.91101049 70.38238313 -52.92822266 66.61230469 C-52.93337891 65.52433594 -52.93853516 64.43636719 -52.94384766 63.31542969 C-52.92837891 62.18363281 -52.91291016 61.05183594 -52.89697266 59.88574219 C-52.91244141 58.76167969 -52.92791016 57.63761719 -52.94384766 56.47949219 C-52.9138744 50.14014916 -52.68280754 46.07380279 -48.39697266 41.26074219 C-49.04408203 40.69355469 -49.69119141 40.12636719 -50.35791016 39.54199219 C-53.49929283 34.48689363 -53.05531236 29.59519066 -53.02197266 23.76074219 C-53.0703125 22.06884766 -53.0703125 22.06884766 -53.11962891 20.34277344 C-53.12905944 12.37397464 -53.12905944 12.37397464 -51.20166016 9.44311523 C-44.43489626 3.51892681 -34.7715444 2.09776976 -26.14697266 1.16308594 C-25.3670697 1.0781488 -24.58716675 0.99321167 -23.78363037 0.90570068 C-15.85557601 0.10784301 -7.96292897 -0.04308765 0 0 Z " fill="#030405" transform="translate(66.39697265625,3.7392578125)"/>
<path d="M0 0 C4.62 0 9.24 0 14 0 C14.495 3.96 14.495 3.96 15 8 C15.58007812 8.10957031 16.16015625 8.21914062 16.7578125 8.33203125 C20.61191056 9.11429868 23.78050511 9.88818185 27.3125 11.6875 C29.82292969 13.19983786 29.82292969 13.19983786 32.125 12.8125 C34.11716851 11.94922698 36.05804723 10.97097638 38 10 C42.455 14.455 42.455 14.455 47 19 C46.01 20.32 45.02 21.64 44 23 C44 29.20677075 46.35661064 35.997912 50 41 C51.98 41.33 53.96 41.66 56 42 C56 46.62 56 51.24 56 56 C54.948125 56.061875 53.89625 56.12375 52.8125 56.1875 C50.7969428 56.62414121 50.7969428 56.62414121 49 58 C45.98183858 63.45360851 43.31046587 69.66689419 44 76 C44.66 77.32 45.32 78.64 46 80 C42.04 84.455 42.04 84.455 38 89 C36.02 88.01 36.02 88.01 34 87 C31.26698552 85.90679421 29.63890485 85.77306658 26.85546875 86.76171875 C24.54405459 87.79284712 22.27257382 88.88631554 20 90 C18.33805262 90.67834587 16.67401097 91.35199575 15 92 C14.67 94.31 14.34 96.62 14 99 C9.38 99 4.76 99 0 99 C0.0825 97.948125 0.165 96.89625 0.25 95.8125 C0.100761 93.82047431 0.100761 93.82047431 -1 92 C-6.35626855 88.72994424 -12.7151764 86.39548822 -19 86 C-20.32 86.99 -21.64 87.98 -23 89 C-27.455 84.545 -27.455 84.545 -32 80 C-31.34 78.68 -30.68 77.36 -30 76 C-29.12765599 73.61033422 -28.81448156 72.52311887 -29.671875 70.10546875 C-30.02765625 69.47253906 -30.3834375 68.83960938 -30.75 68.1875 C-32.22597431 65.5066487 -33.38679198 62.95568732 -34.375 60.0625 C-34.91125 59.051875 -35.4475 58.04125 -36 57 C-37.98 56.67 -39.96 56.34 -42 56 C-42 51.38 -42 46.76 -42 42 C-40.948125 41.9175 -39.89625 41.835 -38.8125 41.75 C-35.74119397 40.91520282 -35.08497826 40.14672196 -33.45703125 37.3359375 C-32.17691705 34.25014902 -31.02087311 31.18073689 -30 28 C-29.75121094 27.27039063 -29.50242187 26.54078125 -29.24609375 25.7890625 C-28.7502442 23.69061548 -28.7502442 23.69061548 -30.9375 21.25 C-31.9584375 20.13625 -31.9584375 20.13625 -33 19 C-28.545 14.545 -28.545 14.545 -24 10 C-22.68 10.66 -21.36 11.32 -20 12 C-17.67975596 13.01453953 -17.67975596 13.01453953 -15 13 C-13.25773549 12.06433943 -11.51699653 11.1189 -9.84765625 10.05859375 C-7.0193514 8.43814848 -4.15528338 7.77272246 -1 7 C-0.67 4.69 -0.34 2.38 0 0 Z " fill="#0066D9" transform="translate(123,116)"/>
<path d="M0 0 C1.17111328 -0.01224609 2.34222656 -0.02449219 3.54882812 -0.03710938 C4.66580078 -0.03904297 5.78277344 -0.04097656 6.93359375 -0.04296875 C7.96411865 -0.04707764 8.99464355 -0.05118652 10.05639648 -0.05541992 C12.5625 0.1875 12.5625 0.1875 14.5625 2.1875 C14.5625 3.5075 14.5625 4.8275 14.5625 6.1875 C15.5525 5.5275 16.5425 4.8675 17.5625 4.1875 C20.62338995 3.76938084 22.03380572 3.82956529 24.61474609 5.5769043 C26.73868536 7.66164775 28.85437673 9.74932625 30.9375 11.875 C31.68644531 12.59623047 32.43539062 13.31746094 33.20703125 14.06054688 C33.90957031 14.76630859 34.61210937 15.47207031 35.3359375 16.19921875 C36.30152588 17.16541138 36.30152588 17.16541138 37.28662109 18.15112305 C38.5625 20.1875 38.5625 20.1875 38.32666016 22.81176758 C37.5625 25.1875 37.5625 25.1875 36.5625 27.1875 C37.366875 27.496875 38.17125 27.80625 39 28.125 C41.5625 29.1875 41.5625 29.1875 42.5625 30.1875 C42.81506877 34.16025815 42.74772451 38.14516175 42.75 42.125 C42.76224609 43.24841797 42.77449219 44.37183594 42.78710938 45.52929688 C42.78904297 46.60115234 42.79097656 47.67300781 42.79296875 48.77734375 C42.79707764 49.76597412 42.80118652 50.75460449 42.80541992 51.77319336 C42.5625 54.1875 42.5625 54.1875 40.5625 56.1875 C37.9375 56.3125 37.9375 56.3125 35.5625 56.1875 C36.078125 56.744375 36.59375 57.30125 37.125 57.875 C38.5625 60.1875 38.5625 60.1875 38.57421875 62.37890625 C37.02671213 66.67488021 34.03892345 69.2894512 30.8125 72.4375 C30.19117188 73.07429688 29.56984375 73.71109375 28.9296875 74.3671875 C26.27598208 76.99849878 24.30120753 78.9214009 20.75390625 80.19921875 C17.84584289 80.18366761 16.65532436 79.12530034 14.5625 77.1875 C14.60375 77.97125 14.645 78.755 14.6875 79.5625 C14.5625 82.1875 14.5625 82.1875 12.5625 84.1875 C10.1640625 84.43041992 10.1640625 84.43041992 7.1875 84.41796875 C6.12015625 84.41603516 5.0528125 84.41410156 3.953125 84.41210938 C2.83421875 84.39986328 1.7153125 84.38761719 0.5625 84.375 C-1.11585938 84.3740332 -1.11585938 84.3740332 -2.828125 84.37304688 C-11.15693681 84.32778159 -11.15693681 84.32778159 -13.4375 83.1875 C-14.0625 80.625 -14.0625 80.625 -14.4375 78.1875 C-15.9225 79.1775 -15.9225 79.1775 -17.4375 80.1875 C-23.38809545 79.76326159 -26.27397522 75.97820652 -30.25 71.9375 C-31.28930664 70.93396484 -31.28930664 70.93396484 -32.34960938 69.91015625 C-33.00380859 69.25402344 -33.65800781 68.59789063 -34.33203125 67.921875 C-34.92862549 67.32600586 -35.52521973 66.73013672 -36.13989258 66.11621094 C-37.82422005 63.61269504 -37.82283528 62.15107323 -37.4375 59.1875 C-36.7775 58.1975 -36.1175 57.2075 -35.4375 56.1875 C-37.4175 55.8575 -39.3975 55.5275 -41.4375 55.1875 C-41.46636537 50.87501391 -41.48425255 46.56255238 -41.5 42.25 C-41.50837891 41.01830078 -41.51675781 39.78660156 -41.52539062 38.51757812 C-41.52861328 37.34775391 -41.53183594 36.17792969 -41.53515625 34.97265625 C-41.54039307 33.88863525 -41.54562988 32.80461426 -41.55102539 31.68774414 C-41.4375 29.1875 -41.4375 29.1875 -40.4375 28.1875 C-38.77132885 28.14686168 -37.10361905 28.144779 -35.4375 28.1875 C-35.788125 27.630625 -36.13875 27.07375 -36.5 26.5 C-37.69497514 23.55239466 -37.3236187 22.21592755 -36.4375 19.1875 C-34.33760514 16.27017203 -31.73804821 13.83903175 -29.1875 11.3125 C-28.51847656 10.61125 -27.84945312 9.91 -27.16015625 9.1875 C-26.50402344 8.53007813 -25.84789062 7.87265625 -25.171875 7.1953125 C-24.57600586 6.59348145 -23.98013672 5.99165039 -23.36621094 5.37158203 C-21.4375 4.1875 -21.4375 4.1875 -18.89160156 4.43701172 C-17.06569708 4.99539118 -15.24889264 5.58370245 -13.4375 6.1875 C-13.458125 5.383125 -13.47875 4.57875 -13.5 3.75 C-13.35015551 -2.39362413 -4.66684612 0.00255998 0 0 Z " fill="#00489A" transform="translate(168.4375,31.8125)"/>
<path d="M0 0 C1.17111328 -0.01224609 2.34222656 -0.02449219 3.54882812 -0.03710938 C4.66580078 -0.03904297 5.78277344 -0.04097656 6.93359375 -0.04296875 C7.96411865 -0.04707764 8.99464355 -0.05118652 10.05639648 -0.05541992 C12.5625 0.1875 12.5625 0.1875 14.5625 2.1875 C14.5625 3.5075 14.5625 4.8275 14.5625 6.1875 C15.5525 5.5275 16.5425 4.8675 17.5625 4.1875 C20.62338995 3.76938084 22.03380572 3.82956529 24.61474609 5.5769043 C26.73868536 7.66164775 28.85437673 9.74932625 30.9375 11.875 C31.68644531 12.59623047 32.43539062 13.31746094 33.20703125 14.06054688 C33.90957031 14.76630859 34.61210937 15.47207031 35.3359375 16.19921875 C36.30152588 17.16541138 36.30152588 17.16541138 37.28662109 18.15112305 C38.5625 20.1875 38.5625 20.1875 38.32666016 22.81176758 C37.5625 25.1875 37.5625 25.1875 36.5625 27.1875 C37.366875 27.496875 38.17125 27.80625 39 28.125 C41.5625 29.1875 41.5625 29.1875 42.5625 30.1875 C42.81506877 34.16025815 42.74772451 38.14516175 42.75 42.125 C42.76224609 43.24841797 42.77449219 44.37183594 42.78710938 45.52929688 C42.78904297 46.60115234 42.79097656 47.67300781 42.79296875 48.77734375 C42.79707764 49.76597412 42.80118652 50.75460449 42.80541992 51.77319336 C42.5625 54.1875 42.5625 54.1875 40.5625 56.1875 C37.9375 56.3125 37.9375 56.3125 35.5625 56.1875 C36.078125 56.744375 36.59375 57.30125 37.125 57.875 C38.5625 60.1875 38.5625 60.1875 38.57421875 62.37890625 C37.02671213 66.67488021 34.03892345 69.2894512 30.8125 72.4375 C30.19117188 73.07429688 29.56984375 73.71109375 28.9296875 74.3671875 C26.27598208 76.99849878 24.30120753 78.9214009 20.75390625 80.19921875 C17.84584289 80.18366761 16.65532436 79.12530034 14.5625 77.1875 C14.60375 77.97125 14.645 78.755 14.6875 79.5625 C14.5625 82.1875 14.5625 82.1875 12.5625 84.1875 C10.1640625 84.43041992 10.1640625 84.43041992 7.1875 84.41796875 C6.12015625 84.41603516 5.0528125 84.41410156 3.953125 84.41210938 C2.83421875 84.39986328 1.7153125 84.38761719 0.5625 84.375 C-1.11585938 84.3740332 -1.11585938 84.3740332 -2.828125 84.37304688 C-11.15693681 84.32778159 -11.15693681 84.32778159 -13.4375 83.1875 C-14.0625 80.625 -14.0625 80.625 -14.4375 78.1875 C-15.9225 79.1775 -15.9225 79.1775 -17.4375 80.1875 C-23.38809545 79.76326159 -26.27397522 75.97820652 -30.25 71.9375 C-31.28930664 70.93396484 -31.28930664 70.93396484 -32.34960938 69.91015625 C-33.00380859 69.25402344 -33.65800781 68.59789063 -34.33203125 67.921875 C-34.92862549 67.32600586 -35.52521973 66.73013672 -36.13989258 66.11621094 C-37.82422005 63.61269504 -37.82283528 62.15107323 -37.4375 59.1875 C-36.7775 58.1975 -36.1175 57.2075 -35.4375 56.1875 C-37.4175 55.8575 -39.3975 55.5275 -41.4375 55.1875 C-41.46636537 50.87501391 -41.48425255 46.56255238 -41.5 42.25 C-41.50837891 41.01830078 -41.51675781 39.78660156 -41.52539062 38.51757812 C-41.52861328 37.34775391 -41.53183594 36.17792969 -41.53515625 34.97265625 C-41.54039307 33.88863525 -41.54562988 32.80461426 -41.55102539 31.68774414 C-41.4375 29.1875 -41.4375 29.1875 -40.4375 28.1875 C-38.77132885 28.14686168 -37.10361905 28.144779 -35.4375 28.1875 C-35.788125 27.630625 -36.13875 27.07375 -36.5 26.5 C-37.69497514 23.55239466 -37.3236187 22.21592755 -36.4375 19.1875 C-34.33760514 16.27017203 -31.73804821 13.83903175 -29.1875 11.3125 C-28.51847656 10.61125 -27.84945312 9.91 -27.16015625 9.1875 C-26.50402344 8.53007813 -25.84789062 7.87265625 -25.171875 7.1953125 C-24.57600586 6.59348145 -23.98013672 5.99165039 -23.36621094 5.37158203 C-21.4375 4.1875 -21.4375 4.1875 -18.89160156 4.43701172 C-17.06569708 4.99539118 -15.24889264 5.58370245 -13.4375 6.1875 C-13.458125 5.383125 -13.47875 4.57875 -13.5 3.75 C-13.35015551 -2.39362413 -4.66684612 0.00255998 0 0 Z M-6.4375 7.1875 C-6.7675 8.1775 -7.0975 9.1675 -7.4375 10.1875 C-13.35611986 13.43693835 -13.35611986 13.43693835 -17.3671875 12.51171875 C-20.51417538 11.85596543 -20.51417538 11.85596543 -23.02734375 13.84765625 C-23.80207031 14.64042969 -24.57679688 15.43320312 -25.375 16.25 C-26.16777344 17.02472656 -26.96054688 17.79945312 -27.77734375 18.59765625 C-29.76903457 21.11082462 -29.76903457 21.11082462 -29.11328125 24.2578125 C-28.89027344 25.22460938 -28.66726562 26.19140625 -28.4375 27.1875 C-29.03379515 29.92737341 -30.05835954 31.67549417 -31.4375 34.1875 C-32.4275 34.5175 -33.4175 34.8475 -34.4375 35.1875 C-34.4375 39.8075 -34.4375 44.4275 -34.4375 49.1875 C-33.1175 49.8475 -31.7975 50.5075 -30.4375 51.1875 C-28.66234153 54.2306288 -28.29275263 55.60051343 -29.14453125 59.0546875 C-29.76594228 62.24744365 -29.76594228 62.24744365 -27.8125 64.7421875 C-23.06708736 69.67874497 -23.06708736 69.67874497 -16.75 71.5625 C-15.656875 71.43875 -14.56375 71.315 -13.4375 71.1875 C-10.0625 72.5 -10.0625 72.5 -7.4375 74.1875 C-7.1075 75.1775 -6.7775 76.1675 -6.4375 77.1875 C-1.8175 77.1875 2.8025 77.1875 7.5625 77.1875 C8.0575 75.2075 8.0575 75.2075 8.5625 73.1875 C11.78865451 71.23225484 13.58537161 71.18974967 17.375 71.5625 C21.34007114 71.66823523 23.16094752 70.32714244 26.0625 67.6875 C28.70214244 64.78594752 30.04323523 62.96507114 29.9375 59 C29.81375 57.741875 29.69 56.48375 29.5625 55.1875 C30.3125 52.25 30.3125 52.25 31.5625 50.1875 C32.8825 49.8575 34.2025 49.5275 35.5625 49.1875 C35.5625 44.5675 35.5625 39.9475 35.5625 35.1875 C34.2425 34.5275 32.9225 33.8675 31.5625 33.1875 C29.79601706 30.09615486 29.52075687 28.49759184 30 24.9375 C29.38571617 19.67221002 26.72903028 17.50947039 23.1171875 13.8125 C20.62625743 11.85570472 20.62625743 11.85570472 17.46484375 12.515625 C16.50707031 12.73734375 15.54929688 12.9590625 14.5625 13.1875 C11.25 11.9375 11.25 11.9375 8.5625 10.1875 C8.0675 8.7025 8.0675 8.7025 7.5625 7.1875 C2.9425 7.1875 -1.6775 7.1875 -6.4375 7.1875 Z " fill="#020304" transform="translate(168.4375,31.8125)"/>
<path d="M0 0 C6.02588241 3.13478809 9.73848946 8.0847881 13.0625 13.875 C15.25859192 21.36754891 14.77112037 27.55377144 11.2578125 34.53125 C7.81989398 40.50611529 3.64297708 43.90091951 -2.625 46.75 C-10.80590878 48.63790203 -17.65665285 47.89689003 -24.875 43.5 C-30.63635095 38.6348592 -34.52777917 32.97095189 -35.875 25.5 C-36.20821294 17.36713598 -34.35535888 11.55661979 -28.875 5.5 C-20.63481381 -1.88507252 -10.66315475 -4.17333815 0 0 Z " fill="#FBFBFB" transform="translate(140.875,142.5)"/>
<path d="M0 0 C1.64548828 0.41572266 1.64548828 0.41572266 3.32421875 0.83984375 C4.77862993 1.20579237 6.2330579 1.57167427 7.6875 1.9375 C8.40873047 2.11990234 9.12996094 2.30230469 9.87304688 2.49023438 C10.57880859 2.66748047 11.28457031 2.84472656 12.01171875 3.02734375 C12.65584717 3.18968506 13.29997559 3.35202637 13.96362305 3.51928711 C14.63562744 3.67792236 15.30763184 3.83655762 16 4 C16.70431152 4.18159668 17.40862305 4.36319336 18.13427734 4.55029297 C22.36704033 5.21452448 26.56144785 5.16276306 30.83984375 5.16796875 C31.7983876 5.17129715 32.75693146 5.17462555 33.74452209 5.17805481 C35.77441937 5.18311166 37.80432494 5.18546352 39.83422852 5.18530273 C42.89549055 5.18747026 45.9563807 5.20558652 49.01757812 5.22460938 C63.96752369 5.26820411 77.50014018 3.89020629 92 0 C92 4.62 92 9.24 92 14 C66.00899132 25.08440076 29.67524482 24.84751072 3 16 C2.01 15.34 1.02 14.68 0 14 C-0.29296875 10.7421875 -0.29296875 10.7421875 -0.1875 6.875 C-0.16042969 5.59367187 -0.13335938 4.31234375 -0.10546875 2.9921875 C-0.07066406 2.00476563 -0.03585938 1.01734375 0 0 Z " fill="#CED7E7" transform="translate(21,25)"/>
<path d="M0 0 C0.74378906 0.19335938 1.48757812 0.38671875 2.25390625 0.5859375 C28.51190119 6.84817478 60.73175895 8.31212986 86.85546875 0.5859375 C89 0 89 0 92 0 C92 4.29 92 8.58 92 13 C78.02178813 20.50050393 61.7338338 20.38331893 46.25 20.3125 C45.06960144 20.31076279 45.06960144 20.31076279 43.86535645 20.30899048 C7.20238501 20.20238501 7.20238501 20.20238501 0 13 C-0.07258946 10.81360547 -0.08373783 8.62499611 -0.0625 6.4375 C-0.05347656 5.23996094 -0.04445313 4.04242188 -0.03515625 2.80859375 C-0.02355469 1.88175781 -0.01195313 0.95492187 0 0 Z " fill="#D0D9E9" transform="translate(21,96)"/>
<path d="M0 0 C0 4.62 0 9.24 0 14 C-4.89828435 16.44914217 -8.04383036 17.63386729 -13.25 18.625 C-14.47203125 18.86476563 -15.6940625 19.10453125 -16.953125 19.3515625 C-35.3110832 22.46392919 -55.43414526 22.32971171 -73.875 19.75 C-74.68042236 19.64075195 -75.48584473 19.53150391 -76.31567383 19.41894531 C-82.03451777 18.49441809 -86.78401535 16.50947969 -92 14 C-92 9.71 -92 5.42 -92 1 C-90.41832031 1.27714844 -88.83664063 1.55429687 -87.20703125 1.83984375 C-55.69491507 7.28588888 -30.34480921 0 0 0 Z " fill="#D0D9E9" transform="translate(113,60)"/>
<path d="M0 0 C7.62553234 4.63025463 13.95558937 10.56236763 16.27734375 19.3828125 C17.47380835 28.18492287 17.64846175 37.50007042 12.890625 45.2734375 C7.28161435 52.60725288 1.35386994 57.86368095 -7.72265625 60.1328125 C-18.07270976 60.99531696 -26.66158339 59.82191685 -34.90625 53.04296875 C-41.66659415 46.86415958 -45.16126952 41.30163057 -46.0390625 32.046875 C-46.36698132 22.29393465 -44.72038873 14.90493528 -38.72265625 7.1328125 C-28.60051657 -3.41823141 -13.30673539 -6.33232333 0 0 Z M-33.53515625 12.0703125 C-38.09138239 17.71085791 -40.09435651 23.17524152 -39.66015625 30.4453125 C-38.40330807 39.14864827 -34.31513388 44.38291263 -27.78515625 50.0703125 C-22.1681609 53.64476409 -16.21342753 54.18438365 -9.72265625 53.3828125 C-1.66824274 50.91041342 4.02269991 46.71840533 8.27734375 39.3828125 C10.99538422 33.40312347 11.4439944 27.02384779 9.4375 20.76171875 C6.2691806 13.75301219 1.65249196 8.16638865 -5.578125 5.21875 C-16.4959253 2.31637824 -25.74140458 3.95249631 -33.53515625 12.0703125 Z " fill="#030406" transform="translate(144.72265625,136.6171875)"/>
<path d="M0 0 C4.59047821 2.63527453 7.99478431 6.17706863 10.375 10.9375 C10.8822965 16.49281248 11.13760422 21.35580236 8.6875 26.4375 C4.86929941 30.56528443 1.70698614 33.56070028 -4.04296875 34.2109375 C-9.90515461 34.42591188 -14.14971339 34.06676496 -18.96484375 30.546875 C-23.05334562 26.58343319 -24.80826682 22.07737805 -25.1875 16.4375 C-24.91453751 11.33045989 -23.01378536 7.71193406 -19.625 3.9375 C-13.33416006 -1.58878157 -8.03274329 -2.35442476 0 0 Z " fill="#FAFAFA" transform="translate(175.625,57.0625)"/>
<path d="M0 0 C2.72669939 0.02372106 5.45242153 0.02051424 8.17919922 0.01391602 C22.06802605 0.03527221 35.85568893 0.1603118 48.59716797 6.33618164 C44.78971119 10.89243826 39.16272438 11.21297411 33.59716797 12.33618164 C32.58396484 12.54500977 31.57076172 12.75383789 30.52685547 12.96899414 C9.24484405 16.54115209 -18.89503644 17.31932006 -39.40283203 9.33618164 C-40.06283203 8.34618164 -40.72283203 7.35618164 -41.40283203 6.33618164 C-36.98394191 3.89627486 -32.79304152 2.51624157 -27.84814453 1.66821289 C-27.11604767 1.54186966 -26.38395081 1.41552643 -25.62966919 1.28535461 C-17.11011954 -0.04739679 -8.60492232 -0.07980434 0 0 Z " fill="#9DB2D4" transform="translate(63.40283203125,10.663818359375)"/>
<path d="M0 0 C5.99622241 2.95102045 10.92669513 7.64254316 13.6171875 13.80078125 C15.63373742 21.27089387 14.98919021 29.31638166 11.23828125 36.1015625 C7.50365043 41.87326468 2.78759644 44.97893126 -3.76171875 47.1015625 C-11.7261885 48.1756513 -18.14590342 47.3335091 -24.8203125 42.66015625 C-30.58716343 38.09958239 -33.9042657 33.18375816 -35.13671875 25.87890625 C-35.53888842 18.75296232 -32.976406 12.3216012 -28.98046875 6.51171875 C-21.09458399 -2.05446241 -10.57597248 -3.90890865 0 0 Z M-24.375 11.8984375 C-27.34502433 16.08157036 -28.51702152 19.73423925 -28.171875 24.8671875 C-27.12966214 30.54476613 -24.89809293 34.66665653 -20.19921875 38.1015625 C-15.21684094 40.85816779 -10.30802028 40.86715627 -4.76171875 40.1015625 C0.53377582 38.33639764 2.99549603 35.45615979 6.23828125 31.1015625 C8.33122511 26.91567478 7.66246074 21.6599984 7.23828125 17.1015625 C4.82983096 12.00676381 0.62450371 7.56892557 -4.63671875 5.2890625 C-5.33796875 5.2271875 -6.03921875 5.1653125 -6.76171875 5.1015625 C-8.61796875 4.9159375 -8.61796875 4.9159375 -10.51171875 4.7265625 C-16.36185859 4.83550365 -20.53634316 7.62293593 -24.375 11.8984375 Z " fill="#020405" transform="translate(178.76171875,50.8984375)"/>
<path d="M0 0 C1.97502016 2.96253023 2.41917357 4.89267671 2.93603516 8.34326172 C5.06658149 22.55463531 10.99310836 33.45278877 22.12109375 42.77734375 C32.28495734 50.10651511 43.75338722 52.7698305 56 54 C53.33440687 55.77706209 50.9719385 56.87548273 48 58 C47.67 60.31 47.34 62.62 47 65 C42.38 65 37.76 65 33 65 C33.0825 63.948125 33.165 62.89625 33.25 61.8125 C33.100761 59.82047431 33.100761 59.82047431 32 58 C26.64373145 54.72994424 20.2848236 52.39548822 14 52 C12.68 52.99 11.36 53.98 10 55 C5.545 50.545 5.545 50.545 1 46 C1.66 44.68 2.32 43.36 3 42 C3.87234401 39.61033422 4.18551844 38.52311887 3.328125 36.10546875 C2.97234375 35.47253906 2.6165625 34.83960938 2.25 34.1875 C0.77402569 31.5066487 -0.38679198 28.95568732 -1.375 26.0625 C-2.179375 24.5465625 -2.179375 24.5465625 -3 23 C-4.98 22.67 -6.96 22.34 -9 22 C-9 17.38 -9 12.76 -9 8 C-7.88625 7.79375 -6.7725 7.5875 -5.625 7.375 C-1.73400805 6.38371699 -1.73400805 6.38371699 -0.5625 2.875 C-0.376875 1.92625 -0.19125 0.9775 0 0 Z " fill="#0054BD" transform="translate(90,150)"/>
<path d="M0 0 C1.88332031 0.41572266 1.88332031 0.41572266 3.8046875 0.83984375 C5.49472882 1.20601937 7.1848366 1.57188831 8.875 1.9375 C9.69742187 2.11990234 10.51984375 2.30230469 11.3671875 2.49023438 C19.95050153 4.33430575 28.27981189 5.03709448 37.0546875 5.17578125 C37.7694223 5.18786118 38.4841571 5.1999411 39.22055054 5.21238708 C42.19653891 5.26076755 45.17208386 5.30834833 48.1484375 5.32592773 C50.34701786 5.34138056 52.54402372 5.38149682 54.7421875 5.42578125 C56.0401123 5.44036377 57.33803711 5.45494629 58.67529297 5.4699707 C62.47569942 6.07583665 63.65774465 7.02503247 66 10 C65.52449439 11.48034764 65.04448784 12.95925021 64.5625 14.4375 C64.29566406 15.26121094 64.02882813 16.08492187 63.75390625 16.93359375 C63 19 63 19 62 20 C57.42937993 20.22274707 52.85262541 20.1857821 48.27709961 20.18530273 C45.99898218 20.18744226 43.72138782 20.20544955 41.44335938 20.22460938 C28.4587626 20.27504565 14.1089412 20.19697047 2 15 C0 13 0 13 -0.1953125 9.9609375 C-0.17210938 8.77757812 -0.14890625 7.59421875 -0.125 6.375 C-0.10695313 5.18648437 -0.08890625 3.99796875 -0.0703125 2.7734375 C-0.04710938 1.85820312 -0.02390625 0.94296875 0 0 Z " fill="#D1DAEB" transform="translate(21,131)"/>
<path d="M0 0 C17.36539388 2.38084299 34.43726029 2.21700816 51.75439453 -0.53979492 C63.50682512 -2.36060889 63.50682512 -2.36060889 68.81640625 1.04296875 C69.58984375 1.75453125 69.58984375 1.75453125 70.37890625 2.48046875 C47.85364053 13.48117991 9.79049801 13.58186815 -13.95751953 5.70556641 C-15.85829077 4.99761548 -17.74184317 4.24371386 -19.62109375 3.48046875 C-18.62109375 0.48046875 -18.62109375 0.48046875 -16.68359375 -0.76953125 C-11.11646383 -2.13291001 -5.61043981 -0.80494983 0 0 Z " fill="#9BAFD0" transform="translate(41.62109375,50.51953125)"/>
<path d="M0 0 C15.65504565 1.78523814 31.16854341 1.38621985 46.81762695 -0.28808594 C62.56729808 -1.96526551 62.56729808 -1.96526551 68.3125 1 C68.3125 1.66 68.3125 2.32 68.3125 3 C43.0565498 13.32803462 3.63328025 13.07750117 -21.6875 3 C-21.6875 2.34 -21.6875 1.68 -21.6875 1 C-15.08107044 -2.75865451 -7.23957175 -0.92263686 0 0 Z " fill="#9CB0D2" transform="translate(43.6875,86)"/>
<path d="M0 0 C1.25103516 0.00966797 1.25103516 0.00966797 2.52734375 0.01953125 C5.0625 0.1875 5.0625 0.1875 7.27563477 0.66308594 C19.56167113 2.97499186 32.60938722 2.31680314 45.0625 2.25 C46.72395696 2.24496627 48.38541542 2.24040673 50.046875 2.23632812 C54.05212171 2.22549087 58.05729334 2.20833374 62.0625 2.1875 C61.18258445 3.3456019 60.28275664 4.4885893 59.375 5.625 C58.87613281 6.26308594 58.37726563 6.90117188 57.86328125 7.55859375 C53.96460824 11.08515914 48.4755041 10.35984076 43.48046875 10.390625 C42.74862869 10.39632507 42.01678864 10.40202515 41.26277161 10.40789795 C39.71206084 10.41732207 38.16133029 10.42387162 36.6105957 10.42773438 C34.2953518 10.43731238 31.98104666 10.46830421 29.66601562 10.5 C16.29208329 10.59466863 3.67079049 8.91560893 -8.9375 4.1875 C-8.9375 3.5275 -8.9375 2.8675 -8.9375 2.1875 C-5.82731791 0.37023425 -3.58707821 -0.06079794 0 0 Z " fill="#9CB0D2" transform="translate(30.9375,119.8125)"/>
<path d="M0 0 C0.99 0 1.98 0 3 0 C3.14695313 0.89460938 3.29390625 1.78921875 3.4453125 2.7109375 C5.57496421 14.19147372 9.59083539 23.67134788 19 31 C26.11293258 35.61209586 33.75423254 37.41029875 42 39 C42 39.99 42 40.98 42 42 C37.38 42 32.76 42 28 42 C27.34 40.68 26.68 39.36 26 38 C22.90865486 36.23351706 21.31009184 35.95825687 17.75 36.4375 C12.48471002 35.82321617 10.32197039 33.16653028 6.625 29.5546875 C5 27 5 27 5.328125 23.90234375 C5.54984375 22.94457031 5.7715625 21.98679687 6 21 C4.88328093 17.68190243 4.88328093 17.68190243 3 15 C2.01 14.67 1.02 14.34 0 14 C0 9.38 0 4.76 0 0 Z " fill="#003E7F" transform="translate(134,67)"/>
<path d="M0 0 C0.66 0.33 1.32 0.66 2 1 C2 2.65 2 4.3 2 6 C2.66 6 3.32 6 4 6 C4.33 6.99 4.66 7.98 5 9 C3.68 10.32 2.36 11.64 1 13 C-0.48034764 12.52449439 -1.95925021 12.04448784 -3.4375 11.5625 C-4.26121094 11.29566406 -5.08492187 11.02882813 -5.93359375 10.75390625 C-8 10 -8 10 -9 9 C-9.04092937 6.66702567 -9.04241723 4.33294775 -9 2 C-7.329375 2.061875 -7.329375 2.061875 -5.625 2.125 C-1.95633975 2.41121859 -1.95633975 2.41121859 0 0 Z " fill="#F5F5F5" transform="translate(153,109)"/>
<path d="M0 0 C2.97 0.495 2.97 0.495 6 1 C5.34 1.66 4.68 2.32 4 3 C3.33292452 6.41499591 3.33292452 6.41499591 4 10 C6.90412546 12.35322796 6.90412546 12.35322796 10 14 C10 14.66 10 15.32 10 16 C10.99 16.33 11.98 16.66 13 17 C8.02693484 16.50269348 4.36200187 15.44697666 0 13 C0 8.71 0 4.42 0 0 Z " fill="#B8C5DD" transform="translate(21,61)"/>
<path d="M0 0 C0.99 0.33 1.98 0.66 3 1 C3.02578125 1.68707031 3.0515625 2.37414062 3.078125 3.08203125 C3.13484375 3.98308594 3.1915625 4.88414063 3.25 5.8125 C3.29640625 6.70582031 3.3428125 7.59914063 3.390625 8.51953125 C3.78732914 11.12402754 3.78732914 11.12402754 5.875 12.71875 C6.57625 13.1415625 7.2775 13.564375 8 14 C8.9075 14.556875 9.815 15.11375 10.75 15.6875 C11.86375 16.3371875 11.86375 16.3371875 13 17 C11 18 11 18 8.90625 17.4765625 C8.1121875 17.19554688 7.318125 16.91453125 6.5 16.625 C5.7059375 16.34914063 4.911875 16.07328125 4.09375 15.7890625 C2 15 2 15 0 14 C0 9.38 0 4.76 0 0 Z " fill="#B8C5DD" transform="translate(21,25)"/>
<path d="M0 0 C2.97 0.495 2.97 0.495 6 1 C5.34 1.66 4.68 2.32 4 3 C3.33292452 6.41499591 3.33292452 6.41499591 4 10 C6.86615486 12.49540371 6.86615486 12.49540371 10 14 C9.67 14.66 9.34 15.32 9 16 C5.26512223 15.5020163 3.18762365 15.12508244 0 13 C-0.29296875 9.9609375 -0.29296875 9.9609375 -0.1875 6.375 C-0.16042969 5.18648438 -0.13335938 3.99796875 -0.10546875 2.7734375 C-0.07066406 1.85820313 -0.03585938 0.94296875 0 0 Z " fill="#BBC8E0" transform="translate(21,96)"/>
<path d="M0 0 C2.475 0.495 2.475 0.495 5 1 C4.01 1.495 4.01 1.495 3 2 C3 4.97 3 7.94 3 11 C4.32 11.66 5.64 12.32 7 13 C7.66 13.66 8.32 14.32 9 15 C6.22856087 16.12910483 5.19975164 16.08085185 2.375 14.9375 C0 13 0 13 -0.48828125 9.86328125 C-0.43027344 8.69152344 -0.37226563 7.51976562 -0.3125 6.3125 C-0.26738281 5.13300781 -0.22226562 3.95351562 -0.17578125 2.73828125 C-0.11777344 1.83464844 -0.05976563 0.93101562 0 0 Z " fill="#BAC7E0" transform="translate(21,131)"/>
<path d="M0 0 C0.99 1.485 0.99 1.485 2 3 C5.9408113 8.88611623 10.10924368 13.05289424 16 17 C15.67 17.99 15.34 18.98 15 20 C0.22737873 7.09188433 0.22737873 7.09188433 -0.3125 2.125 C-0.209375 1.42375 -0.10625 0.7225 0 0 Z " fill="#005FCC" transform="translate(100,176)"/>
<path d="M0 0 C1.796875 0.8046875 1.796875 0.8046875 4 2 C5.74363045 2.72387082 7.49394279 3.43181952 9.25 4.125 C10.14203125 4.47820312 11.0340625 4.83140625 11.953125 5.1953125 C12.62859375 5.46085937 13.3040625 5.72640625 14 6 C10.49857145 7.22142857 8.36212766 6.75961766 4.875 5.625 C4.00617187 5.34914063 3.13734375 5.07328125 2.2421875 4.7890625 C0 4 0 4 -2 3 C-2 2.34 -2 1.68 -2 1 C-1.34 0.67 -0.68 0.34 0 0 Z " fill="#8BA2C3" transform="translate(24,121)"/>
<path d="M0 0 C2 1 2 1 4 3 C5.64991582 3.70710678 7.31562256 4.37943989 9 5 C9 5.66 9 6.32 9 7 C4.6822542 6.49202991 0.96697886 5.80317221 -3 4 C-2.67 3.01 -2.34 2.02 -2 1 C-1.34 0.67 -0.68 0.34 0 0 Z " fill="#8298B7" transform="translate(25,50)"/>
<path d="M0 0 C0 0.66 0 1.32 0 2 C1.62626404 3.38232443 3.2925002 4.71937515 5 6 C0.6822542 5.49202991 -3.03302114 4.80317221 -7 3 C-7 2.34 -7 1.68 -7 1 C-3.375 -1.125 -3.375 -1.125 0 0 Z " fill="#8CA2C3" transform="translate(29,86)"/>
<path d="M0 0 C2 1 2 1 4 3 C5.98356483 3.71408334 7.98315437 4.38617742 10 5 C10 5.66 10 6.32 10 7 C8.20601116 6.74500159 6.41479125 6.47046186 4.625 6.1875 C3.62726562 6.03667969 2.62953125 5.88585937 1.6015625 5.73046875 C-1 5 -1 5 -3 2 C-2.01 1.34 -1.02 0.68 0 0 Z " fill="#879DBD" transform="translate(25,15)"/>
<path d="M0 0 C0.33 0.99 0.66 1.98 1 3 C-0.23884319 3.72767003 -1.49168341 4.43154815 -2.75 5.125 C-3.79414062 5.71667969 -3.79414062 5.71667969 -4.859375 6.3203125 C-7 7 -7 7 -9.265625 6.1171875 C-9.83796875 5.74851562 -10.4103125 5.37984375 -11 5 C-8.49751135 3.33167423 -6.58850813 2.37618326 -3.8125 1.375 C-3.09707031 1.11460938 -2.38164063 0.85421875 -1.64453125 0.5859375 C-1.10183594 0.39257812 -0.55914062 0.19921875 0 0 Z " fill="#B4BFD0" transform="translate(115,115)"/>
<path d="M0 0 C0 3.94720688 -1.52509109 5.01555103 -4 8 C-4.70885894 9.31138904 -5.39456452 10.63777017 -6 12 C-6.99 11.01 -7.98 10.02 -9 9 C-6.03 6.03 -3.06 3.06 0 0 Z " fill="#0054B8" transform="translate(99,126)"/>
</svg>
