<?xml version="1.0" encoding="UTF-8"?>
<svg version="1.1" xmlns="http://www.w3.org/2000/svg" width="225" height="225">
<path d="M0 0 C74.25 0 148.5 0 225 0 C225 74.25 225 148.5 225 225 C150.75 225 76.5 225 0 225 C0 150.75 0 76.5 0 0 Z " fill="#FCFCFC" transform="translate(0,0)"/>
<path d="M0 0 C5.10458221 1.88152369 8.94857716 5.07781986 11.38671875 9.96484375 C12.87775876 14.91281728 12.61955059 20.14134822 11 25 C11.99257813 25.73863281 12.98515625 26.47726563 14.0078125 27.23828125 C15.38024382 28.26297331 16.75263677 29.28771676 18.125 30.3125 C19.20358276 31.11433716 19.20358276 31.11433716 20.30395508 31.93237305 C23.93366959 34.64459521 27.51389667 37.39079945 31.00390625 40.28125 C31.62571777 40.79131592 32.2475293 41.30138184 32.88818359 41.8269043 C34.06697559 42.80016743 35.23578624 43.78567746 36.39306641 44.78442383 C38.98281969 46.91052143 40.35727518 48.03254303 43.77734375 47.859375 C45.98947181 47.06627684 45.98947181 47.06627684 47.875 45.9375 C52.29171134 43.98895088 56.18245224 44.71808698 60.625 46.25 C65.25164719 48.64900225 69.19326187 50.90828346 71 56 C71 56.99 71 57.98 71 59 C76.94 59 82.88 59 89 59 C88.87625 56.999375 88.7525 54.99875 88.625 52.9375 C88.60445096 48.22663367 88.75062986 45.36729262 91.875 41.75 C94.46486122 39.22269582 96.1305688 38.07728277 99.8125 37.75 C103.41995442 38.0329376 105.12754237 38.84565678 108 41 C110.67927341 45.01891012 110.15601248 47.24161923 110 52 C113.90067828 52.08907446 116.03416132 51.75561907 119.14859009 49.31906128 C121.60729448 46.92022204 123.96132184 44.44890431 126.30078125 41.93359375 C128.1003885 40.06785481 129.90053547 38.20263633 131.70117188 36.33789062 C134.51770964 33.39113389 137.31982122 30.43101736 140.11303711 27.4621582 C142.81557405 24.59325611 145.55842573 21.76446048 148.30078125 18.93359375 C149.12403397 18.03990585 149.94728668 17.14621796 150.79548645 16.22544861 C156.60362944 10.27076258 156.60362944 10.27076258 160.82772827 9.45169067 C163.29059473 9.44279087 165.57481012 9.58750148 168 10 C168.29777344 9.37738281 168.59554687 8.75476562 168.90234375 8.11328125 C170.32764244 5.36920084 171.19324639 4.36739278 174 3 C177.88643505 2.6797694 181.38789009 2.97742013 184.73046875 5.09765625 C186.84344588 7.22247078 187.93126561 9.2776641 188.21484375 12.2578125 C187.98325009 15.85642175 187.36162767 18.39728722 185.5 21.5 C181.78582137 23.72850718 178.32068144 24.46266364 174 24 C171.34751292 22.62783764 170.05533333 21.26613675 168 19 C168 18.34 168 17.68 168 17 C164.09782769 16.91082429 161.96365828 17.24848844 158.84454346 19.68093872 C156.37631068 22.07948187 154.0127734 24.55066499 151.6640625 27.06640625 C149.85973578 28.93198963 148.05503681 30.79721303 146.25 32.66210938 C143.42611625 35.61023558 140.61606537 38.57132358 137.81152344 41.5378418 C135.09866176 44.4039171 132.34969587 47.23413288 129.6015625 50.06640625 C128.7731485 50.96009415 127.9447345 51.85378204 127.09121704 52.77455139 C121.28236177 58.72940368 121.28236177 58.72940368 117.40155029 59.54830933 C114.89990234 59.55834961 114.89990234 59.55834961 111 59 C111 62.63 111 66.26 111 70 C117.97673254 70.59595978 124.96868837 71.08917008 130.62597656 66.38623047 C134.19578398 62.95265412 137.42775306 59.21567783 140.625 55.4375 C152.10099105 41.92691418 152.10099105 41.92691418 157.95214844 41.16064453 C161.41187016 41.16020956 164.6003412 41.38045397 168 42 C168.4021875 40.824375 168.4021875 40.824375 168.8125 39.625 C170 37 170 37 173 35 C179.67337705 34.23420263 179.67337705 34.23420263 182.8203125 36.05078125 C186.09434143 38.73168899 187.83359978 40.53567804 188.3125 44.75 C187.91753151 48.85767229 186.5942368 50.82926614 184 54 C181.34136255 56.10857453 180.01298793 56.00023614 176.5625 55.9375 C173 55 173 55 170.75 52.4375 C167.13967145 49.23743606 164.90976668 48.96433105 160.16113281 49.07055664 C152.56369833 51.30437137 147.26885147 59.57327875 142.36474609 65.46435547 C132.57272333 77.07610879 132.57272333 77.07610879 124.890625 77.84375 C120.201742 77.97828134 115.6477569 77.60202821 111 77 C111 80.63 111 84.26 111 88 C129.25523043 89.75613312 129.25523043 89.75613312 145.65234375 83.8515625 C147.44138924 81.98901115 149.02065274 80.05357532 150.60961914 78.01928711 C154.42614752 73.15806335 154.42614752 73.15806335 158.53125 72.02734375 C160.78706085 71.96995033 163.04591967 71.97546071 165.30078125 72.0625 C168.29708954 72.29226793 168.29708954 72.29226793 170.75 69.4375 C171.4925 68.633125 172.235 67.82875 173 67 C176.13736638 66.25051803 178.85746064 66.29976025 182 67 C185.67080764 69.52368025 186.75864984 71.17035883 188 75.4375 C188 79.55333147 187.29147823 81.60229091 185 85 C182.07167135 87.38604557 178.69193427 87.47100239 174.97265625 87.39453125 C171.59374037 86.71874807 170.0145392 84.64408271 168 82 C168 81.34 168 80.68 168 80 C164.37 80 160.74 80 157 80 C156.01 81.98 156.01 81.98 155 84 C151.95421355 88.46005373 148.47056533 93.0716082 143.02819824 94.52746582 C137.64934535 95.24092097 132.27505622 94.91409392 126.875 94.625 C125.23451166 94.57474789 123.59387426 94.52913656 121.953125 94.48828125 C117.9650177 94.37897928 113.98418141 94.20701182 110 94 C110 97.63 110 101.26 110 105 C129.14 105 148.28 105 168 105 C168.99 103.02 168.99 103.02 170 101 C171.88756034 98.81043001 173.19763432 98.06611253 176.0859375 97.828125 C180.1478294 98.0170502 183.1927383 98.55131107 186.125 101.5 C188.27398427 105.51143731 188.4477273 107.56351334 187.62890625 111.9453125 C186.67246262 115.07009106 185.8268603 116.30388382 183 118 C179.20754262 119.1608092 175.7176697 119.88857047 172.08203125 118.0078125 C170.4375 116.6875 170.4375 116.6875 168 114 C168 113.34 168 112.68 168 112 C148.86 112 129.72 112 110 112 C110 115.63 110 119.26 110 123 C110.98806641 122.96334229 111.97613281 122.92668457 112.99414062 122.88891602 C116.69127288 122.76136302 120.38821476 122.68155369 124.08691406 122.61547852 C125.68164872 122.58046664 127.27616177 122.53283828 128.87011719 122.47192383 C143.82215309 121.91519909 143.82215309 121.91519909 148.90625 126.3515625 C149.97076981 127.53869553 151.00590397 128.75330022 152 130 C152.99137243 130.94661869 153.99047442 131.88526521 155 132.8125 C157 135 157 135 157 137 C160.63 137 164.26 137 168 137 C168.66 135.35 169.32 133.7 170 132 C173.71042531 129.52638312 176.69862675 129.45392722 181 130 C183.84578139 131.23729626 185.42813811 132.2981695 187.375 134.6875 C188.34460222 138.2750282 188.04913119 141.49131622 187 145 C184.94124615 148.08813077 183.5283521 149.66221204 179.84375 150.4765625 C177.39607871 150.63158168 175.38743189 150.57033095 173 150 C172.2575 149.195625 171.515 148.39125 170.75 147.5625 C168.29708954 144.70773207 168.29708954 144.70773207 165.30078125 144.9375 C164.23214844 144.97875 163.16351563 145.02 162.0625 145.0625 C155.97390643 144.90759109 155.97390643 144.90759109 153.515625 142.61669922 C152.00601249 140.76338028 150.53389834 138.88377068 149.0625 137 C145.15268914 132.1950216 141.77042051 129.75060444 135.48161316 129.01202393 C127.33900096 128.37161086 119.14905687 128.58036679 111 129 C111 132.63 111 136.26 111 140 C112.20914063 139.844104 113.41828125 139.68820801 114.6640625 139.52758789 C128.38584301 138.29816913 128.38584301 138.29816913 133.921875 142.51513672 C137.60120914 145.86736087 140.81277034 149.62357857 144 153.4375 C146.1947023 155.989472 148.4197189 158.50882156 150.6875 160.99609375 C151.21609619 161.57749115 151.74469238 162.15888855 152.28930664 162.75790405 C155.73606846 166.31486038 158.20372813 167.88463297 163.3125 168.34765625 C165.92563572 168.30726902 165.92563572 168.30726902 168 168 C168.42732422 167.06607422 168.42732422 167.06607422 168.86328125 166.11328125 C170.44847354 163.16623991 171.92826452 162.29695498 175 161 C179.54986795 161 181.41583053 161.49202655 184.875 164.5 C185.57625 165.325 186.2775 166.15 187 167 C187.33 167.33 187.66 167.66 188 168 C188.23727988 172.99319394 187.68117981 176.18590706 184.4375 180.0625 C179.94362213 182.59541298 178.08826267 182.80766074 173 182 C170 179.625 170 179.625 168 177 C168 176.34 168 175.68 168 175 C167.1445459 175.155896 166.2890918 175.31179199 165.40771484 175.47241211 C156.25663819 176.41379081 156.25663819 176.41379081 152.24377441 173.89971924 C147.27817086 169.69901652 143.16280673 164.56141916 138.97363281 159.61108398 C131.31280806 150.39496423 131.31280806 150.39496423 120.34872437 146.71824646 C117.19752636 146.62386218 114.14206772 146.73160129 111 147 C111 150.63 111 154.26 111 158 C112.28696777 157.81574463 113.57393555 157.63148926 114.89990234 157.44165039 C119.40722415 157.45974038 121.40071505 158.70390745 124.67431641 161.74780273 C126.33931978 163.45465352 127.98057725 165.1848849 129.6015625 166.93359375 C130.4822641 167.84125992 131.3629657 168.74892609 132.27035522 169.68409729 C134.60213021 172.0905843 136.91408951 174.51289299 139.21600342 176.94775391 C142.45907525 180.37668599 145.71863379 183.78890299 149.00106812 187.18019104 C150.74528664 188.98362557 152.47452769 190.80169579 154.18667603 192.63560486 C158.83756727 197.72340392 158.83756727 197.72340392 165.08349609 200.06665039 C166.04594238 200.04465576 167.00838867 200.02266113 168 200 C168.2475 199.401875 168.495 198.80375 168.75 198.1875 C170.30248374 195.47065346 171.16075005 194.38322433 174 193 C177.88643505 192.6797694 181.38789009 192.97742013 184.73046875 195.09765625 C186.84344588 197.22247078 187.93126561 199.2776641 188.21484375 202.2578125 C187.98325009 205.85642175 187.36162767 208.39728722 185.5 211.5 C181.78582137 213.72850718 178.32068144 214.46266364 174 214 C171.34751292 212.62783764 170.05533333 211.26613675 168 209 C168 208.34 168 207.68 168 207 C167.39065109 207.10364365 166.78130219 207.20728729 166.15348816 207.31407166 C162.01447414 207.71099194 159.12024065 207.72834508 155.56265259 205.41531372 C153.01125962 203.06731402 150.65008022 200.61670462 148.30078125 198.06640625 C147.4214946 197.15874008 146.54220795 196.25107391 145.63627625 195.31590271 C143.31069872 192.91102667 141.00758929 190.48864529 138.71533203 188.05224609 C135.48391526 184.6206232 132.23081553 181.21061029 128.95658875 177.81980896 C127.21746636 176.01677756 125.49375722 174.1987203 123.78767395 172.36439514 C119.15390602 167.27444435 119.15390602 167.27444435 112.91870117 164.93334961 C111.95552979 164.95534424 110.9923584 164.97733887 110 165 C109.938125 165.9075 109.87625 166.815 109.8125 167.75 C109 171 109 171 106.9375 173.375 C103.14567214 175.4726069 100.24346109 175.85900022 96 175 C92.12396205 172.64067255 91.06504406 171.13008812 89 167 C89 164.03 89 161.06 89 158 C83.06 158 77.12 158 71 158 C70.67 159.65 70.34 161.3 70 163 C67.11870714 167.32193929 64.00835316 169.89693717 59.125 171.6875 C53.01277041 172.58635729 49.43957573 171.7802276 44 169 C40.6528373 169.3993894 38.65478631 170.80251995 36.05859375 172.87890625 C35.31464355 173.46720215 34.57069336 174.05549805 33.80419922 174.66162109 C33.02318848 175.28891113 32.24217773 175.91620117 31.4375 176.5625 C29.82526775 177.83856606 28.21198805 179.11330984 26.59765625 180.38671875 C25.81406738 181.00595215 25.03047852 181.62518555 24.22314453 182.26318359 C19.90716378 185.63501393 15.4670902 188.83171135 11 192 C11.33 192.99 11.66 193.98 12 195 C12.7767527 201.24731099 12.34906141 206.12447805 8.60546875 211.3046875 C4.49754022 215.64250011 -0.10865658 217.20956238 -6 217.5625 C-11.32711677 217.30024194 -15.18250088 215.7560681 -19 212 C-22.73550523 206.7723508 -23.64556345 201.66196769 -22.67578125 195.36328125 C-21.285735 190.50213684 -18.7539388 187.27885146 -14.70703125 184.328125 C-11.55059192 182.77951119 -9.4361974 182.62999928 -5.9375 182.6875 C-4.40416016 182.69330078 -4.40416016 182.69330078 -2.83984375 182.69921875 C-0 183 -0 183 2.05859375 184.08203125 C3.9799212 185.15911787 3.9799212 185.15911787 6.2421875 185.00390625 C10.47227386 183.46405895 13.63322521 180.73091983 17.125 177.9375 C18.63689045 176.74726066 20.14991291 175.55845783 21.6640625 174.37109375 C22.40043945 173.79214355 23.13681641 173.21319336 23.89550781 172.61669922 C27.51291574 169.83775777 31.29174369 167.30065177 35.09375 164.78125 C37.53566258 162.84616004 37.53566258 162.84616004 38 158 C29.09 158 20.18 158 11 158 C10.67 159.65 10.34 161.3 10 163 C6.63745584 167.94491789 3.85642404 170.18248909 -2 172 C-7.93879358 172.75584646 -12.12558414 171.26023022 -17 168 C-20.9121896 164.0878104 -22.80456472 160.23011088 -23.140625 154.67578125 C-22.94978771 148.44494363 -21.13138109 145.08701513 -16.88671875 140.59375 C-12.54393264 136.92530956 -9.00629725 136.64942118 -3.46484375 136.72265625 C-0.23836829 137.08569865 2.13447012 138.53391495 5 140 C9.82621366 139.13375652 13.59049786 135.37284082 17 132 C17.33 131.34 17.66 130.68 18 130 C17.2265625 129.6596875 17.2265625 129.6596875 16.4375 129.3125 C14 128 14 128 12.38671875 126.68359375 C10.6310049 125.25488647 9.02223117 124.02203476 7 123 C3.69324988 123.46238809 3.69324988 123.46238809 1 125 C-2.48257722 126.74128861 -6.19226753 126.44943728 -10 126 C-15.61177961 123.99111392 -19.17182684 120.20592685 -22.078125 115.109375 C-23.68874447 111.42405926 -23.63326264 107.93527495 -23 104 C-20.82627795 98.88905848 -17.65603715 95.06318233 -13 92 C-7.299456 90.09981867 -2.89774406 90.49879825 2.4375 92.9375 C4.6490522 93.8997981 4.6490522 93.8997981 7 94 C9.75962424 92.49945432 11.85065758 90.76790965 14.15234375 88.63671875 C16 87 16 87 18 87 C14.50640535 83.40365256 10.88901869 80.16548033 7 77 C6.236875 77.309375 5.47375 77.61875 4.6875 77.9375 C-0.6964728 80.06604739 -5.23756566 80.65625227 -11 80 C-15.71726695 77.55400973 -19.69825826 74.40822222 -22.25 69.6875 C-24.0021793 63.40885752 -23.05354911 58.68591904 -20 53 C-15.94472228 48.17750758 -11.93633286 45.38063574 -5.625 44.5625 C0.34353844 45.28284085 4.97389421 47.48207948 8.9375 52.0625 C11 55 11 55 12 58 C20.25 58 28.5 58 37 58 C37.44698802 54.18080037 37.44698802 54.18080037 35.73754883 52.60302734 C35.14997803 52.1848877 34.56240723 51.76674805 33.95703125 51.3359375 C33.30130127 50.85793701 32.64557129 50.37993652 31.9699707 49.88745117 C31.25800537 49.38834229 30.54604004 48.8892334 29.8125 48.375 C28.34276137 47.31777928 26.87402599 46.25916258 25.40625 45.19921875 C24.29636719 44.40330322 24.29636719 44.40330322 23.1640625 43.59130859 C21.13336685 42.09806917 19.16988946 40.55223367 17.21875 38.95703125 C16.35286255 38.25537842 16.35286255 38.25537842 15.46948242 37.53955078 C13.89684641 36.25632428 12.33292731 34.96243661 10.76953125 33.66796875 C8.15482466 31.73410221 8.15482466 31.73410221 5.32421875 32.17578125 C4.55722656 32.44777344 3.79023437 32.71976563 3 33 C-2.36531796 34.78843932 -8.94159279 35.28634579 -14.23828125 33.05859375 C-18.4092039 30.20950526 -20.94033326 26.89000021 -22.6875 22.125 C-23.55258997 16.24238822 -23.31762397 12.02994602 -20 7 C-13.6322431 0.69120381 -9.05291736 -1.06289313 0 0 Z " fill="#171626" transform="translate(30,4)"/>
<path d="M0 0 C6.27 0 12.54 0 19 0 C19 12.87 19 25.74 19 39 C12.73 39 6.46 39 0 39 C-1.32 36.36 -2.64 33.72 -4 31 C-7.48830193 27.48238461 -11.06303022 26.11898029 -15.9375 25.5 C-19.17129634 25.65099438 -21.40591668 26.6346299 -24.3125 28 C-26.546875 28.86328125 -26.546875 28.86328125 -29 29 C-33.11621446 26.84058697 -36.53286476 24.07829765 -40 21 C-38.53376717 17.47163224 -36.64314877 15.51932388 -33.6875 13.125 C-32.92824219 12.48820312 -32.16898437 11.85140625 -31.38671875 11.1953125 C-29 10 -29 10 -26.33203125 10.7421875 C-25.56246094 11.15726563 -24.79289062 11.57234375 -24 12 C-20.30769694 13.84615153 -16.03842104 13.34792551 -12 13 C-7.79136692 11.44124701 -4.80924819 9.51156023 -2 6 C-1.34 4.02 -0.68 2.04 0 0 Z " fill="#F6F6F7" transform="translate(101,70)"/>
<path d="M0 0 C6.27 0 12.54 0 19 0 C19 12.87 19 25.74 19 39 C12.73 39 6.46 39 0 39 C-0.99 36.69 -1.98 34.38 -3 32 C-6.05237084 28.45479845 -9.57419182 26.21380004 -14.3046875 25.796875 C-19.62848748 25.69978442 -22.45361386 26.05822073 -27 29 C-30.41618061 27.69859786 -33.28550517 25.48135159 -36.25 23.375 C-37.14203125 22.74335938 -38.0340625 22.11171875 -38.953125 21.4609375 C-39.62859375 20.97882813 -40.3040625 20.49671875 -41 20 C-33.65535651 12.2102266 -33.65535651 12.2102266 -29 10 C-26.25 10.625 -26.25 10.625 -24 12 C-19.21792826 13.59402391 -14.56440638 13.96277713 -9.7734375 12.1640625 C-3.83923993 8.8524691 -3.48765404 6.97530809 0 0 Z " fill="#F7F6F7" transform="translate(101,116)"/>
<path d="M0 0 C2.4375 0.375 2.4375 0.375 5 1 C6.2164273 3.43285459 6.12844868 4.98739189 6.13371277 7.70678711 C6.13797775 8.6995163 6.14224274 9.69224548 6.14663696 10.71505737 C6.14618378 11.80811188 6.14573059 12.90116638 6.14526367 14.02734375 C6.14862228 15.17534454 6.1519809 16.32334534 6.15544128 17.50613403 C6.16497261 21.31660023 6.16689539 25.12702261 6.16796875 28.9375 C6.17117944 31.57543964 6.17454336 34.2133791 6.17805481 36.85131836 C6.18445374 42.38623339 6.18593684 47.92113646 6.18530273 53.45605469 C6.1847015 59.86014351 6.19526181 66.26414822 6.2110464 72.66821575 C6.22567636 78.82236709 6.22929142 84.97647792 6.22869301 91.13064575 C6.22987717 93.75261784 6.23432313 96.37459047 6.24202538 98.99655151 C6.25176796 102.65532518 6.24897011 106.31387943 6.24291992 109.97265625 C6.24853943 111.06571075 6.25415894 112.15876526 6.25994873 113.28494263 C6.253657 114.77403641 6.253657 114.77403641 6.24723816 116.29321289 C6.24778293 117.15894424 6.24832769 118.0246756 6.24888897 118.91664124 C6 121 6 121 4 123 C-0.55555556 122.44444444 -0.55555556 122.44444444 -2 121 C-2.10014438 119.47603518 -2.1307551 117.94744534 -2.13371277 116.42019653 C-2.13797775 115.43028717 -2.14224274 114.44037781 -2.14663696 113.42047119 C-2.14618378 112.32539246 -2.14573059 111.23031372 -2.14526367 110.10205078 C-2.14862228 108.95580231 -2.1519809 107.80955383 -2.15544128 106.62857056 C-2.16498525 102.81747369 -2.16689616 99.00642059 -2.16796875 95.1953125 C-2.17117908 92.55833925 -2.17454298 89.92136618 -2.17805481 87.28439331 C-2.1844579 81.74769809 -2.1859365 76.21101483 -2.18530273 70.67431641 C-2.18470207 64.27083632 -2.19524972 57.86744051 -2.2110464 51.46398175 C-2.22568717 45.31036984 -2.22929108 39.15679844 -2.22869301 33.00317001 C-2.22987649 30.38202444 -2.23431874 27.76087831 -2.24202538 25.1397438 C-2.25178082 21.47867011 -2.24896469 17.81781521 -2.24291992 14.15673828 C-2.24853943 13.06570801 -2.25415894 11.97467773 -2.25994873 10.85058594 C-2.25575424 9.85503693 -2.25155975 8.85948792 -2.24723816 7.83377075 C-2.24778293 6.96766237 -2.24832769 6.10155399 -2.24888897 5.20919991 C-2 3 -2 3 0 0 Z " fill="#E42C41" transform="translate(128,49)"/>
<path d="M0 0 C2.75569447 2.18159145 4.43588747 3.87177494 6 7 C6.50533836 11.37959914 6.27875307 13.51443013 4.0625 17.375 C1.19368203 20.39866894 -1.68625301 21.09394423 -5.77734375 21.3125 C-9.67346466 20.76471499 -11.35907923 18.83898983 -14 16 C-15.60086627 12.79826746 -15.49917089 9.47422941 -15 6 C-11.10085179 -0.10866553 -6.96919421 -1.10736765 0 0 Z " fill="#F69E2D" transform="translate(89,148)"/>
<path d="M0 0 C3.37495058 0.02428022 5.14420406 0.59958588 7.75 2.75 C10.70340674 5.77544105 11.20868218 6.47524558 11.6875 10.625 C11.19322704 15.56772958 9.77421699 16.91328301 6.3125 20.375 C3.09790014 21.98229993 -0.21138103 21.99430855 -3.6875 21.375 C-6.625 18.9375 -6.625 18.9375 -8.6875 16.375 C-9.0175 16.045 -9.3475 15.715 -9.6875 15.375 C-10.12916754 12.32118444 -10.16973087 9.42394358 -9.6875 6.375 C-7.25 3.375 -7.25 3.375 -4.6875 1.375 C-3.6875 0.375 -3.6875 0.375 0 0 Z " fill="#F79E2D" transform="translate(83.6875,101.625)"/>
<path d="M0 0 C2.87029869 1.79393668 4.49131638 2.98263276 6 6 C6.49337839 10.93378393 6.52463704 13.06919235 4.0625 17.4375 C0.62695683 20.31213816 -1.37478514 21.10141006 -5.77734375 21.28515625 C-8.71269321 20.90856484 -10.80222984 19.82082651 -12.90234375 17.7265625 C-15.03257531 14.37580681 -15.31828671 10.89724393 -15 7 C-12.00596854 -0.03597393 -7.03148716 -1.03621916 0 0 Z " fill="#49BAE0" transform="translate(29,148)"/>
<path d="M0 0 C3.6578218 2.03993908 5.66946174 3.50419262 8 7 C8.46229036 11.99273591 8.08578614 14.99990685 5 19 C0.98141405 21.6790573 -2.27641721 21.69610694 -7 21 C-9.87029869 19.20606332 -11.49131638 18.01736724 -13 15 C-13.68128376 8.18716238 -13.68128376 8.18716238 -11.953125 5.17578125 C-8.19987673 0.6166885 -5.84670346 -0.56218302 0 0 Z " fill="#F79E2D" transform="translate(87,56)"/>
<path d="M0 0 C3.89622572 1.15317364 5.28492344 3.20838231 7.23046875 6.66015625 C8.15470801 10.88525001 7.71920235 13.89447361 5.35546875 17.59765625 C1.86888672 20.98169175 -0.80545839 21.04982017 -5.5078125 21.01953125 C-9.09474054 20.44958759 -10.63792019 18.45789576 -12.76953125 15.66015625 C-14.31977589 12.55966697 -14.0594514 10.08121407 -13.76953125 6.66015625 C-9.98231634 0.78344345 -6.75611154 -0.95886085 0 0 Z " fill="#49BAE0" transform="translate(27.76953125,56.33984375)"/>
<path d="M0 0 C3.5386994 1.65139305 4.81070153 2.71605229 7 6 C7.42733494 11.29895331 7.51322472 14.73394141 4 19 C0.57080428 21.57189679 -2.83939486 21.502142 -7 21 C-9.97239241 19.21523759 -12.42604027 17.14791945 -14 14 C-14.67660495 8.13609041 -14.67660495 8.13609041 -12.953125 5.2421875 C-8.83153147 0.22354126 -6.40501405 -0.43423824 0 0 Z " fill="#49BAE1" transform="translate(28,102)"/>
<path d="M0 0 C2.87029869 1.79393668 4.49131638 2.98263276 6 6 C6.4973766 10.973766 6.54511419 13.06308498 4 17.4375 C0.79314279 20.17669053 -0.88823275 21.01265832 -5.00390625 21.23828125 C-8.44405138 20.82761813 -10.45378542 19.2430938 -13 17 C-15.35242347 13.79214982 -15.4684209 10.90350748 -15 7 C-11.06142639 0.04185329 -7.71503326 -0.99935664 0 0 Z " fill="#49BAE1" transform="translate(29,11)"/>
<path d="M0 0 C2.70567626 1.82339052 4.53728718 3.07457436 6 6 C6.37712577 10.99691647 6.09290612 13.99067725 3 18 C-1.00254616 20.66836411 -4.29313299 20.8340238 -9 20 C-11.75569447 17.81840855 -13.43588747 16.12822506 -15 13 C-15.38482057 8.92090194 -15.44121857 6.70910127 -13.25 3.1875 C-8.78673078 -1.15178952 -6.15511289 -1.51178211 0 0 Z " fill="#4ABBE2" transform="translate(29,194)"/>
<path d="M0 0 C8.25 0 16.5 0 25 0 C25.33 1.65 25.66 3.3 26 5 C24.09576486 6.70363175 22.17882253 8.38711578 20.25 10.0625 C19.71117188 10.54783203 19.17234375 11.03316406 18.6171875 11.53320312 C14.61806396 14.97147397 14.61806396 14.97147397 11.96875 15.09375 C9.1133669 13.50742605 6.74310015 11.54476322 4.25 9.4375 C3.26515625 8.61121094 2.2803125 7.78492187 1.265625 6.93359375 C0.51796875 6.29550781 -0.2296875 5.65742187 -1 5 C-0.67 3.35 -0.34 1.7 0 0 Z " fill="#F6F6F6" transform="translate(42,70)"/>
<path d="M0 0 C2.8553831 1.58632395 5.22564985 3.54898678 7.71875 5.65625 C9.19601563 6.89568359 9.19601563 6.89568359 10.703125 8.16015625 C11.45078125 8.79824219 12.1984375 9.43632812 12.96875 10.09375 C12.63875 11.74375 12.30875 13.39375 11.96875 15.09375 C3.71875 15.09375 -4.53125 15.09375 -13.03125 15.09375 C-13.36125 13.44375 -13.69125 11.79375 -14.03125 10.09375 C-12.12701486 8.39011825 -10.21007253 6.70663422 -8.28125 5.03125 C-7.74242187 4.54591797 -7.20359375 4.06058594 -6.6484375 3.56054688 C-2.64931396 0.12227603 -2.64931396 0.12227603 0 0 Z " fill="#F7F7F7" transform="translate(55.03125,139.90625)"/>
<path d="M0 0 C8.91 0 17.82 0 27 0 C27 1.65 27 3.3 27 5 C24.85346145 7.01975125 22.88704577 8.63759782 20.5 10.3125 C19.87996094 10.76689453 19.25992188 11.22128906 18.62109375 11.68945312 C17.09120586 12.80744812 15.54691473 13.90568532 14 15 C10.98129642 13.02699112 7.98592344 11.02223912 5 9 C3.989375 8.319375 2.97875 7.63875 1.9375 6.9375 C1.298125 6.298125 0.65875 5.65875 0 5 C0 3.35 0 1.7 0 0 Z " fill="#F9F9F9" transform="translate(41,116)"/>
<path d="M0 0 C3.01530982 1.98020346 6.01346554 3.97734706 9 6 C10.010625 6.680625 11.02125 7.36125 12.0625 8.0625 C12.701875 8.701875 13.34125 9.34125 14 10 C14 11.65 14 13.3 14 15 C5.42 15 -3.16 15 -12 15 C-12.33 13.35 -12.66 11.7 -13 10 C-8.71 6.7 -4.42 3.4 0 0 Z " fill="#FAFAFA" transform="translate(54,94)"/>
<path d="M0 0 C1.98 0 3.96 0 6 0 C6 2.31 6 4.62 6 7 C4.02 7 2.04 7 0 7 C0 4.69 0 2.38 0 0 Z " fill="#100F1D" transform="translate(106,137)"/>
<path d="M0 0 C1.98 0 3.96 0 6 0 C6 2.31 6 4.62 6 7 C4.02 7 2.04 7 0 7 C0 4.69 0 2.38 0 0 Z " fill="#00000C" transform="translate(106,123)"/>
<path d="M0 0 C1.98 0 3.96 0 6 0 C6 2.31 6 4.62 6 7 C4.02 7 2.04 7 0 7 C0 4.69 0 2.38 0 0 Z " fill="#00000C" transform="translate(106,95)"/>
<path d="M0 0 C1.98 0 3.96 0 6 0 C6 2.31 6 4.62 6 7 C4.02 7 2.04 7 0 7 C0 4.69 0 2.38 0 0 Z " fill="#100F1D" transform="translate(106,81)"/>
<path d="M0 0 C2.125 0.375 2.125 0.375 4 1 C4.38218767 2.65614657 4.71395102 4.32457024 5 6 C4 7 4 7 1.4375 7.0625 C0.2309375 7.0315625 0.2309375 7.0315625 -1 7 C-1.625 4.625 -1.625 4.625 -2 2 C-1.34 1.34 -0.68 0.68 0 0 Z " fill="#ED992D" transform="translate(206,172)"/>
<path d="M0 0 C1.2065625 0.0309375 1.2065625 0.0309375 2.4375 0.0625 C3.0625 2.4375 3.0625 2.4375 3.4375 5.0625 C2.7775 5.7225 2.1175 6.3825 1.4375 7.0625 C-0.6875 6.6875 -0.6875 6.6875 -2.5625 6.0625 C-2.94468767 4.40635343 -3.27645102 2.73792976 -3.5625 1.0625 C-2.5625 0.0625 -2.5625 0.0625 0 0 Z " fill="#ED982D" transform="translate(207.5625,140.9375)"/>
<path d="M0 0 C2.125 0.375 2.125 0.375 4 1 C4.38218767 2.65614657 4.71395102 4.32457024 5 6 C4 7 4 7 1.4375 7.0625 C0.2309375 7.0315625 0.2309375 7.0315625 -1 7 C-1.625 4.625 -1.625 4.625 -2 2 C-1.34 1.34 -0.68 0.68 0 0 Z " fill="#ED982D" transform="translate(206,77)"/>
<path d="M0 0 C1.2065625 0.0309375 1.2065625 0.0309375 2.4375 0.0625 C3.0625 2.4375 3.0625 2.4375 3.4375 5.0625 C2.7775 5.7225 2.1175 6.3825 1.4375 7.0625 C-0.6875 6.6875 -0.6875 6.6875 -2.5625 6.0625 C-2.94468767 4.40635343 -3.27645102 2.73792976 -3.5625 1.0625 C-2.5625 0.0625 -2.5625 0.0625 0 0 Z " fill="#ED982D" transform="translate(207.5625,45.9375)"/>
<path d="M0 0 C2.125 0.375 2.125 0.375 4 1 C5.125 4.75 5.125 4.75 4 7 C2.35 7 0.7 7 -1 7 C-1.625 4.625 -1.625 4.625 -2 2 C-1.34 1.34 -0.68 0.68 0 0 Z " fill="#F09A2D" transform="translate(206,14)"/>
<path d="M0 0 C1.67542976 0.28604898 3.34385343 0.61781233 5 1 C5.625 2.875 5.625 2.875 6 5 C5.34 5.66 4.68 6.32 4 7 C1.875 6.625 1.875 6.625 0 6 C-0.38218767 4.34385343 -0.71395102 2.67542976 -1 1 C-0.67 0.67 -0.34 0.34 0 0 Z " fill="#F39C2D" transform="translate(205,204)"/>
<path d="M0 0 C0.625 1.875 0.625 1.875 1 4 C0.34 4.66 -0.32 5.32 -1 6 C-3.625 5.625 -3.625 5.625 -6 5 C-6 3.35 -6 1.7 -6 0 C-3.50907189 -1.24546405 -2.58919267 -0.7767578 0 0 Z " fill="#F39C2D" transform="translate(210,110)"/>
<path d="M0 0 C0.33 0.66 0.66 1.32 1 2 C-0.60875 2.12375 -0.60875 2.12375 -2.25 2.25 C-6.2738451 3.05476902 -7.48169253 3.87729874 -10 7 C-10.66 6.67 -11.32 6.34 -12 6 C-6 -0.15789474 -6 -0.15789474 0 0 Z " fill="#46AED3" transform="translate(27,193)"/>
<path d="M0 0 C0.66 0.33 1.32 0.66 2 1 C-0.64 3.64 -3.28 6.28 -6 9 C-6.33 8.34 -6.66 7.68 -7 7 C-2.25 1.125 -2.25 1.125 0 0 Z " fill="#110F21" transform="translate(16,97)"/>
<path d="M0 0 C1.32 0 2.64 0 4 0 C4 1.65 4 3.3 4 5 C2.68 5 1.36 5 0 5 C0 3.35 0 1.7 0 0 Z " fill="#161425" transform="translate(107,124)"/>
<path d="M0 0 C1.32 0 2.64 0 4 0 C4 1.65 4 3.3 4 5 C2.68 5 1.36 5 0 5 C0 3.35 0 1.7 0 0 Z " fill="#161425" transform="translate(107,96)"/>
<path d="M0 0 C0 4.38968456 -2.12805101 5.76905739 -5 9 C-5.66 8.67 -6.32 8.34 -7 8 C-6.21366078 6.85050412 -5.42073742 5.70551011 -4.625 4.5625 C-4.18414062 3.92441406 -3.74328125 3.28632813 -3.2890625 2.62890625 C-2 1 -2 1 0 0 Z " fill="#1F1E2A" transform="translate(15,189)"/>
</svg>
