<?xml version="1.0" encoding="UTF-8"?>
<svg version="1.1" xmlns="http://www.w3.org/2000/svg" width="225" height="225">
<path d="M0 0 C74.25 0 148.5 0 225 0 C225 74.25 225 148.5 225 225 C150.75 225 76.5 225 0 225 C0 150.75 0 76.5 0 0 Z " fill="#FDFDFD" transform="translate(0,0)"/>
<path d="M0 0 C52.47 0 104.94 0 159 0 C156.70050256 35.64221028 156.70050256 35.64221028 155.6328125 47.20703125 C155.51169565 48.5508696 155.39090903 49.89473775 155.27041626 51.2386322 C154.95731593 54.71946176 154.63937593 58.19983036 154.32011414 61.68009949 C154.05347991 64.59414233 153.78998278 67.50846588 153.52642822 70.42278862 C151.82729022 89.20711802 150.07790202 107.98658884 148.26708984 126.76049805 C147.10286254 138.83407168 146.00951423 150.91239543 145 163 C143.7625 163.35191406 142.525 163.70382813 141.25 164.06640625 C139.49997583 164.56501936 137.74997809 165.06372522 136 165.5625 C135.06027344 165.8298999 134.12054688 166.0972998 133.15234375 166.37280273 C127.09148556 168.10212369 121.044679 169.87315737 115.00488281 171.67456055 C110.98597376 172.8621436 106.95555451 174.00768092 102.92382812 175.15087891 C100.10640317 175.96909901 97.3128503 176.84609654 94.515625 177.73046875 C82.25424378 181.39849977 73.59501367 180.85889435 61.51367188 176.82470703 C58.19843026 175.73701412 54.84634092 174.81339802 51.48327637 173.88645935 C48.93154241 173.17557563 46.3867569 172.44528266 43.84375 171.70385742 C42.44053497 171.29500053 42.44053497 171.29500053 41.00897217 170.87788391 C40.01601135 170.58818222 39.02305054 170.29848053 38 170 C36.97142883 169.70018723 35.94285767 169.40037445 34.88311768 169.09147644 C31.69800643 168.1629361 28.51304433 167.23388589 25.328125 166.3046875 C24.23193848 165.98491943 23.13575195 165.66515137 22.00634766 165.33569336 C19.33755212 164.5571734 16.66876978 163.77860823 14 163 C11.80609094 139.28945513 9.62126336 115.57808433 7.44641113 91.86578369 C7.16212717 88.76643126 6.87756713 85.66710447 6.59265137 82.56781006 C5.88897547 74.91220247 5.18932234 67.2562464 4.49691772 59.59960938 C4.29554256 57.37894125 4.09283342 55.15839355 3.88858032 52.93798828 C2.26798983 35.30115637 1.1410643 17.68649666 0 0 Z " fill="#E44E26" transform="translate(33,44)"/>
<path d="M0 0 C33 0 66 0 100 0 C100 11 100 11 99 20 C73.59 20 48.18 20 22 20 C22.66 23.96 23.32 27.92 24 32 C24 34.97 24 37.94 24 41 C48.09 41 72.18 41 97 41 C96.01 52.88 95.02 64.76 94 77 C92.99331953 89.49947613 92.99331953 89.49947613 92 102 C83.04287613 105.20806657 73.96587436 107.64207556 64.74780273 109.98095703 C63.77657471 110.2282959 62.80534668 110.47563477 61.8046875 110.73046875 C60.48960205 111.06147583 60.48960205 111.06147583 59.14794922 111.39916992 C56.97358702 111.93414866 56.97358702 111.93414866 55 113 C47.45829047 113.52299292 41.34849951 111.94719318 34.1875 109.6875 C32.16088674 109.06402681 30.13354072 108.44293049 28.10546875 107.82421875 C27.1107959 107.51919434 26.11612305 107.21416992 25.09130859 106.89990234 C20.85820224 105.66761439 16.58506593 104.63435697 12.29418945 103.62426758 C10 103 10 103 9 102 C8.77203182 100.39036105 8.60505094 98.77198846 8.46484375 97.15234375 C8.37783203 96.15396484 8.29082031 95.15558594 8.20117188 94.12695312 C8.11416016 93.07443359 8.02714844 92.02191406 7.9375 90.9375 C7.84662109 89.91205078 7.75574219 88.88660156 7.66210938 87.83007812 C7.17949099 82.15840492 7 76.72550285 7 71 C13.6 71 20.2 71 27 71 C27.78299608 74.9149804 28.10965159 77.89891782 28.0625 81.8125 C28.05347656 82.78832031 28.04445313 83.76414062 28.03515625 84.76953125 C28.02355469 85.50558594 28.01195313 86.24164063 28 87 C28.94359375 87.18175781 28.94359375 87.18175781 29.90625 87.3671875 C34.01990832 88.17257241 38.08627756 88.99866306 42.125 90.125 C50.05104764 91.91475269 56.05962065 90.66489236 63.72094727 88.42333984 C67.01162323 87.46783135 69.52908156 87 73 87 C72.97679687 86.29617187 72.95359375 85.59234375 72.9296875 84.8671875 C72.77640608 76.48050383 73.77904794 69.54666442 75 61 C52.23 61 29.46 61 6 61 C3.74911839 46.36926952 3.74911839 46.36926952 3.18359375 39.78515625 C3.12220718 39.08208847 3.06082062 38.37902069 2.99757385 37.65464783 C2.80685862 35.45758944 2.62215581 33.26007489 2.4375 31.0625 C2.31091846 29.60218128 2.18396656 28.14189462 2.05664062 26.68164062 C1.2893745 17.79172188 0.63585754 8.90200555 0 0 Z " fill="#FEFCFC" transform="translate(62,77)"/>
<path d="M0 0 C21.12 0 42.24 0 64 0 C64 11.25021981 64 11.25021981 63.58912659 15.83172607 C63.49801605 16.87174271 63.40690552 17.91175934 63.31303406 18.98329163 C63.21174698 20.08805344 63.1104599 21.19281525 63.00610352 22.33105469 C62.90042053 23.52256638 62.79473755 24.71407806 62.68585205 25.94169617 C62.39774107 29.17931185 62.10570719 32.41654266 61.81171155 35.65362835 C61.50361535 39.05513876 61.20024215 42.4570708 60.89622498 45.85894775 C60.3855905 51.56493241 59.87152733 57.27059981 59.35522461 62.97607422 C58.75930827 69.5616286 58.16811706 76.14759358 57.57959992 82.73381305 C57.01159044 89.08998817 56.44095261 95.44592433 55.86887932 101.80173492 C55.62615402 104.49848319 55.38421242 107.19530004 55.14288521 109.89217377 C54.80532655 113.65716941 54.46474719 117.42187953 54.12329102 121.18652344 C54.02402817 122.29938217 53.92476532 123.41224091 53.82249451 124.55882263 C53.3794365 129.41125074 52.91073784 134.20752788 52 139 C50.64189209 139.36967896 50.64189209 139.36967896 49.25634766 139.74682617 C45.81103227 140.68488542 42.3658186 141.62331635 38.92068481 142.56204224 C37.39489729 142.97774201 35.86907959 143.39333107 34.3432312 143.80880737 C24.8522852 146.39343449 15.3623557 148.98048147 5.90283203 151.6784668 C1.21550969 153 1.21550969 153 -1 153 C-1.33 146.07 -1.66 139.14 -2 132 C0.660625 131.4121875 0.660625 131.4121875 3.375 130.8125 C9.76429326 129.34233547 16.06474553 127.62737689 22.37402344 125.84814453 C28.55381001 124.10916901 34.76179622 122.51636758 41 121 C40.97752197 120.40058594 40.95504395 119.80117187 40.93188477 119.18359375 C40.73729668 109.09729514 41.73143826 99.1225127 42.65405273 89.08837891 C42.93933138 85.98004568 43.21536965 82.87098847 43.49023438 79.76171875 C43.66873171 77.77859723 43.8477493 75.79552246 44.02734375 73.8125 C44.1508445 72.42345459 44.1508445 72.42345459 44.27684021 71.00634766 C44.39685143 69.71349854 44.39685143 69.71349854 44.51928711 68.39453125 C44.58812607 67.64018799 44.65696503 66.88584473 44.72789001 66.10864258 C45 64 45 64 46 60 C21.91 60 -2.18 60 -27 60 C-29 45 -29 45 -29 39 C-3.59 39 21.82 39 48 39 C48.33 32.07 48.66 25.14 49 18 C32.83 18 16.66 18 0 18 C0 12.06 0 6.12 0 0 Z " fill="#F0662B" transform="translate(113,58)"/>
<path d="M0 0 C33 0 66 0 100 0 C100 11 100 11 99 20 C73.59 20 48.18 20 22 20 C22.66 23.96 23.32 27.92 24 32 C24 34.97 24 37.94 24 41 C32.58 41 41.16 41 50 41 C50 47.6 50 54.2 50 61 C35.48 61 20.96 61 6 61 C3.74911839 46.36926952 3.74911839 46.36926952 3.18359375 39.78515625 C3.12220718 39.08208847 3.06082062 38.37902069 2.99757385 37.65464783 C2.80685862 35.45758944 2.62215581 33.26007489 2.4375 31.0625 C2.31091846 29.60218128 2.18396656 28.14189462 2.05664062 26.68164062 C1.2893745 17.79172188 0.63585754 8.90200555 0 0 Z " fill="#EBE7E6" transform="translate(62,77)"/>
<path d="M0 0 C6.6 0 13.2 0 20 0 C20.78299608 3.9149804 21.10965159 6.89891782 21.0625 10.8125 C21.05347656 11.78832031 21.04445313 12.76414063 21.03515625 13.76953125 C21.02355469 14.50558594 21.01195313 15.24164063 21 16 C21.83917969 16.16435547 21.83917969 16.16435547 22.6953125 16.33203125 C30.14804345 17.8058028 37.57453495 19.3950724 45 21 C44.01 21.495 44.01 21.495 43 22 C43 28.6 43 35.2 43 42 C37.64805953 41.33100744 33.32379915 40.68096719 28.26953125 39.22265625 C27.05458984 38.87396484 25.83964844 38.52527344 24.58789062 38.16601562 C23.34201172 37.80185547 22.09613281 37.43769531 20.8125 37.0625 C19.55501953 36.70220703 18.29753906 36.34191406 17.00195312 35.97070312 C11.90533082 34.49786336 6.89877943 33.05010992 2 31 C1.66080904 27.33385091 1.32971919 23.6670121 1 20 C0.90460938 18.97003906 0.80921875 17.94007813 0.7109375 16.87890625 C0.62070313 15.86699219 0.53046875 14.85507813 0.4375 13.8125 C0.35371094 12.89082031 0.26992187 11.96914062 0.18359375 11.01953125 C-0.03936227 7.35261624 0 3.67368685 0 0 Z " fill="#EAE8E8" transform="translate(69,148)"/>
<path d="M0 0 C16.5 0 33 0 50 0 C50 10 50 10 49 19 C32.83 19 16.66 19 0 19 C0 12.73 0 6.46 0 0 Z " fill="#FEFEFE" transform="translate(112,78)"/>
<path d="M0 0 C11.22 0 22.44 0 34 0 C34 9.9 34 19.8 34 30 C30.7 30 27.4 30 24 30 C23.67 26.04 23.34 22.08 23 18 C21.35 20.31 19.7 22.62 18 25 C13.60841671 23.5361389 13.12052567 21.02168662 11 17 C10.67 21.29 10.34 25.58 10 30 C6.7 30 3.4 30 0 30 C0 20.1 0 10.2 0 0 Z " fill="#030303" transform="translate(114,0)"/>
<path d="M0 0 C9.57 0 19.14 0 29 0 C29 9.9 29 19.8 29 30 C25.7 30 22.4 30 19 30 C19 26.7 19 23.4 19 20 C16.03 20 13.06 20 10 20 C10 23.3 10 26.6 10 30 C6.7 30 3.4 30 0 30 C0 20.1 0 10.2 0 0 Z " fill="#010101" transform="translate(48,0)"/>
<path d="M0 0 C7.92 0 15.84 0 24 0 C23.34 8.58 22.68 17.16 22 26 C17.111875 27.2684375 17.111875 27.2684375 12.125 28.5625 C11.09906738 28.83263916 10.07313477 29.10277832 9.01611328 29.38110352 C8.20899902 29.58662842 7.40188477 29.79215332 6.5703125 30.00390625 C5.32918701 30.32597046 5.32918701 30.32597046 4.06298828 30.65454102 C2 31 2 31 0 30 C0 20.1 0 10.2 0 0 Z " fill="#F06428" transform="translate(113,138)"/>
<path d="M0 0 C9.24 0 18.48 0 28 0 C27.67 6.27 27.34 12.54 27 19 C18.42 19 9.84 19 1 19 C0 11 0 11 0 0 Z " fill="#E44C24" transform="translate(85,98)"/>
<path d="M0 0 C9.24 0 18.48 0 28 0 C28 3.3 28 6.6 28 10 C24.7 10 21.4 10 18 10 C18 16.6 18 23.2 18 30 C15.03 30 12.06 30 9 30 C9 23.4 9 16.8 9 10 C6.03 10 3.06 10 0 10 C0 6.7 0 3.4 0 0 Z " fill="#020202" transform="translate(82,0)"/>
<path d="M0 0 C3.3 0 6.6 0 10 0 C10 6.93 10 13.86 10 21 C14.62 21 19.24 21 24 21 C24 23.97 24 26.94 24 30 C16.08 30 8.16 30 0 30 C0 20.1 0 10.2 0 0 Z " fill="#040404" transform="translate(153,0)"/>
<path d="M0 0 C2.97 0 5.94 0 9 0 C9 3.3 9 6.6 9 10 C6.03 10 3.06 10 0 10 C0 6.7 0 3.4 0 0 Z " fill="#FEFEFE" transform="translate(58,0)"/>
<path d="M0 0 C3.96 0 7.92 0 12 0 C10.51755092 3.70612271 9.22884794 6.74959675 7 10 C6.34 10 5.68 10 5 10 C3.7109375 8.3203125 3.7109375 8.3203125 2.375 6.125 C1.92898437 5.40570312 1.48296875 4.68640625 1.0234375 3.9453125 C0 2 0 2 0 0 Z " fill="#F3F3F3" transform="translate(125,0)"/>
</svg>
