<?xml version="1.0" standalone="no"?>
<!DOCTYPE svg PUBLIC "-//W3C//DTD SVG 20010904//EN"
 "http://www.w3.org/TR/2001/REC-SVG-20010904/DTD/svg10.dtd">
<svg version="1.0" xmlns="http://www.w3.org/2000/svg"
 width="512.000000pt" height="512.000000pt" viewBox="0 0 512.000000 512.000000"
 preserveAspectRatio="xMidYMid meet">

<g transform="translate(0.000000,512.000000) scale(0.100000,-0.100000)"
fill="#000000" stroke="none">
<path d="M153 4739 c-23 -11 -60 -40 -82 -64 -77 -83 -71 83 -71 -2115 0
-2199 -6 -2032 71 -2115 23 -24 60 -53 83 -65 42 -20 54 -20 1134 -20 l1092 0
0 2200 0 2200 -1092 0 c-1086 0 -1093 0 -1135 -21z m403 -365 c220 -165 234
-178 234 -225 0 -21 -8 -46 -17 -57 -10 -11 -100 -81 -201 -156 -159 -118
-188 -136 -221 -136 -60 0 -102 59 -82 113 6 16 63 66 146 128 74 56 135 104
135 108 0 4 -55 48 -123 98 -68 51 -132 101 -142 113 -28 31 -24 89 10 117 51
45 76 35 261 -103z m919 -430 c33 -36 33 -87 0 -119 -24 -25 -24 -25 -234 -25
-115 0 -217 3 -226 6 -19 8 -45 55 -45 83 0 11 12 33 26 50 l26 31 214 0 215
0 24 -26z m-795 -529 c32 -34 32 -86 0 -120 -23 -25 -24 -25 -195 -25 -169 0
-172 0 -194 24 -33 35 -31 93 4 123 25 22 34 23 194 23 166 0 168 0 191 -25z
m1414 -6 c28 -33 32 -59 14 -92 -25 -47 -12 -46 -610 -47 l-566 0 -26 31 c-33
39 -33 69 0 108 l26 31 568 0 568 0 26 -31z m-1428 -334 c34 -23 49 -69 34
-105 -21 -52 -52 -60 -215 -60 -164 0 -196 9 -214 61 -12 36 5 90 36 108 30
17 334 14 359 -4z m1227 3 c53 -28 63 -88 23 -135 l-24 -28 -392 0 -392 0 -24
28 c-33 39 -31 81 5 118 l29 29 377 0 c267 0 383 -3 398 -12z m-1234 -353 c56
-29 63 -106 14 -145 -23 -18 -41 -20 -185 -20 -95 0 -167 4 -180 11 -11 6 -26
26 -34 45 -13 31 -13 39 1 68 9 18 26 38 38 44 35 17 312 15 346 -3z m1412 0
c55 -29 64 -92 20 -136 l-29 -29 -560 0 c-543 0 -560 1 -585 20 -31 25 -42 65
-26 102 24 58 15 57 607 58 471 0 547 -2 573 -15z m-1391 -370 c16 -17 24 -37
24 -60 0 -23 -8 -43 -24 -60 -23 -25 -25 -25 -191 -25 -160 0 -169 1 -194 23
-35 30 -37 88 -4 123 22 24 25 24 194 24 171 0 172 0 195 -25z m1235 0 c34
-33 34 -87 0 -120 l-24 -25 -391 0 -391 0 -24 25 c-34 33 -34 87 0 120 l24 25
391 0 391 0 24 -25z m-1242 -345 c33 -26 41 -62 23 -104 -21 -49 -60 -58 -232
-54 -125 3 -145 5 -164 23 -34 31 -42 61 -26 99 8 19 22 39 33 45 11 6 83 11
179 11 146 0 164 -2 187 -20z m1418 -9 c44 -44 35 -107 -20 -136 -44 -22
-1097 -23 -1140 0 -56 29 -63 106 -14 145 25 19 42 20 585 20 l560 0 29 -29z
m-1432 -336 c40 -20 57 -66 41 -105 -23 -55 -39 -60 -207 -60 -83 0 -163 4
-178 10 -60 23 -64 124 -6 155 38 20 310 21 350 0z m1252 -14 c41 -41 40 -90
-2 -125 l-31 -26 -380 0 -380 0 -29 29 c-45 46 -33 118 25 141 11 5 189 9 394
9 l374 1 29 -29z m-1231 -356 c34 -37 33 -90 -4 -121 -26 -23 -33 -24 -191
-24 -156 0 -165 1 -190 23 -36 31 -38 86 -5 122 23 25 25 25 195 25 171 0 172
0 195 -25z m1395 19 c19 -8 45 -55 45 -83 0 -11 -12 -33 -26 -50 l-26 -31
-568 0 -568 0 -26 31 c-33 39 -33 69 0 108 l26 31 563 0 c310 0 571 -3 580 -6z
m-1402 -364 c34 -27 41 -63 21 -105 -23 -49 -60 -57 -230 -53 -125 3 -145 5
-164 23 -34 31 -42 61 -26 99 8 19 22 39 33 45 11 6 83 11 179 11 146 0 164
-2 187 -20z m1242 -5 c33 -32 33 -84 1 -122 l-24 -28 -359 -3 c-197 -2 -373 0
-392 3 -77 14 -107 96 -55 149 l27 26 389 0 389 0 24 -25z"/>
<path d="M2987 4750 c-52 -9 -120 -45 -154 -82 -31 -34 -69 -115 -82 -176 -8
-38 -11 -578 -11 -1865 0 -2007 -4 -1884 66 -2027 50 -101 160 -212 261 -263
281 -139 594 -53 772 213 l57 85 60 7 c120 13 236 75 311 166 60 75 110 177
122 250 12 73 -2 199 -30 261 -10 24 -19 47 -19 50 0 4 26 12 58 19 118 24
224 99 293 204 108 167 87 402 -49 549 l-52 57 39 47 c108 130 155 327 120
497 -16 81 -82 209 -139 271 l-50 54 12 80 c32 218 -93 457 -290 556 -62 31
-97 41 -210 63 l-22 4 25 50 c29 58 50 181 41 243 -16 105 -127 261 -214 303
-20 9 -71 41 -112 69 -106 74 -251 157 -383 220 -167 81 -313 113 -420 95z"/>
</g>
</svg>
