<?xml version="1.0" encoding="UTF-8"?>
<svg version="1.1" xmlns="http://www.w3.org/2000/svg" width="225" height="225">
<path d="M0 0 C74.25 0 148.5 0 225 0 C225 74.25 225 148.5 225 225 C150.75 225 76.5 225 0 225 C0 150.75 0 76.5 0 0 Z " fill="#FDFDFD" transform="translate(0,0)"/>
<path d="M0 0 C18.22224361 9.1111218 18.22224361 9.1111218 21.921875 18.9375 C23.55225206 23.02530611 25.39559461 26.98562652 27.328125 30.9375 C27.77210381 31.84588875 27.77210381 31.84588875 28.22505188 32.77262878 C28.82803637 34.00466831 29.43145673 35.23649461 30.03530884 36.46810913 C31.4827548 39.42718946 32.91309336 42.39415534 34.33984375 45.36328125 C34.82831787 46.37688721 35.31679199 47.39049316 35.82006836 48.43481445 C37 51 37 51 38 54 C38.33 42.78 38.66 31.56 39 20 C47.415 23.96 47.415 23.96 56 28 C56 49.78 56 71.56 56 94 C52.38925461 92.55570184 49.32131023 91.18051157 46 89.25 C45.175 88.78078125 44.35 88.3115625 43.5 87.828125 C37.4849594 83.42962656 34.40044737 77.40052905 31.13671875 70.8828125 C30.69987259 70.02565643 30.26302643 69.16850037 29.8129425 68.28536987 C28.43055121 65.56885364 27.05889527 62.84708115 25.6875 60.125 C24.74745087 58.27307892 23.80670273 56.42151249 22.86523438 54.5703125 C20.56738402 50.05154422 18.28415367 45.52581146 16 41 C15.67 51.56 15.34 62.12 15 73 C7.575 69.535 7.575 69.535 0 66 C0 44.22 0 22.44 0 0 Z " fill="#013042" transform="translate(52,51)"/>
<path d="M0 0 C22.79069767 0 22.79069767 0 27.9765625 4.84765625 C30.34014711 9.81840098 29.70080199 15.89759403 28 21 C23.79818633 25.20181367 18.80621076 26.16918388 13 26.1875 C11.68 26.125625 10.36 26.06375 9 26 C9 30.29 9 34.58 9 39 C6.03 39 3.06 39 0 39 C0 26.13 0 13.26 0 0 Z " fill="#0A3546" transform="translate(139,158)"/>
<path d="M0 0 C6 0 6 0 7.984375 1.51171875 C8.56703125 2.22972656 9.1496875 2.94773438 9.75 3.6875 C10.41515625 4.49703125 11.0803125 5.3065625 11.765625 6.140625 C12.50296875 7.08421875 13.2403125 8.0278125 14 9 C14.91127985 10.1407676 15.8227466 11.28138592 16.734375 12.421875 C17.65819901 13.59221415 18.58009316 14.76407939 19.5 15.9375 C20.16854004 16.7886438 20.16854004 16.7886438 20.85058594 17.65698242 C24 21.76198264 24 21.76198264 24 24 C24.66 24 25.32 24 26 24 C26 16.08 26 8.16 26 0 C28.31 0 30.62 0 33 0 C33 12.87 33 25.74 33 39 C27 39 27 39 25.05078125 37.5234375 C24.47714844 36.81445312 23.90351562 36.10546875 23.3125 35.375 C22.31669922 34.16650391 22.31669922 34.16650391 21.30078125 32.93359375 C20.16189453 31.48146484 20.16189453 31.48146484 19 30 C18.01470699 28.76141312 17.02900673 27.52315014 16.04296875 26.28515625 C13.33433463 22.87718307 10.67096047 19.4388616 8 16 C7.67 23.59 7.34 31.18 7 39 C4.69 39 2.38 39 0 39 C0 26.13 0 13.26 0 0 Z " fill="#022F41" transform="translate(26,158)"/>
<path d="M0 0 C0.99 0.66 1.98 1.32 3 2 C3 2.66 3 3.32 3 4 C3.845625 3.34 4.69125 2.68 5.5625 2 C9.5265716 -0.30636893 11.4897723 -0.57402898 16 0 C20.6 2.2 20.6 2.2 22 5 C22.08449628 6.7404417 22.10723024 8.48409722 22.09765625 10.2265625 C22.09443359 11.2578125 22.09121094 12.2890625 22.08789062 13.3515625 C22.07532227 14.97191406 22.07532227 14.97191406 22.0625 16.625 C22.05798828 17.71296875 22.05347656 18.8009375 22.04882812 19.921875 C22.03701776 22.61463789 22.02054778 25.30729188 22 28 C19.36 28 16.72 28 14 28 C13.67 21.07 13.34 14.14 13 7 C11.35 7.33 9.7 7.66 8 8 C7.67 14.6 7.34 21.2 7 28 C4.36 28 1.72 28 -1 28 C-1.33 21.4 -1.66 14.8 -2 8 C-6.47702364 6.93462795 -6.47702364 6.93462795 -9 7 C-9 13.93 -9 20.86 -9 28 C-11.64 28 -14.28 28 -17 28 C-17 19.09 -17 10.18 -17 1 C-14 1 -11 1 -8 1 C-5.22899606 -0.38550197 -3.0665294 -0.1877467 0 0 Z " fill="#073344" transform="translate(112,169)"/>
<path d="M0 0 C0 9.24 0 18.48 0 28 C-4.516875 30.413125 -4.516875 30.413125 -9.125 32.875 C-10.06230957 33.3788623 -10.99961914 33.88272461 -11.96533203 34.40185547 C-12.72185059 34.80291504 -13.47836914 35.20397461 -14.2578125 35.6171875 C-15.0223877 36.02565918 -15.78696289 36.43413086 -16.57470703 36.85498047 C-19.28549885 38.13478857 -22.15611692 39.05203897 -25 40 C-25 30.76 -25 21.52 -25 12 C-21.9475 10.39125 -18.895 8.7825 -15.75 7.125 C-14.31672363 6.36920654 -14.31672363 6.36920654 -12.85449219 5.59814453 C-12.09297852 5.19708496 -11.33146484 4.79602539 -10.546875 4.3828125 C-9.77182617 3.97434082 -8.99677734 3.56586914 -8.19824219 3.14501953 C-7.47282227 2.76716309 -6.74740234 2.38930664 -6 2 C-5.2874707 1.62085449 -4.57494141 1.24170898 -3.84082031 0.85107422 C-2 0 -2 0 0 0 Z " fill="#033143" transform="translate(142,106)"/>
<path d="M0 0 C0 9.24 0 18.48 0 28 C-11.375 33.4375 -11.375 33.4375 -14.95849609 35.15014648 C-15.88742676 35.59430908 -16.81635742 36.03847168 -17.7734375 36.49609375 C-19.20308838 37.17949829 -19.20308838 37.17949829 -20.66162109 37.87670898 C-22.11289371 38.57385925 -23.55994147 39.27997074 -25 40 C-25 30.43 -25 20.86 -25 11 C-21.431875 9.185 -17.86375 7.37 -14.1875 5.5 C-13.06625732 4.92572266 -11.94501465 4.35144531 -10.78979492 3.75976562 C-9.90396729 3.31310547 -9.01813965 2.86644531 -8.10546875 2.40625 C-7.19949951 1.94541016 -6.29353027 1.48457031 -5.36010742 1.00976562 C-3 0 -3 0 0 0 Z " fill="#043243" transform="translate(142,68)"/>
<path d="M0 0 C0 9.57 0 19.14 0 29 C-4.888125 31.475 -4.888125 31.475 -9.875 34 C-11.41389893 34.78310547 -11.41389893 34.78310547 -12.98388672 35.58203125 C-13.79100098 35.98808594 -14.59811523 36.39414063 -15.4296875 36.8125 C-16.25710449 37.23144531 -17.08452148 37.65039062 -17.93701172 38.08203125 C-20 39 -20 39 -22 39 C-22 29.76 -22 20.52 -22 11 C-17.359375 8.5559375 -17.359375 8.5559375 -12.625 6.0625 C-11.65127441 5.54953369 -10.67754883 5.03656738 -9.67431641 4.50805664 C-8.90780762 4.10449951 -8.14129883 3.70094238 -7.3515625 3.28515625 C-6.56604004 2.87144775 -5.78051758 2.45773926 -4.97119141 2.03149414 C-1.08899408 0 -1.08899408 0 0 0 Z " fill="#073445" transform="translate(173,90)"/>
<path d="M0 0 C0 9.24 0 18.48 0 28 C-3.444375 29.815 -6.88875 31.63 -10.4375 33.5 C-11.52474365 34.07427734 -12.6119873 34.64855469 -13.73217773 35.24023438 C-14.58239502 35.68689453 -15.4326123 36.13355469 -16.30859375 36.59375 C-17.62041626 37.28500977 -17.62041626 37.28500977 -18.95874023 37.99023438 C-21 39 -21 39 -22 39 C-22 29.43 -22 19.86 -22 10 C-18.74125 8.35 -15.4825 6.7 -12.125 5 C-11.09906738 4.47792969 -10.07313477 3.95585938 -9.01611328 3.41796875 C-7.80544189 2.80888672 -7.80544189 2.80888672 -6.5703125 2.1875 C-5.74289551 1.76855469 -4.91547852 1.34960938 -4.06298828 0.91796875 C-2 0 -2 0 0 0 Z " fill="#083546" transform="translate(173,52)"/>
<path d="M0 0 C2.43910481 1.15397968 4.83312034 2.37341016 7.22631836 3.61962891 C8.05776367 4.044375 8.88920898 4.46912109 9.74584961 4.90673828 C11.78484434 5.94967237 13.81970326 6.99991183 15.85131836 8.05712891 C12.86467297 11.23453131 9.41512921 13.14461352 5.60131836 15.18212891 C4.95807617 15.54177734 4.31483398 15.90142578 3.65209961 16.27197266 C-0.60075641 18.55670617 -4.22319268 20.12590587 -9.14868164 20.05712891 C-12.65892222 18.74548103 -15.83932199 16.97885728 -19.08618164 15.11962891 C-19.96081055 14.63816406 -20.83543945 14.15669922 -21.73657227 13.66064453 C-23.88366203 12.47563871 -26.01982066 11.27448475 -28.14868164 10.05712891 C-24.86803143 6.53222221 -21.03839579 4.57068351 -16.83618164 2.30712891 C-15.71566406 1.67097656 -15.71566406 1.67097656 -14.57250977 1.02197266 C-9.03433023 -1.96349023 -5.95301807 -2.61226631 0 0 Z " fill="#043142" transform="translate(119.148681640625,50.94287109375)"/>
<path d="M0 0 C2.3079908 1.15161809 4.56527949 2.37077084 6.82202148 3.61962891 C7.60577148 4.044375 8.38952148 4.46912109 9.19702148 4.90673828 C11.11802535 5.94923428 13.03434638 6.99945336 14.94702148 8.05712891 C11.11340189 11.18910459 6.84550119 13.45955322 2.50952148 15.80712891 C1.75864258 16.23123047 1.00776367 16.65533203 0.23413086 17.09228516 C-0.49870117 17.48802734 -1.2315332 17.88376953 -1.98657227 18.29150391 C-2.64713623 18.65469727 -3.3077002 19.01789062 -3.98828125 19.39208984 C-8.16639226 20.73785955 -11.75003966 18.8953207 -15.47875977 16.99072266 C-16.27475586 16.58789062 -17.07075195 16.18505859 -17.89086914 15.77001953 C-19.11580078 15.13870117 -19.11580078 15.13870117 -20.36547852 14.49462891 C-21.20143555 14.06988281 -22.03739258 13.64513672 -22.89868164 13.20751953 C-24.95294278 12.16278101 -27.00418144 11.11253128 -29.05297852 10.05712891 C-25.68033054 6.39370131 -21.63398162 4.5337324 -17.24047852 2.30712891 C-16.04841797 1.67097656 -16.04841797 1.67097656 -14.83227539 1.02197266 C-9.2118672 -1.83239511 -5.95592813 -2.7353781 0 0 Z " fill="#033042" transform="translate(88.052978515625,34.94287109375)"/>
<path d="M0 0 C2.97 0 5.94 0 9 0 C9.33 6.93 9.66 13.86 10 21 C11.65 21 13.3 21 15 21 C16.58403524 19.41596476 16.21974935 17.7228362 16.31640625 15.52734375 C16.35830078 14.62822266 16.40019531 13.72910156 16.44335938 12.80273438 C16.48267578 11.85720703 16.52199219 10.91167969 16.5625 9.9375 C16.60568359 8.98810547 16.64886719 8.03871094 16.69335938 7.06054688 C16.79979276 4.70718647 16.90181008 2.35371646 17 0 C19.64 0 22.28 0 25 0 C25 9.24 25 18.48 25 28 C23.02 28 21.04 28 19 28 C18.34 27.34 17.68 26.68 17 26 C16.01 26.66 15.02 27.32 14 28 C10.9830912 28.34061873 8.90592185 28.57212107 6 28 C3.30894802 25.82425584 1.54467072 24.08934144 0 21 C-0.08400529 19.40552536 -0.10727467 17.80759455 -0.09765625 16.2109375 C-0.09443359 15.26992187 -0.09121094 14.32890625 -0.08789062 13.359375 C-0.07951172 12.37453125 -0.07113281 11.3896875 -0.0625 10.375 C-0.05798828 9.38242188 -0.05347656 8.38984375 -0.04882812 7.3671875 C-0.03702145 4.9113984 -0.020554 2.45572896 0 0 Z " fill="#0D3647" transform="translate(64,169)"/>
<path d="M0 0 C2.31176758 1.03149414 2.31176758 1.03149414 4.64453125 2.28515625 C5.90620117 2.95708008 5.90620117 2.95708008 7.19335938 3.64257812 C8.05767578 4.11115234 8.92199219 4.57972656 9.8125 5.0625 C10.69615234 5.53494141 11.57980469 6.00738281 12.49023438 6.49414062 C14.66331578 7.65703284 16.83302284 8.82578375 19 10 C15.55786932 12.65009463 11.979436 14.76140563 8.125 16.75 C7.52558594 17.07871094 6.92617187 17.40742187 6.30859375 17.74609375 C2.04248493 19.93929937 -0.43293809 20.43714759 -5 19 C-8.19527074 17.60763525 -11.28432132 16.0469204 -14.375 14.4375 C-15.20644531 14.01275391 -16.03789062 13.58800781 -16.89453125 13.15039062 C-18.93352599 12.10745654 -20.9683849 11.05721708 -23 10 C-19.9802379 6.78670745 -16.4719531 4.82943411 -12.625 2.75 C-11.965 2.37359375 -11.305 1.9971875 -10.625 1.609375 C-6.53325487 -0.60766619 -4.43455371 -1.28036061 0 0 Z " fill="#033041" transform="translate(147,34)"/>
<path d="M0 0 C2.97 0 5.94 0 9 0 C9.33773437 0.84304687 9.67546875 1.68609375 10.0234375 2.5546875 C10.46945313 3.65039062 10.91546875 4.74609375 11.375 5.875 C11.81585938 6.96554688 12.25671875 8.05609375 12.7109375 9.1796875 C13.83051338 12.06329362 13.83051338 12.06329362 16 14 C16.26554687 13.15695313 16.53109375 12.31390625 16.8046875 11.4453125 C17.15789062 10.34960938 17.51109375 9.25390625 17.875 8.125 C18.22304687 7.03445312 18.57109375 5.94390625 18.9296875 4.8203125 C20 2 20 2 22 0 C25.625 -0.125 25.625 -0.125 29 0 C26.58726295 7.68957353 23.54672029 15.03268947 20.375 22.4375 C19.62089844 24.21157227 19.62089844 24.21157227 18.8515625 26.02148438 C15.18789213 34.62421573 15.18789213 34.62421573 14 37 C11.36 37 8.72 37 6 37 C7.80412371 31.32989691 7.80412371 31.32989691 9.1875 29 C11.00883318 24.51671833 8.69099868 20.03023507 6.93359375 15.8203125 C6.10833677 13.91892042 5.27610981 12.0205407 4.4375 10.125 C4.01275391 9.15046875 3.58800781 8.1759375 3.15039062 7.171875 C2.10624496 4.77855235 1.05597786 2.38811986 0 0 Z " fill="#0A3445" transform="translate(170,169)"/>
<path d="M0 0 C0.66 0.66 1.32 1.32 2 2 C-0.88243423 3.71120766 -3.78273865 5.38951872 -6.6875 7.0625 C-7.50412109 7.54783203 -8.32074219 8.03316406 -9.16210938 8.53320312 C-9.95810547 8.98759766 -10.75410156 9.44199219 -11.57421875 9.91015625 C-12.66609497 10.54642944 -12.66609497 10.54642944 -13.7800293 11.19555664 C-17.32289011 12.47937126 -19.84842483 11.4874533 -23.2199707 10.06030273 C-23.94788818 9.68848877 -24.67580566 9.3166748 -25.42578125 8.93359375 C-26.22177734 8.53076172 -27.01777344 8.12792969 -27.83789062 7.71289062 C-29.06282227 7.08157227 -29.06282227 7.08157227 -30.3125 6.4375 C-31.56643555 5.80038086 -31.56643555 5.80038086 -32.84570312 5.15039062 C-34.89996426 4.1056521 -36.95120292 3.05540238 -39 2 C-24.26726225 -9.37263967 -15.830423 -10.87919602 0 0 Z " fill="#043142" transform="translate(131,26)"/>
<path d="M0 0 C1.423125 -0.061875 2.84625 -0.12375 4.3125 -0.1875 C5.51326172 -0.23970703 5.51326172 -0.23970703 6.73828125 -0.29296875 C9 0 9 0 10.8046875 1.2890625 C12 3 12 3 11.8125 6.5625 C11 10 11 10 9 12 C5.98173347 12.27240673 3.03629378 12.08675125 0 12 C0 8.04 0 4.08 0 0 Z " fill="#F2F3F4" transform="translate(148,165)"/>
<path d="M0 0 C2.31 0 4.62 0 7 0 C6.34 1.32 5.68 2.64 5 4 C5 3.34 5 2.68 5 2 C3.02 2 1.04 2 -1 2 C-0.67 1.34 -0.34 0.68 0 0 Z " fill="#284353" transform="translate(192,169)"/>
</svg>
