<?xml version="1.0" encoding="UTF-8"?>
<svg version="1.1" xmlns="http://www.w3.org/2000/svg" width="32" height="32">
<path d="M0 0 C2.64 0 5.28 0 8 0 C8 3.3 8 6.6 8 10 C8.66 10.33 9.32 10.66 10 11 C10 11.99 10 12.98 10 14 C10.99 14 11.98 14 13 14 C13 12.68 13 11.36 13 10 C12.01 10 11.02 10 10 10 C10 6.7 10 3.4 10 0 C12.64 0 15.28 0 18 0 C18 3.3 18 6.6 18 10 C17.01 10 16.02 10 15 10 C15 11.32 15 12.64 15 14 C15.99 14 16.98 14 18 14 C18 13.01 18 12.02 18 11 C18.66 10.67 19.32 10.34 20 10 C20 6.7 20 3.4 20 0 C22.64 0 25.28 0 28 0 C28 3.3 28 6.6 28 10 C27.01 10 26.02 10 25 10 C25 10.99 25 11.98 25 13 C24.01 13.495 24.01 13.495 23 14 C23 17.3 23 20.6 23 24 C23.66 24 24.32 24 25 24 C25 25.32 25 26.64 25 28 C17.74 28 10.48 28 3 28 C3 26.68 3 25.36 3 24 C3.66 24 4.32 24 5 24 C5 20.7 5 17.4 5 14 C4.34 13.67 3.68 13.34 3 13 C3 12.01 3 11.02 3 10 C2.01 10 1.02 10 0 10 C0 6.7 0 3.4 0 0 Z M2 2 C6 3 6 3 6 3 Z M12 2 C16 3 16 3 16 3 Z M22 2 C26 3 26 3 26 3 Z M2 5 C2 5.99 2 6.98 2 8 C3.32 8 4.64 8 6 8 C6 7.01 6 6.02 6 5 C4.68 5 3.36 5 2 5 Z M12 5 C12 5.99 12 6.98 12 8 C13.32 8 14.64 8 16 8 C16 7.01 16 6.02 16 5 C14.68 5 13.36 5 12 5 Z M22 5 C22 5.99 22 6.98 22 8 C23.32 8 24.64 8 26 8 C26 7.01 26 6.02 26 5 C24.68 5 23.36 5 22 5 Z M7 17 C7 19.31 7 21.62 7 24 C11.62 24 16.24 24 21 24 C21 21.69 21 19.38 21 17 C19.91830354 15.69452245 19.91830354 15.69452245 17.3125 15.8671875 C16.219375 15.86976562 15.12625 15.87234375 14 15.875 C12.906875 15.87242188 11.81375 15.86984375 10.6875 15.8671875 C8.08169646 15.69452245 8.08169646 15.69452245 7 17 Z " fill="#000000" transform="translate(2,2)"/>
<path d="M0 0 C1.32 0.33 2.64 0.66 4 1 C3.67 2.65 3.34 4.3 3 6 C2.01 6 1.02 6 0 6 C0 4.02 0 2.04 0 0 Z " fill="#000000" transform="translate(17,19)"/>
<path d="M0 0 C0.99 0 1.98 0 3 0 C3 1.98 3 3.96 3 6 C1.68 5.67 0.36 5.34 -1 5 C-0.67 3.35 -0.34 1.7 0 0 Z " fill="#000000" transform="translate(12,19)"/>
</svg>
