<?xml version="1.0" encoding="UTF-8"?>
<svg version="1.1" xmlns="http://www.w3.org/2000/svg" width="207" height="243">
<path d="M0 0 C68.31 0 136.62 0 207 0 C207 80.19 207 160.38 207 243 C138.69 243 70.38 243 0 243 C0 162.81 0 82.62 0 0 Z " fill="#FCFCFB" transform="translate(0,0)"/>
<path d="M0 0 C42.57 0 85.14 0 129 0 C129.0825 15.675 129.165 31.35 129.25 47.5 C129.28641602 52.43904297 129.32283203 57.37808594 129.36035156 62.46679688 C129.37841797 68.52441406 129.37841797 68.52441406 129.3817749 71.36535645 C129.38789443 73.33837497 129.40191546 75.31137907 129.42230225 77.28430176 C129.45172344 80.28289551 129.45561941 83.2805797 129.45410156 86.27929688 C129.468494 87.1498748 129.48288643 88.02045273 129.497715 88.9174118 C129.45860028 94.71781103 128.31193103 99.17274777 125 104 C120.28728614 108.18907899 116.37641546 108.20714321 110.23828125 108.09375 C109.54174438 108.08698242 108.84520752 108.08021484 108.12756348 108.07324219 C106.41829173 108.05565859 104.70912025 108.02875827 103 108 C103.0314209 109.52753906 103.0314209 109.52753906 103.06347656 111.0859375 C103.13634684 114.89519976 103.1819688 118.7044015 103.21972656 122.51416016 C103.23973571 124.1571695 103.26695213 125.80010859 103.30175781 127.44287109 C103.35075305 129.81625788 103.37307504 132.18869649 103.390625 134.5625 C103.41127014 135.28679199 103.43191528 136.01108398 103.45318604 136.75732422 C103.45556121 142.26139739 101.98316654 146.37181698 99 151 C95.81923665 154.08437658 92.83749968 154.24634148 88.5625 154.4375 C83.60725411 154.27743822 80.65687084 153.56544907 77 150 C74.32436693 144.86289617 73.58001757 140.68316304 73.70703125 134.87890625 C73.71127609 134.13414536 73.71552094 133.38938446 73.71989441 132.62205505 C73.73654276 130.26848527 73.77416625 127.91580621 73.8125 125.5625 C73.82756485 123.95639267 73.84125009 122.35027177 73.85351562 120.74414062 C73.88383563 116.82881688 73.94257708 112.9153926 74 109 C67.73 109 61.46 109 55 109 C55.04640625 111.3615625 55.0928125 113.723125 55.140625 116.15625 C55.17190069 118.46644954 55.19614255 120.77662468 55.21972656 123.08691406 C55.23973053 124.68142408 55.26694301 126.27586178 55.30175781 127.87011719 C55.65191247 144.32738618 55.65191247 144.32738618 51 151 C47.78552913 154.11706266 44.8149396 154.2244115 40.5 154.375 C36.18775492 154.23029379 33.25556313 154.05825627 30 151 C26.32076833 145.60450493 25.43192415 141.89927531 25.609375 135.44140625 C25.61503479 134.65225327 25.62069458 133.86310028 25.62652588 133.05003357 C25.64874314 130.55354626 25.69890781 128.05854625 25.75 125.5625 C25.77008412 123.86004691 25.78833153 122.15757111 25.8046875 120.45507812 C25.84855928 116.30282086 25.91748092 112.15166172 26 108 C24.91460937 108.04640625 23.82921875 108.0928125 22.7109375 108.140625 C21.26565269 108.17816487 19.82033789 108.21456264 18.375 108.25 C17.66214844 108.28351563 16.94929688 108.31703125 16.21484375 108.3515625 C11.01246322 108.44701902 7.98705806 107.63290677 4 104 C0.09203329 98.26682468 -0.56647217 93.07643604 -0.45410156 86.27929688 C-0.4545837 85.32676277 -0.45506584 84.37422867 -0.45556259 83.3928299 C-0.45259641 80.33441224 -0.42222671 77.27699132 -0.390625 74.21875 C-0.38473782 72.32064279 -0.38066083 70.42252908 -0.37841797 68.52441406 C-0.35751641 61.51617648 -0.3016712 54.50807826 -0.25 47.5 C-0.1675 31.825 -0.085 16.15 0 0 Z " fill="#A4C63A" transform="translate(39,83)"/>
<path d="M0 0 C3.48846099 1.16282033 3.64041683 1.63109739 5.26171875 4.74609375 C5.65810547 5.50083984 6.05449219 6.25558594 6.46289062 7.03320312 C7.06907227 8.22333008 7.06907227 8.22333008 7.6875 9.4375 C8.10322266 10.22705078 8.51894531 11.01660156 8.94726562 11.83007812 C12 17.70997537 12 17.70997537 12 20 C12.68964844 19.73445313 13.37929687 19.46890625 14.08984375 19.1953125 C31.4806008 12.65886883 47.31920142 12.25321612 65 18 C66.35300023 18.62578958 67.69889798 19.27243162 69 20 C69.36738281 18.74316406 69.36738281 18.74316406 69.7421875 17.4609375 C71.161461 13.55573153 73.01857766 10.19028729 75.125 6.625 C75.49753906 5.98433594 75.87007813 5.34367188 76.25390625 4.68359375 C77.16434002 3.11951523 78.08148191 1.55934466 79 0 C79.99 0.33 80.98 0.66 82 1 C81.4462522 6.10454793 78.97407204 9.96575557 76.4375 14.3125 C75.80038086 15.42334961 75.80038086 15.42334961 75.15039062 16.55664062 C74.10648347 18.37468118 73.05407808 20.18783748 72 22 C72.72574219 22.25652344 73.45148438 22.51304688 74.19921875 22.77734375 C87.78813678 28.70946557 96.45998719 41.85369934 102 55 C104.42710615 61.58332713 104 65.25986091 104 73 C62.09 73 20.18 73 -23 73 C-23 56.1364753 -17.85671273 44.61497177 -6.44921875 32.3359375 C-2.15416407 28.23953766 2.67938995 24.66030503 8 22 C6.04277669 16.68469812 3.18642868 11.95242648 0.36328125 7.05859375 C-1 4 -1 4 -0.70703125 1.59765625 C-0.47371094 1.07042969 -0.24039063 0.54320312 0 0 Z " fill="#A4C638" transform="translate(63,5)"/>
<path d="M0 0 C0.99 0.99 1.98 1.98 3 3 C2.34 3 1.68 3 1 3 C1 3.99 1 4.98 1 6 C1.99 6 2.98 6 4 6 C4.33 5.34 4.66 4.68 5 4 C6.98 4.99 8.96 5.98 11 7 C11 7.99 11 8.98 11 10 C11.99 10 12.98 10 14 10 C14 9.34 14 8.68 14 8 C15.32 8 16.64 8 18 8 C18 8.66 18 9.32 18 10 C18.99 10 19.98 10 21 10 C21.33 9.01 21.66 8.02 22 7 C22.99 7 23.98 7 25 7 C25 7.99 25 8.98 25 10 C25.99 10 26.98 10 28 10 C28 10.99 28 11.98 28 13 C29.32 13 30.64 13 32 13 C32.66 15.31 33.32 17.62 34 20 C33.34 20 32.68 20 32 20 C32 21.32 32 22.64 32 24 C32.99 24 33.98 24 35 24 C35 24.99 35 25.98 35 27 C36.65 26.67 38.3 26.34 40 26 C39.67 27.32 39.34 28.64 39 30 C39.99 30 40.98 30 42 30 C42.33 29.34 42.66 28.68 43 28 C44.98 28.99 46.96 29.98 49 31 C49 31.99 49 32.98 49 34 C49.99 34 50.98 34 52 34 C52 33.01 52 32.02 52 31 C53.32 31 54.64 31 56 31 C57.32198606 38.26579936 57.0247379 45.45514006 56.87304688 52.81445312 C56.85661133 54.30428711 56.85661133 54.30428711 56.83984375 55.82421875 C56.81458618 57.17132935 56.81458618 57.17132935 56.78881836 58.5456543 C57.01343696 61.15616385 57.67767935 62.76069644 59 65 C58.01 65 57.02 65 56 65 C56 65.99 56 66.98 56 68 C57.98 67.505 57.98 67.505 60 67 C59.67 68.65 59.34 70.3 59 72 C61.475 71.505 61.475 71.505 64 71 C63.505 72.98 63.505 72.98 63 75 C64.0828125 74.690625 64.0828125 74.690625 65.1875 74.375 C68.44641585 73.94047789 70.08304504 74.58319331 73 76 C73 76.33 73 76.66 73 77 C47.92 77 22.84 77 -3 77 C-3 52.58 -3 28.16 -3 3 C-2.01 3 -1.02 3 0 3 C0 2.01 0 1.02 0 0 Z " fill="#F1F1F1" transform="translate(3,166)"/>
<path d="M0 0 C1.32 0 2.64 0 4 0 C4 25.41 4 50.82 4 77 C-19.76 77 -43.52 77 -68 77 C-68 76.34 -68 75.68 -68 75 C-67.01 75 -66.02 75 -65 75 C-65 74.34 -65 73.68 -65 73 C-63.625 71.375 -63.625 71.375 -62 70 C-61.34 70 -60.68 70 -60 70 C-60 69.34 -60 68.68 -60 68 C-59.34 68 -58.68 68 -58 68 C-58 67.01 -58 66.02 -58 65 C-57.01 65 -56.02 65 -55 65 C-55 64.01 -55 63.02 -55 62 C-55.66 62 -56.32 62 -57 62 C-56.835 61.03578125 -56.67 60.0715625 -56.5 59.078125 C-55.86333624 54.62596223 -55.92642829 50.23787429 -56 45.75 C-56.13420245 37.40260736 -56.13420245 37.40260736 -55 34 C-53.68 34 -52.36 34 -51 34 C-51 34.99 -51 35.98 -51 37 C-50.01 37 -49.02 37 -48 37 C-48 36.01 -48 35.02 -48 34 C-46.68 34 -45.36 34 -44 34 C-44 33.01 -44 32.02 -44 31 C-44.99 30.67 -45.98 30.34 -47 30 C-45.02 30 -43.04 30 -41 30 C-40.67 29.01 -40.34 28.02 -40 27 C-36.55555556 24 -36.55555556 24 -34 24 C-33.67 22.68 -33.34 21.36 -33 20 C-32.34 20 -31.68 20 -31 20 C-31 16.7 -31 13.4 -31 10 C-29.68 10 -28.36 10 -27 10 C-27 9.01 -27 8.02 -27 7 C-25.68 7 -24.36 7 -23 7 C-23 7.99 -23 8.98 -23 10 C-22.01 10 -21.02 10 -20 10 C-20 10.99 -20 11.98 -20 13 C-19.01 13 -18.02 13 -17 13 C-17 12.01 -17 11.02 -17 10 C-15.68 10 -14.36 10 -13 10 C-13 10.99 -13 11.98 -13 13 C-12.01 13 -11.02 13 -10 13 C-10 12.01 -10 11.02 -10 10 C-9.01 10 -8.02 10 -7 10 C-7 8.68 -7 7.36 -7 6 C-5.68 6 -4.36 6 -3 6 C-3 5.01 -3 4.02 -3 3 C-2.01 3 -1.02 3 0 3 C0 2.01 0 1.02 0 0 Z " fill="#F2F2F1" transform="translate(203,166)"/>
<path d="M0 0 C18.15 0 36.3 0 55 0 C55 0.99 55 1.98 55 3 C55.99 3.33 56.98 3.66 58 4 C57.67 4.99 57.34 5.98 57 7 C56.34 7 55.68 7 55 7 C55 7.99 55 8.98 55 10 C55.928125 10.3403125 55.928125 10.3403125 56.875 10.6875 C59.61410209 12.37929835 60.05024472 13.99244161 61 17 C60.34 17 59.68 17 59 17 C59 18.32 59 19.64 59 21 C59.99 21 60.98 21 62 21 C62 21.99 62 22.98 62 24 C61.01 24 60.02 24 59 24 C59.495 26.475 59.495 26.475 60 29 C58.35 28.67 56.7 28.34 55 28 C55 28.99 55 29.98 55 31 C54.01 31 53.02 31 52 31 C52 32.32 52 33.64 52 35 C50.68 35 49.36 35 48 35 C48 35.99 48 36.98 48 38 C47.01 38 46.02 38 45 38 C45 38.99 45 39.98 45 41 C45.99 41.495 45.99 41.495 47 42 C46.01 42.495 46.01 42.495 45 43 C44.01 42.67 43.02 42.34 42 42 C42 42.99 42 43.98 42 45 C42.99 45.495 42.99 45.495 44 46 C43.01 47.98 42.02 49.96 41 52 C40.01 52 39.02 52 38 52 C38 52.99 38 53.98 38 55 C37.01 55 36.02 55 35 55 C35 55.99 35 56.98 35 58 C35.66 58 36.32 58 37 58 C37 59.32 37 60.64 37 62 C36.34 62 35.68 62 35 62 C34.67 63.32 34.34 64.64 34 66 C33.01 66 32.02 66 31 66 C31 66.99 31 67.98 31 69 C31.99 69 32.98 69 34 69 C34 70.32 34 71.64 34 73 C33.01 73 32.02 73 31 73 C31 73.99 31 74.98 31 76 C28.03 76.495 28.03 76.495 25 77 C25.99 76.505 25.99 76.505 27 76 C27 75.01 27 74.02 27 73 C26.01 73 25.02 73 24 73 C24 73.99 24 74.98 24 76 C23.01 76 22.02 76 21 76 C21 75.01 21 74.02 21 73 C19.68 73 18.36 73 17 73 C17 73.99 17 74.98 17 76 C16.01 76 15.02 76 14 76 C14 74.68 14 73.36 14 72 C12.68 72 11.36 72 10 72 C10 73.32 10 74.64 10 76 C9.01 76 8.02 76 7 76 C7 76.99 7 77.98 7 79 C6.01 79 5.02 79 4 79 C4 80.65 4 82.3 4 84 C2.68 83.67 1.36 83.34 0 83 C0 55.61 0 28.22 0 0 Z " fill="#F3F3F2" transform="translate(0,0)"/>
<path d="M0 0 C4.25829199 2.0086283 6.89568895 4.46629148 9.16622925 8.61233521 C11.08165645 14.09753373 10.59170751 20.0935343 10.56640625 25.83984375 C10.57164905 27.2904144 10.57792793 28.74098163 10.58518982 30.19154358 C10.59556541 33.2234813 10.5910745 36.25494886 10.57641602 39.28686523 C10.55923692 43.15500763 10.58272511 47.02166326 10.61790562 50.88963985 C10.63996271 53.88303805 10.63841825 56.87608506 10.6301403 59.86953926 C10.62932521 61.29477125 10.63610349 62.72003018 10.65091133 64.14518547 C10.72251544 72.28330365 10.6592254 78.75221677 5 85 C1.29172605 88.3904219 -2.62921711 88.62618638 -7.4921875 88.48828125 C-11.69958421 87.66908407 -14.35361957 85.27790303 -17 82 C-19.20647571 78.49114825 -19.25841345 75.59217631 -19.2746582 71.49072266 C-19.27976913 70.84628708 -19.28488007 70.2018515 -19.29014587 69.53788757 C-19.30401517 67.41318402 -19.30308695 65.28880588 -19.30078125 63.1640625 C-19.30467013 61.68199544 -19.3090052 60.1999295 -19.31376648 58.71786499 C-19.3212233 55.61265449 -19.3209417 52.50755769 -19.31567383 49.40234375 C-19.30988493 45.43227606 -19.32679835 41.46267577 -19.3500185 37.49268532 C-19.36478614 34.43166402 -19.36562336 31.37075444 -19.36250877 28.30970383 C-19.36302063 26.84654186 -19.36823292 25.38337341 -19.37832069 23.92024612 C-19.39072494 21.86921535 -19.38387042 19.81908392 -19.37231445 17.76806641 C-19.37294388 16.60320709 -19.3735733 15.43834778 -19.3742218 14.2381897 C-18.79923544 9.26275829 -17.14193325 6.03052513 -13.4375 2.6875 C-8.95640798 -0.41479448 -5.36740506 -0.63358913 0 0 Z " fill="#A4C639" transform="translate(192,81)"/>
<path d="M0 0 C5.11762818 2.65358498 8.17705942 5.53117826 10 11 C10.10945059 13.12992326 10.15898863 15.26309445 10.17700195 17.39575195 C10.18357315 18.0400415 10.19014435 18.68433105 10.19691467 19.34814453 C10.21660845 21.47819136 10.22830146 23.60816781 10.23828125 25.73828125 C10.24235678 26.46722281 10.2464323 27.19616436 10.25063133 27.94719505 C10.27147543 31.80553273 10.28578425 35.66383503 10.29516602 39.5222168 C10.30622677 43.50023128 10.34062682 47.47768584 10.38033772 51.45550251 C10.4065252 54.52079789 10.4148597 57.58596025 10.41844749 60.65135765 C10.42330804 62.11733977 10.43490699 63.58331616 10.45348549 65.04918861 C10.47792439 67.10526116 10.47690453 69.15989011 10.4699707 71.21606445 C10.47877007 72.96787773 10.47877007 72.96787773 10.48774719 74.75508118 C9.73765478 79.74534873 6.88040353 83.79444925 3 87 C-2.35315727 88.78438576 -7.17981695 88.85857691 -12.3125 86.4375 C-16.51484008 82.62607527 -18.69321676 79.51237234 -19.38137817 73.8767395 C-19.54633336 69.96836422 -19.58362535 66.07088147 -19.56640625 62.16015625 C-19.57164905 60.7095856 -19.57792793 59.25901837 -19.58518982 57.80845642 C-19.59556541 54.7765187 -19.5910745 51.74505114 -19.57641602 48.71313477 C-19.55923692 44.84499237 -19.58272511 40.97833674 -19.61790562 37.11036015 C-19.63996271 34.11696195 -19.63841825 31.12391494 -19.6301403 28.13046074 C-19.62932521 26.70522875 -19.63610349 25.27996982 -19.65091133 23.85481453 C-19.72240761 15.72895194 -19.6704666 9.23060533 -14 3 C-9.8903402 -0.65303094 -5.26678014 -0.8452857 0 0 Z " fill="#A4C639" transform="translate(24,81)"/>
<path d="M0 0 C7.92 0 15.84 0 24 0 C24 28.38 24 56.76 24 86 C19.72789016 84.93197254 19.15831257 84.56121574 17 81 C17 80.34 17 79.68 17 79 C15.68 78.67 14.36 78.34 13 78 C13 77.34 13 76.68 13 76 C12.01 76 11.02 76 10 76 C10 75.01 10 74.02 10 73 C9.01 73 8.02 73 7 73 C7 73.99 7 74.98 7 76 C5.68 76 4.36 76 3 76 C3 75.01 3 74.02 3 73 C2.01 73 1.02 73 0 73 C0 73.99 0 74.98 0 76 C-2.31 76.99 -4.62 77.98 -7 79 C-7 78.01 -7 77.02 -7 76 C-8.32 76 -9.64 76 -11 76 C-11 74.68 -11 73.36 -11 72 C-9.68 72 -8.36 72 -7 72 C-7 71.01 -7 70.02 -7 69 C-8.98 69.495 -8.98 69.495 -11 70 C-12.125 62.375 -12.125 62.375 -11 59 C-11.99 59 -12.98 59 -14 59 C-14 57.68 -14 56.36 -14 55 C-13.01 55 -12.02 55 -11 55 C-11 54.01 -11 53.02 -11 52 C-11.99 52 -12.98 52 -14 52 C-14 50.68 -14 49.36 -14 48 C-13.01 48 -12.02 48 -11 48 C-11 47.01 -11 46.02 -11 45 C-11.99 45 -12.98 45 -14 45 C-14 44.01 -14 43.02 -14 42 C-12.515 41.505 -12.515 41.505 -11 41 C-10.67 40.01 -10.34 39.02 -10 38 C-9.01 38 -8.02 38 -7 38 C-7 39.32 -7 40.64 -7 42 C-5.515 41.505 -5.515 41.505 -4 41 C-3.67 40.01 -3.34 39.02 -3 38 C-2.01 38 -1.02 38 0 38 C0 37.01 0 36.02 0 35 C-0.99 34.67 -1.98 34.34 -3 34 C-3 33.01 -3 32.02 -3 31 C-2.01 31 -1.02 31 0 31 C0 31.99 0 32.98 0 34 C0.99 34 1.98 34 3 34 C3 33.01 3 32.02 3 31 C4.32 31 5.64 31 7 31 C7 30.01 7 29.02 7 28 C5.68 28 4.36 28 3 28 C3 26.68 3 25.36 3 24 C4.32 24 5.64 24 7 24 C7 24.99 7 25.98 7 27 C7.99 27 8.98 27 10 27 C10 26.01 10 25.02 10 24 C11.32 24 12.64 24 14 24 C14 23.01 14 22.02 14 21 C12.68 21 11.36 21 10 21 C10 19.68 10 18.36 10 17 C13.3 17 16.6 17 20 17 C20 16.01 20 15.02 20 14 C19.01 14 18.02 14 17 14 C17 12.68 17 11.36 17 10 C16.01 10 15.02 10 14 10 C14 11.32 14 12.64 14 14 C12.68 14 11.36 14 10 14 C10 12.68 10 11.36 10 10 C9.01 10 8.02 10 7 10 C7 9.01 7 8.02 7 7 C5.68 7 4.36 7 3 7 C3 6.01 3 5.02 3 4 C2.01 4 1.02 4 0 4 C0 2.68 0 1.36 0 0 Z " fill="#F1F1F0" transform="translate(183,0)"/>
<path d="M0 0 C8.25 0 16.5 0 25 0 C24.67 1.32 24.34 2.64 24 4 C23.01 4 22.02 4 21 4 C21 4.99 21 5.98 21 7 C21.99 7 22.98 7 24 7 C23.67 8.32 23.34 9.64 23 11 C22.34 11 21.68 11 21 11 C21 11.99 21 12.98 21 14 C21.99 14 22.98 14 24 14 C24 13.01 24 12.02 24 11 C25.32 11 26.64 11 28 11 C28 11.99 28 12.98 28 14 C28.99 14 29.98 14 31 14 C31 12.68 31 11.36 31 10 C32.32 10 33.64 10 35 10 C35 11.32 35 12.64 35 14 C35.99 14 36.98 14 38 14 C38 14.99 38 15.98 38 17 C37.01 17 36.02 17 35 17 C35 18.32 35 19.64 35 21 C34.01 21.33 33.02 21.66 32 22 C31.67 22.66 31.34 23.32 31 24 C30.01 24 29.02 24 28 24 C28 25.32 28 26.64 28 28 C28.99 28 29.98 28 31 28 C31 28.99 31 29.98 31 31 C30.01 31 29.02 31 28 31 C28 31.99 28 32.98 28 34 C26.68 34 25.36 34 24 34 C24 35.32 24 36.64 24 38 C23.01 38 22.02 38 21 38 C21 38.99 21 39.98 21 41 C19.68 41 18.36 41 17 41 C17 42.32 17 43.64 17 45 C16.01 45 15.02 45 14 45 C14 44.01 14 43.02 14 42 C13.34 42 12.68 42 12 42 C11.9175 41.38125 11.835 40.7625 11.75 40.125 C11.20721701 37.84645565 11.20721701 37.84645565 9.125 36.9375 C8.42375 36.628125 7.7225 36.31875 7 36 C5.25 34.5 5.25 34.5 4 33 C4 32.34 4 31.68 4 31 C2.68 30.67 1.36 30.34 0 30 C0 29.34 0 28.68 0 28 C-0.99 27.67 -1.98 27.34 -3 27 C-3 26.01 -3 25.02 -3 24 C-2.01 24 -1.02 24 0 24 C0 23.01 0 22.02 0 21 C-0.99 21 -1.98 21 -3 21 C-2.67 19.68 -2.34 18.36 -2 17 C-1.34 17 -0.68 17 0 17 C0.33 15.68 0.66 14.36 1 13 C1.99 13.33 2.98 13.66 4 14 C4 12.68 4 11.36 4 10 C4.99 10 5.98 10 7 10 C7 9.01 7 8.02 7 7 C6.01 7 5.02 7 4 7 C4 6.01 4 5.02 4 4 C2.68 3.67 1.36 3.34 0 3 C0 2.01 0 1.02 0 0 Z " fill="#F0F0F0" transform="translate(148,0)"/>
<path d="M0 0 C21.78 0 43.56 0 66 0 C65.67 1.32 65.34 2.64 65 4 C64.34 4 63.68 4 63 4 C62.67 5.32 62.34 6.64 62 8 C61.01 7.67 60.02 7.34 59 7 C59 7.99 59 8.98 59 10 C59.66 10 60.32 10 61 10 C60.1875 12.9375 60.1875 12.9375 59 16 C58.01 16.33 57.02 16.66 56 17 C56 16.01 56 15.02 56 14 C54.68 14 53.36 14 52 14 C51.67 14.99 51.34 15.98 51 17 C50.34 16.67 49.68 16.34 49 16 C49 15.34 49 14.68 49 14 C47.9275 14.185625 46.855 14.37125 45.75 14.5625 C42.59608454 14.9304568 40.90181508 15.04465343 38 14 C38 12.68 38 11.36 38 10 C37.01 10 36.02 10 35 10 C35 11.32 35 12.64 35 14 C33.68 14 32.36 14 31 14 C30.505 12.515 30.505 12.515 30 11 C29.34 11 28.68 11 28 11 C28 11.99 28 12.98 28 14 C26.68 14 25.36 14 24 14 C24 12.68 24 11.36 24 10 C23.01 10 22.02 10 21 10 C21 11.32 21 12.64 21 14 C18.35261084 15.4606285 17.10551666 16 14 16 C14 15.34 14 14.68 14 14 C13.01 14 12.02 14 11 14 C11 14.99 11 15.98 11 17 C9.35 17.33 7.7 17.66 6 18 C6.33 16.68 6.66 15.36 7 14 C6.01 14 5.02 14 4 14 C4 12.68 4 11.36 4 10 C3.38125 9.95875 2.7625 9.9175 2.125 9.875 C1.073125 9.441875 1.073125 9.441875 0 9 C-1.25 5.9375 -1.25 5.9375 -2 3 C-1.34 3 -0.68 3 0 3 C0 2.01 0 1.02 0 0 Z " fill="#F2F2F1" transform="translate(72,0)"/>
<path d="M0 0 C0.99 0 1.98 0 3 0 C3 1.32 3 2.64 3 4 C3.99 3.67 4.98 3.34 6 3 C6.33 2.01 6.66 1.02 7 0 C7.99 0 8.98 0 10 0 C10 0.99 10 1.98 10 3 C10.66 3.33 11.32 3.66 12 4 C11.34 4.33 10.68 4.66 10 5 C9.01 4.67 8.02 4.34 7 4 C7 4.99 7 5.98 7 7 C7.66 7.33 8.32 7.66 9 8 C8.01 9.98 7.02 11.96 6 14 C5.01 14 4.02 14 3 14 C3 14.99 3 15.98 3 17 C2.01 17 1.02 17 0 17 C0 17.99 0 18.98 0 20 C0.66 20 1.32 20 2 20 C2 21.32 2 22.64 2 24 C1.34 24 0.68 24 0 24 C-0.33 25.32 -0.66 26.64 -1 28 C-1.99 28 -2.98 28 -4 28 C-4 28.99 -4 29.98 -4 31 C-3.01 31 -2.02 31 -1 31 C-1 32.32 -1 33.64 -1 35 C-1.99 35 -2.98 35 -4 35 C-4 35.99 -4 36.98 -4 38 C-6.97 38.495 -6.97 38.495 -10 39 C-9.01 38.505 -9.01 38.505 -8 38 C-8 37.01 -8 36.02 -8 35 C-8.99 35 -9.98 35 -11 35 C-11 35.99 -11 36.98 -11 38 C-11.99 38 -12.98 38 -14 38 C-14 37.01 -14 36.02 -14 35 C-15.32 35 -16.64 35 -18 35 C-18 35.99 -18 36.98 -18 38 C-18.99 38 -19.98 38 -21 38 C-21 36.68 -21 35.36 -21 34 C-22.32 34 -23.64 34 -25 34 C-25 35.32 -25 36.64 -25 38 C-25.99 38 -26.98 38 -28 38 C-28 38.99 -28 39.98 -28 41 C-28.99 41 -29.98 41 -31 41 C-31 42.65 -31 44.3 -31 46 C-32.32 45.67 -33.64 45.34 -35 45 C-35 41.7 -35 38.4 -35 35 C-33.515 34.505 -33.515 34.505 -32 34 C-31.67 33.01 -31.34 32.02 -31 31 C-30.01 31 -29.02 31 -28 31 C-28 30.01 -28 29.02 -28 28 C-27.01 27.67 -26.02 27.34 -25 27 C-24.67 26.01 -24.34 25.02 -24 24 C-23.01 24 -22.02 24 -21 24 C-21 23.01 -21 22.02 -21 21 C-22.32 21 -23.64 21 -25 21 C-25 19.68 -25 18.36 -25 17 C-23.68 17 -22.36 17 -21 17 C-21 17.99 -21 18.98 -21 20 C-20.01 20 -19.02 20 -18 20 C-18 19.01 -18 18.02 -18 17 C-16.68 17 -15.36 17 -14 17 C-14 18.32 -14 19.64 -14 21 C-15.32 21 -16.64 21 -18 21 C-18 21.99 -18 22.98 -18 24 C-16.68 24 -15.36 24 -14 24 C-14 24.99 -14 25.98 -14 27 C-13.01 27 -12.02 27 -11 27 C-11 26.01 -11 25.02 -11 24 C-9.68 24 -8.36 24 -7 24 C-7 24.99 -7 25.98 -7 27 C-6.01 27 -5.02 27 -4 27 C-4 26.01 -4 25.02 -4 24 C-3.01 24 -2.02 24 -1 24 C-1 23.01 -1 22.02 -1 21 C-1.99 21 -2.98 21 -4 21 C-4 19.68 -4 18.36 -4 17 C-3.01 17 -2.02 17 -1 17 C-1 16.01 -1 15.02 -1 14 C-1.99 14 -2.98 14 -4 14 C-4 12.68 -4 11.36 -4 10 C-3.01 10 -2.02 10 -1 10 C-1 9.01 -1 8.02 -1 7 C-1.99 7 -2.98 7 -4 7 C-4 6.01 -4 5.02 -4 4 C-3.01 3.67 -2.02 3.34 -1 3 C-0.67 2.01 -0.34 1.02 0 0 Z " fill="#EFEFEF" transform="translate(35,38)"/>
<path d="M0 0 C0.99 0 1.98 0 3 0 C3 0.99 3 1.98 3 3 C3.99 3 4.98 3 6 3 C6 3.99 6 4.98 6 6 C7.32 6 8.64 6 10 6 C10.66 8.31 11.32 10.62 12 13 C11.34 13 10.68 13 10 13 C10 14.32 10 15.64 10 17 C10.99 17 11.98 17 13 17 C13 17.99 13 18.98 13 20 C12.01 20 11.02 20 10 20 C9.67 21.32 9.34 22.64 9 24 C8.01 24 7.02 24 6 24 C6 22.68 6 21.36 6 20 C6.99 20 7.98 20 9 20 C9 19.01 9 18.02 9 17 C8.01 17 7.02 17 6 17 C6 15.68 6 14.36 6 13 C5.01 13 4.02 13 3 13 C2.67 14.32 2.34 15.64 2 17 C1.01 17 0.02 17 -1 17 C-1 17.99 -1 18.98 -1 20 C-1.99 20 -2.98 20 -4 20 C-4 19.01 -4 18.02 -4 17 C-5.32 17 -6.64 17 -8 17 C-8 15.68 -8 14.36 -8 13 C-4.7 13 -1.4 13 2 13 C2 12.01 2 11.02 2 10 C1.01 10 0.02 10 -1 10 C-1 8.68 -1 7.36 -1 6 C-1.99 6 -2.98 6 -4 6 C-4 7.32 -4 8.64 -4 10 C-5.32 10 -6.64 10 -8 10 C-8 8.68 -8 7.36 -8 6 C-8.99 6 -9.98 6 -11 6 C-11 5.01 -11 4.02 -11 3 C-10.01 3 -9.02 3 -8 3 C-8 2.34 -8 1.68 -8 1 C-6.68 1 -5.36 1 -4 1 C-4 1.66 -4 2.32 -4 3 C-3.01 3 -2.02 3 -1 3 C-0.67 2.01 -0.34 1.02 0 0 Z " fill="#EEEEED" transform="translate(25,173)"/>
<path d="M0 0 C3.63 0 7.26 0 11 0 C10.67 1.32 10.34 2.64 10 4 C9.01 4 8.02 4 7 4 C7 4.99 7 5.98 7 7 C7.99 7 8.98 7 10 7 C9.67 8.32 9.34 9.64 9 11 C8.34 11 7.68 11 7 11 C7 11.99 7 12.98 7 14 C7.99 14 8.98 14 10 14 C10 13.01 10 12.02 10 11 C11.32 11 12.64 11 14 11 C14 11.99 14 12.98 14 14 C14.99 14 15.98 14 17 14 C17 14.99 17 15.98 17 17 C16.01 17 15.02 17 14 17 C14 18.32 14 19.64 14 21 C12.68 21 11.36 21 10 21 C10 21.99 10 22.98 10 24 C9.01 24 8.02 24 7 24 C7 24.99 7 25.98 7 27 C6.01 27 5.02 27 4 27 C4 26.01 4 25.02 4 24 C2.68 24 1.36 24 0 24 C0 23.01 0 22.02 0 21 C0.99 21 1.98 21 3 21 C3 19.68 3 18.36 3 17 C2.01 17 1.02 17 0 17 C0 16.01 0 15.02 0 14 C0.99 14 1.98 14 3 14 C3 12.68 3 11.36 3 10 C2.01 10 1.02 10 0 10 C0 9.01 0 8.02 0 7 C0.99 7 1.98 7 3 7 C3 6.01 3 5.02 3 4 C2.01 3.67 1.02 3.34 0 3 C0 2.01 0 1.02 0 0 Z " fill="#EEEEEE" transform="translate(24,0)"/>
<path d="M0 0 C0.99 0 1.98 0 3 0 C3 0.99 3 1.98 3 3 C2.01 3.495 2.01 3.495 1 4 C0.67 4.99 0.34 5.98 0 7 C0.99 7 1.98 7 3 7 C3 6.01 3 5.02 3 4 C3.99 3.67 4.98 3.34 6 3 C6.33 2.01 6.66 1.02 7 0 C7.99 0 8.98 0 10 0 C10 0.99 10 1.98 10 3 C11.32 2.67 12.64 2.34 14 2 C14 3.65 14 5.3 14 7 C14.99 7 15.98 7 17 7 C17 7.99 17 8.98 17 10 C18.65 9.67 20.3 9.34 22 9 C21.34 9.99 20.68 10.98 20 12 C16.92724609 12.34057617 16.92724609 12.34057617 13.0234375 12.29296875 C12.33819 12.28872391 11.6529425 12.28447906 10.94692993 12.28010559 C8.75588871 12.26329753 6.56576368 12.22564405 4.375 12.1875 C2.89063827 12.17245579 1.40626215 12.15876693 -0.078125 12.14648438 C-3.71904833 12.1133879 -7.35943478 12.06159207 -11 12 C-11 11.34 -11 10.68 -11 10 C-9.68 10 -8.36 10 -7 10 C-7 9.34 -7 8.68 -7 8 C-5.35511706 6.31183067 -3.68662458 4.64646685 -2 3 C-1.34 2.01 -0.68 1.02 0 0 Z " fill="#F0F0F0" transform="translate(97,231)"/>
<path d="M0 0 C1.32 0 2.64 0 4 0 C4 0.99 4 1.98 4 3 C4.99 3 5.98 3 7 3 C7 10.92 7 18.84 7 27 C6.01 27 5.02 27 4 27 C4 26.01 4 25.02 4 24 C2.68 24 1.36 24 0 24 C0 24.99 0 25.98 0 27 C-0.99 27 -1.98 27 -3 27 C-3 26.01 -3 25.02 -3 24 C-4.32 24 -5.64 24 -7 24 C-7 23.01 -7 22.02 -7 21 C-6.01 20.67 -5.02 20.34 -4 20 C-3.67 19.01 -3.34 18.02 -3 17 C-2.01 17 -1.02 17 0 17 C0 16.01 0 15.02 0 14 C0.99 13.67 1.98 13.34 3 13 C3.33 12.01 3.66 11.02 4 10 C2.68 10 1.36 10 0 10 C0 9.01 0 8.02 0 7 C-0.99 7 -1.98 7 -3 7 C-3 6.01 -3 5.02 -3 4 C-2.34 3.67 -1.68 3.34 -1 3 C-0.67 2.01 -0.34 1.02 0 0 Z " fill="#F6F6F5" transform="translate(200,207)"/>
<path d="M0 0 C1.32 0 2.64 0 4 0 C5.8630137 11.4109589 5.8630137 11.4109589 4 17 C3.01 17 2.02 17 1 17 C1 17.99 1 18.98 1 20 C1.99 20 2.98 20 4 20 C4 21.32 4 22.64 4 24 C3.01 24 2.02 24 1 24 C1 24.99 1 25.98 1 27 C1.99 27 2.98 27 4 27 C4 27.99 4 28.98 4 30 C2.68 30 1.36 30 0 30 C0 31.32 0 32.64 0 34 C-0.99 34 -1.98 34 -3 34 C-4.125 27.375 -4.125 27.375 -3 24 C-2.01 24 -1.02 24 0 24 C0 22.68 0 21.36 0 20 C-0.99 20 -1.98 20 -3 20 C-4.8630137 8.5890411 -4.8630137 8.5890411 -3 3 C-2.01 3 -1.02 3 0 3 C0 2.01 0 1.02 0 0 Z " fill="#EEEEEE" transform="translate(103,197)"/>
<path d="M0 0 C0.99 0 1.98 0 3 0 C3 0.99 3 1.98 3 3 C3.99 3 4.98 3 6 3 C6 2.01 6 1.02 6 0 C7.32 0 8.64 0 10 0 C10 0.99 10 1.98 10 3 C10.99 3 11.98 3 13 3 C13 2.01 13 1.02 13 0 C14.32 0 15.64 0 17 0 C17 3.3 17 6.6 17 10 C16.01 10 15.02 10 14 10 C14 9.01 14 8.02 14 7 C12.68 7 11.36 7 10 7 C10 7.99 10 8.98 10 10 C9.01 10 8.02 10 7 10 C7 11.32 7 12.64 7 14 C5.68 14 4.36 14 3 14 C3 12.68 3 11.36 3 10 C2.01 10 1.02 10 0 10 C0 9.01 0 8.02 0 7 C-1.32 7 -2.64 7 -4 7 C-4 6.01 -4 5.02 -4 4 C-3.01 3.67 -2.02 3.34 -1 3 C-0.67 2.01 -0.34 1.02 0 0 Z " fill="#F6F6F6" transform="translate(190,38)"/>
<path d="M0 0 C0.99 0 1.98 0 3 0 C3 5.61 3 11.22 3 17 C2.01 17 1.02 17 0 17 C0 16.01 0 15.02 0 14 C-1.32 14 -2.64 14 -4 14 C-4 14.99 -4 15.98 -4 17 C-4.99 17 -5.98 17 -7 17 C-7 16.01 -7 15.02 -7 14 C-8.32 14 -9.64 14 -11 14 C-11 13.01 -11 12.02 -11 11 C-10.01 10.67 -9.02 10.34 -8 10 C-7.67 9.01 -7.34 8.02 -7 7 C-6.01 7 -5.02 7 -4 7 C-4 6.01 -4 5.02 -4 4 C-3.01 3.67 -2.02 3.34 -1 3 C-0.67 2.01 -0.34 1.02 0 0 Z " fill="#F6F6F5" transform="translate(204,17)"/>
<path d="M0 0 C1.32 0 2.64 0 4 0 C4 0.99 4 1.98 4 3 C3.01 3 2.02 3 1 3 C1 3.99 1 4.98 1 6 C1.99 6.33 2.98 6.66 4 7 C4 7.99 4 8.98 4 10 C2.68 10 1.36 10 0 10 C0 10.99 0 11.98 0 13 C-0.99 13 -1.98 13 -3 13 C-3 12.01 -3 11.02 -3 10 C-4.32 10 -5.64 10 -7 10 C-7 10.99 -7 11.98 -7 13 C-7.99 13 -8.98 13 -10 13 C-10 12.01 -10 11.02 -10 10 C-10.99 10 -11.98 10 -13 10 C-13.33 10.99 -13.66 11.98 -14 13 C-14.99 13 -15.98 13 -17 13 C-17 12.01 -17 11.02 -17 10 C-16.01 10 -15.02 10 -14 10 C-14 8.68 -14 7.36 -14 6 C-12.68 6 -11.36 6 -10 6 C-10 5.01 -10 4.02 -10 3 C-8.68 3 -7.36 3 -6 3 C-6 3.99 -6 4.98 -6 6 C-5.01 6 -4.02 6 -3 6 C-3 5.01 -3 4.02 -3 3 C-2.01 3 -1.02 3 0 3 C0 2.01 0 1.02 0 0 Z " fill="#F8F8F8" transform="translate(48,228)"/>
<path d="M0 0 C0.99 0 1.98 0 3 0 C3 1.32 3 2.64 3 4 C4.32 4 5.64 4 7 4 C7 2.68 7 1.36 7 0 C7.99 0 8.98 0 10 0 C10 1.32 10 2.64 10 4 C10.99 4 11.98 4 13 4 C13 4.99 13 5.98 13 7 C9.7 7 6.4 7 3 7 C3 8.32 3 9.64 3 11 C4.32 11 5.64 11 7 11 C7 11.99 7 12.98 7 14 C5.68 14 4.36 14 3 14 C3 14.99 3 15.98 3 17 C2.01 17 1.02 17 0 17 C0 16.01 0 15.02 0 14 C-1.32 14 -2.64 14 -4 14 C-4 13.01 -4 12.02 -4 11 C-2.68 11 -1.36 11 0 11 C0 9.68 0 8.36 0 7 C-1.32 7 -2.64 7 -4 7 C-4 6.01 -4 5.02 -4 4 C-2.68 4 -1.36 4 0 4 C0 2.68 0 1.36 0 0 Z " fill="#F8F8F7" transform="translate(14,179)"/>
<path d="M0 0 C3.96 0 7.92 0 12 0 C12 3.3 12 6.6 12 10 C10.35 10 8.7 10 7 10 C7 10.99 7 11.98 7 13 C6.01 13 5.02 13 4 13 C4 12.01 4 11.02 4 10 C2.68 10 1.36 10 0 10 C0 9.01 0 8.02 0 7 C1.32 7 2.64 7 4 7 C4 5.68 4 4.36 4 3 C2.68 3 1.36 3 0 3 C0 2.01 0 1.02 0 0 Z " fill="#F5F5F4" transform="translate(48,214)"/>
<path d="M0 0 C0.99 0 1.98 0 3 0 C3 1.32 3 2.64 3 4 C3.99 4 4.98 4 6 4 C6 4.99 6 5.98 6 7 C5.01 7 4.02 7 3 7 C3 8.32 3 9.64 3 11 C3.99 11 4.98 11 6 11 C6 11.99 6 12.98 6 14 C5.01 14 4.02 14 3 14 C3 14.99 3 15.98 3 17 C2.01 17 1.02 17 0 17 C0 16.01 0 15.02 0 14 C-1.32 14 -2.64 14 -4 14 C-4 12.68 -4 11.36 -4 10 C-3.01 10 -2.02 10 -1 10 C-1 9.01 -1 8.02 -1 7 C-1.99 7 -2.98 7 -4 7 C-4 6.01 -4 5.02 -4 4 C-3.01 3.67 -2.02 3.34 -1 3 C-0.67 2.01 -0.34 1.02 0 0 Z " fill="#ECECEC" transform="translate(166,217)"/>
<path d="M0 0 C0.99 0 1.98 0 3 0 C3 0.99 3 1.98 3 3 C4.32 3 5.64 3 7 3 C7 2.01 7 1.02 7 0 C7.99 0 8.98 0 10 0 C10 0.99 10 1.98 10 3 C10.99 3 11.98 3 13 3 C13 2.01 13 1.02 13 0 C14.32 0 15.64 0 17 0 C17 0.99 17 1.98 17 3 C17.99 3 18.98 3 20 3 C20 2.01 20 1.02 20 0 C21.32 0 22.64 0 24 0 C24 1.65 24 3.3 24 5 C14.76 5 5.52 5 -4 5 C-4 4.34 -4 3.68 -4 3 C-2.68 3 -1.36 3 0 3 C0 2.01 0 1.02 0 0 Z " fill="#F7F7F6" transform="translate(183,238)"/>
<path d="M0 0 C2 2 2 2 2.3125 4.9375 C2 8 2 8 0.8125 9.9375 C-1 11 -1 11 -3.5625 10.8125 C-6 10 -6 10 -8 8 C-8.3125 5 -8.3125 5 -8 2 C-4.77626323 -0.14915785 -3.73296326 -0.38286803 0 0 Z " fill="#FAFCF7" transform="translate(136,44)"/>
<path d="M0 0 C6.57692308 0.57692308 6.57692308 0.57692308 8 2 C8.45691383 7.25450902 8.45691383 7.25450902 6.8125 9.9375 C5 11 5 11 2.4375 10.8125 C0 10 0 10 -2 8 C-2.25 5 -2.25 5 -2 2 C-1.34 1.34 -0.68 0.68 0 0 Z " fill="#FAFCF7" transform="translate(71,44)"/>
<path d="M0 0 C0.99 0 1.98 0 3 0 C3.33 0.66 3.66 1.32 4 2 C4.99 2.33 5.98 2.66 7 3 C7 2.01 7 1.02 7 0 C7.99 0 8.98 0 10 0 C10 1.32 10 2.64 10 4 C11.32 4 12.64 4 14 4 C14 4.99 14 5.98 14 7 C12.68 7 11.36 7 10 7 C10 7.99 10 8.98 10 10 C9.01 10 8.02 10 7 10 C7 9.01 7 8.02 7 7 C5.68 7 4.36 7 3 7 C3 7.99 3 8.98 3 10 C2.01 10 1.02 10 0 10 C0 6.7 0 3.4 0 0 Z " fill="#F7F7F7" transform="translate(0,193)"/>
<path d="M0 0 C1.32 0 2.64 0 4 0 C4 0.99 4 1.98 4 3 C3.01 3 2.02 3 1 3 C0.67 4.32 0.34 5.64 0 7 C-0.99 7 -1.98 7 -3 7 C-3 7.99 -3 8.98 -3 10 C-3.99 10 -4.98 10 -6 10 C-6.33 11.32 -6.66 12.64 -7 14 C-7.99 14 -8.98 14 -10 14 C-10 14.99 -10 15.98 -10 17 C-10.99 17 -11.98 17 -13 17 C-13 15.68 -13 14.36 -13 13 C-12.01 13 -11.02 13 -10 13 C-10 12.01 -10 11.02 -10 10 C-9.01 10 -8.02 10 -7 10 C-7 9.01 -7 8.02 -7 7 C-7.99 7 -8.98 7 -10 7 C-10 5.68 -10 4.36 -10 3 C-8.68 3 -7.36 3 -6 3 C-6 3.99 -6 4.98 -6 6 C-5.01 6 -4.02 6 -3 6 C-3 5.01 -3 4.02 -3 3 C-2.01 3 -1.02 3 0 3 C0 2.01 0 1.02 0 0 Z " fill="#FAFAFA" transform="translate(172,21)"/>
<path d="M0 0 C0.99 0 1.98 0 3 0 C3 0.99 3 1.98 3 3 C3.99 2.67 4.98 2.34 6 2 C6.33 1.34 6.66 0.68 7 0 C7.99 0 8.98 0 10 0 C10 0.99 10 1.98 10 3 C9.01 3 8.02 3 7 3 C7 4.32 7 5.64 7 7 C7.99 7 8.98 7 10 7 C10 7.99 10 8.98 10 10 C8.68 10 7.36 10 6 10 C6 9.01 6 8.02 6 7 C5.01 7 4.02 7 3 7 C3 7.99 3 8.98 3 10 C2.01 10 1.02 10 0 10 C0 9.01 0 8.02 0 7 C-1.32 7 -2.64 7 -4 7 C-4 6.01 -4 5.02 -4 4 C-3.01 3.67 -2.02 3.34 -1 3 C-0.67 2.01 -0.34 1.02 0 0 Z " fill="#F9F9F9" transform="translate(4,31)"/>
<path d="M0 0 C0.99 0 1.98 0 3 0 C3 1.32 3 2.64 3 4 C3.99 4 4.98 4 6 4 C6 4.99 6 5.98 6 7 C5.01 7 4.02 7 3 7 C3 7.99 3 8.98 3 10 C3.99 10 4.98 10 6 10 C6 11.32 6 12.64 6 14 C5.01 14 4.02 14 3 14 C3 13.01 3 12.02 3 11 C1.68 11 0.36 11 -1 11 C-1 11.99 -1 12.98 -1 14 C-1.99 14 -2.98 14 -4 14 C-4 13.01 -4 12.02 -4 11 C-3.34 10.67 -2.68 10.34 -2 10 C-1.67 9.01 -1.34 8.02 -1 7 C-1.99 7 -2.98 7 -4 7 C-4 6.01 -4 5.02 -4 4 C-3.01 3.67 -2.02 3.34 -1 3 C-0.67 2.01 -0.34 1.02 0 0 Z " fill="#F9F9F9" transform="translate(173,0)"/>
<path d="M0 0 C0.99 0 1.98 0 3 0 C3 1.32 3 2.64 3 4 C3.99 4 4.98 4 6 4 C6 4.99 6 5.98 6 7 C5.01 7 4.02 7 3 7 C3 7.99 3 8.98 3 10 C3.99 10 4.98 10 6 10 C6 11.32 6 12.64 6 14 C5.01 14 4.02 14 3 14 C3 13.01 3 12.02 3 11 C1.68 11 0.36 11 -1 11 C-1 11.99 -1 12.98 -1 14 C-1.99 14 -2.98 14 -4 14 C-4 13.01 -4 12.02 -4 11 C-3.34 10.67 -2.68 10.34 -2 10 C-1.67 9.01 -1.34 8.02 -1 7 C-1.99 7 -2.98 7 -4 7 C-4 6.01 -4 5.02 -4 4 C-3.01 3.67 -2.02 3.34 -1 3 C-0.67 2.01 -0.34 1.02 0 0 Z " fill="#F9F9F9" transform="translate(35,0)"/>
<path d="M0 0 C0.99 0 1.98 0 3 0 C3 0.99 3 1.98 3 3 C4.32 3 5.64 3 7 3 C7 2.01 7 1.02 7 0 C7.99 0 8.98 0 10 0 C10.33 0.99 10.66 1.98 11 3 C11.66 3.33 12.32 3.66 13 4 C13 4.99 13 5.98 13 7 C12.01 7 11.02 7 10 7 C10 7.99 10 8.98 10 10 C9.01 10 8.02 10 7 10 C7 9.01 7 8.02 7 7 C5.68 7 4.36 7 3 7 C3 6.01 3 5.02 3 4 C2.01 4 1.02 4 0 4 C0 2.68 0 1.36 0 0 Z " fill="#ECECEB" transform="translate(183,193)"/>
<path d="M0 0 C0.99 0 1.98 0 3 0 C3 0.99 3 1.98 3 3 C3.99 3 4.98 3 6 3 C6 4.32 6 5.64 6 7 C5.01 7 4.02 7 3 7 C3 7.99 3 8.98 3 10 C2.01 10 1.02 10 0 10 C0 9.01 0 8.02 0 7 C-1.32 7 -2.64 7 -4 7 C-4 6.01 -4 5.02 -4 4 C-3.01 3.67 -2.02 3.34 -1 3 C-0.67 2.01 -0.34 1.02 0 0 Z M6 0 C7.32 0 8.64 0 10 0 C10 0.99 10 1.98 10 3 C8.68 3 7.36 3 6 3 C6 2.01 6 1.02 6 0 Z " fill="#F9F9F8" transform="translate(159,200)"/>
<path d="M0 0 C0.99 0 1.98 0 3 0 C3 1.32 3 2.64 3 4 C3.99 4 4.98 4 6 4 C6 4.99 6 5.98 6 7 C5.01 7 4.02 7 3 7 C3 7.99 3 8.98 3 10 C1.68 10 0.36 10 -1 10 C-1 9.01 -1 8.02 -1 7 C-1.99 7 -2.98 7 -4 7 C-4 6.01 -4 5.02 -4 4 C-3.01 3.67 -2.02 3.34 -1 3 C-0.67 2.01 -0.34 1.02 0 0 Z M-4 10 C-3.01 10 -2.02 10 -1 10 C-1 11.32 -1 12.64 -1 14 C-1.99 14 -2.98 14 -4 14 C-4 12.68 -4 11.36 -4 10 Z " fill="#F9F9F9" transform="translate(180,193)"/>
<path d="M0 0 C0.99 0 1.98 0 3 0 C3 1.32 3 2.64 3 4 C4.32 4 5.64 4 7 4 C7 4.99 7 5.98 7 7 C5.68 7 4.36 7 3 7 C3 7.99 3 8.98 3 10 C2.01 10 1.02 10 0 10 C0 9.01 0 8.02 0 7 C-1.32 7 -2.64 7 -4 7 C-4 5.68 -4 4.36 -4 3 C-2.68 3 -1.36 3 0 3 C0 2.01 0 1.02 0 0 Z " fill="#ECECEB" transform="translate(183,55)"/>
<path d="M0 0 C0.99 0 1.98 0 3 0 C3 1.32 3 2.64 3 4 C3.99 4 4.98 4 6 4 C6 4.99 6 5.98 6 7 C5.01 7 4.02 7 3 7 C3 7.99 3 8.98 3 10 C2.01 10 1.02 10 0 10 C-0.33 9.34 -0.66 8.68 -1 8 C-1.99 7.67 -2.98 7.34 -4 7 C-4 5.68 -4 4.36 -4 3 C-3.01 3 -2.02 3 -1 3 C-0.67 2.01 -0.34 1.02 0 0 Z " fill="#F8F8F7" transform="translate(4,17)"/>
<path d="M0 0 C1.32 0 2.64 0 4 0 C4.33 0.99 4.66 1.98 5 3 C5.66 3.33 6.32 3.66 7 4 C7 4.99 7 5.98 7 7 C6.01 7 5.02 7 4 7 C4 7.99 4 8.98 4 10 C3.01 10 2.02 10 1 10 C1 9.01 1 8.02 1 7 C-0.32 7 -1.64 7 -3 7 C-2.67 5.68 -2.34 4.36 -2 3 C-1.34 3 -0.68 3 0 3 C0 2.01 0 1.02 0 0 Z " fill="#F8F8F7" transform="translate(89,0)"/>
<path d="M0 0 C0.99 0 1.98 0 3 0 C3 0.99 3 1.98 3 3 C3.99 3 4.98 3 6 3 C6 4.32 6 5.64 6 7 C5.01 7 4.02 7 3 7 C3 7.99 3 8.98 3 10 C2.01 10 1.02 10 0 10 C0 9.01 0 8.02 0 7 C-0.99 7 -1.98 7 -3 7 C-3 5.68 -3 4.36 -3 3 C-2.01 3 -1.02 3 0 3 C0 2.01 0 1.02 0 0 Z " fill="#ECECEC" transform="translate(190,62)"/>
<path d="M0 0 C0.99 0 1.98 0 3 0 C3 1.32 3 2.64 3 4 C4.32 4 5.64 4 7 4 C7 4.99 7 5.98 7 7 C5.68 7 4.36 7 3 7 C3 7.99 3 8.98 3 10 C2.01 10 1.02 10 0 10 C0 9.01 0 8.02 0 7 C-1.32 7 -2.64 7 -4 7 C-4 6.01 -4 5.02 -4 4 C-2.68 4 -1.36 4 0 4 C0 2.68 0 1.36 0 0 Z " fill="#F8F8F8" transform="translate(14,48)"/>
<path d="M0 0 C2.31 0 4.62 0 7 0 C7 2.31 7 4.62 7 7 C6.01 7 5.02 7 4 7 C4 7.99 4 8.98 4 10 C2.68 10 1.36 10 0 10 C0 9.01 0 8.02 0 7 C0.99 7 1.98 7 3 7 C2.67 6.01 2.34 5.02 2 4 C1.34 3.67 0.68 3.34 0 3 C0 2.01 0 1.02 0 0 Z " fill="#F7F7F7" transform="translate(200,0)"/>
<path d="M0 0 C0.99 0 1.98 0 3 0 C3 0.99 3 1.98 3 3 C3.66 3.33 4.32 3.66 5 4 C4.01 4.495 4.01 4.495 3 5 C2.01 4.67 1.02 4.34 0 4 C0 4.99 0 5.98 0 7 C0.66 7.33 1.32 7.66 2 8 C1.01 9.98 0.02 11.96 -1 14 C-1.99 14 -2.98 14 -4 14 C-4 12.68 -4 11.36 -4 10 C-3.01 10 -2.02 10 -1 10 C-1 9.01 -1 8.02 -1 7 C-1.99 7 -2.98 7 -4 7 C-4 6.01 -4 5.02 -4 4 C-3.01 3.67 -2.02 3.34 -1 3 C-0.67 2.01 -0.34 1.02 0 0 Z " fill="#EAEAEA" transform="translate(42,38)"/>
<path d="M0 0 C1.32 0 2.64 0 4 0 C4 0.99 4 1.98 4 3 C4.99 3 5.98 3 7 3 C7 2.01 7 1.02 7 0 C8.32 0 9.64 0 11 0 C11.33 1.65 11.66 3.3 12 5 C10.35 4.67 8.7 4.34 7 4 C7 4.99 7 5.98 7 7 C6.01 7 5.02 7 4 7 C4 6.01 4 5.02 4 4 C2.68 4 1.36 4 0 4 C0 2.68 0 1.36 0 0 Z " fill="#EBEBEA" transform="translate(48,24)"/>
<path d="M0 0 C3.3 0 6.6 0 10 0 C10 0.99 10 1.98 10 3 C9.01 3.495 9.01 3.495 8 4 C7.67 4.99 7.34 5.98 7 7 C6.01 7 5.02 7 4 7 C4 6.01 4 5.02 4 4 C2.68 3.67 1.36 3.34 0 3 C0 2.01 0 1.02 0 0 Z " fill="#EEEEED" transform="translate(148,0)"/>
<path d="M0 0 C0.99 0 1.98 0 3 0 C3 1.32 3 2.64 3 4 C3.99 4 4.98 4 6 4 C6 4.99 6 5.98 6 7 C2.7 7 -0.6 7 -4 7 C-4 6.01 -4 5.02 -4 4 C-2.68 4 -1.36 4 0 4 C0 2.68 0 1.36 0 0 Z " fill="#F8F8F7" transform="translate(197,10)"/>
<path d="M0 0 C0.99 0 1.98 0 3 0 C3 0.99 3 1.98 3 3 C3.99 3 4.98 3 6 3 C6 2.01 6 1.02 6 0 C7.32 0 8.64 0 10 0 C10 1.32 10 2.64 10 4 C8.68 4 7.36 4 6 4 C6 4.99 6 5.98 6 7 C5.01 7 4.02 7 3 7 C3 6.01 3 5.02 3 4 C2.01 3.67 1.02 3.34 0 3 C0 2.01 0 1.02 0 0 Z " fill="#EAEAE9" transform="translate(42,31)"/>
<path d="M0 0 C1.32 0 2.64 0 4 0 C4 0.99 4 1.98 4 3 C4.99 3 5.98 3 7 3 C7 2.01 7 1.02 7 0 C7.99 0 8.98 0 10 0 C9.67 1.32 9.34 2.64 9 4 C8.34 4 7.68 4 7 4 C7 4.99 7 5.98 7 7 C5.68 7 4.36 7 3 7 C3 5.68 3 4.36 3 3 C2.01 3 1.02 3 0 3 C0 2.01 0 1.02 0 0 Z " fill="#EAEAE9" transform="translate(93,7)"/>
<path d="M0 0 C1.32 0 2.64 0 4 0 C4 0.99 4 1.98 4 3 C4.99 3 5.98 3 7 3 C7 4.32 7 5.64 7 7 C6.01 7.33 5.02 7.66 4 8 C3.67 8.66 3.34 9.32 3 10 C2.01 10 1.02 10 0 10 C0 9.01 0 8.02 0 7 C0.99 7 1.98 7 3 7 C3 5.68 3 4.36 3 3 C2.01 3 1.02 3 0 3 C0 2.01 0 1.02 0 0 Z " fill="#E9E9E8" transform="translate(176,214)"/>
<path d="M0 0 C1.32 0 2.64 0 4 0 C4 0.99 4 1.98 4 3 C4.99 3 5.98 3 7 3 C7 4.32 7 5.64 7 7 C6.01 7.33 5.02 7.66 4 8 C3.67 8.66 3.34 9.32 3 10 C2.01 10 1.02 10 0 10 C0 9.01 0 8.02 0 7 C0.99 7 1.98 7 3 7 C3 5.68 3 4.36 3 3 C2.01 3 1.02 3 0 3 C0 2.01 0 1.02 0 0 Z " fill="#E9E9E8" transform="translate(38,214)"/>
<path d="M0 0 C0 0.99 0 1.98 0 3 C-0.99 3 -1.98 3 -3 3 C-3.33 4.32 -3.66 5.64 -4 7 C-4.99 7 -5.98 7 -7 7 C-7 7.99 -7 8.98 -7 10 C-7.99 10 -8.98 10 -10 10 C-10 9.01 -10 8.02 -10 7 C-10.99 6.67 -11.98 6.34 -13 6 C-11.02 6 -9.04 6 -7 6 C-6.67 5.01 -6.34 4.02 -6 3 C-2.55555556 0 -2.55555556 0 0 0 Z " fill="#EAEAE9" transform="translate(169,190)"/>
<path d="M0 0 C1.32 0 2.64 0 4 0 C4 0.99 4 1.98 4 3 C4.99 3 5.98 3 7 3 C7 3.99 7 4.98 7 6 C5.68 6 4.36 6 3 6 C3 5.01 3 4.02 3 3 C2.01 3 1.02 3 0 3 C0 2.01 0 1.02 0 0 Z M0 6 C0.99 6 1.98 6 3 6 C3 7.32 3 8.64 3 10 C2.01 10 1.02 10 0 10 C0 8.68 0 7.36 0 6 Z " fill="#E9E9E8" transform="translate(176,173)"/>
<path d="M0 0 C2.99324263 1.0975223 3.84610901 1.67682892 5.25 4.625 C5.4975 5.40875 5.745 6.1925 6 7 C5.34 7 4.68 7 4 7 C4 8.32 4 9.64 4 11 C2.68 11 1.36 11 0 11 C0 9.68 0 8.36 0 7 C0.99 7 1.98 7 3 7 C3 6.01 3 5.02 3 4 C2.01 4 1.02 4 0 4 C0 2.68 0 1.36 0 0 Z " fill="#ECECEB" transform="translate(55,10)"/>
<path d="M0 0 C0.99 0 1.98 0 3 0 C3 0.99 3 1.98 3 3 C3.99 3 4.98 3 6 3 C6 4.32 6 5.64 6 7 C5.01 7 4.02 7 3 7 C3 6.01 3 5.02 3 4 C2.34 4 1.68 4 1 4 C0.67 2.68 0.34 1.36 0 0 Z M6 0 C7.32 0 8.64 0 10 0 C10 0.99 10 1.98 10 3 C8.68 3 7.36 3 6 3 C6 2.01 6 1.02 6 0 Z " fill="#E9E9E8" transform="translate(159,38)"/>
<path d="M0 0 C0.99 0 1.98 0 3 0 C3 1.32 3 2.64 3 4 C2.01 4 1.02 4 0 4 C0 4.99 0 5.98 0 7 C-1.98 7.33 -3.96 7.66 -6 8 C-5.34 7.67 -4.68 7.34 -4 7 C-4 5.68 -4 4.36 -4 3 C-2.68 3 -1.36 3 0 3 C0 2.01 0 1.02 0 0 Z " fill="#EBEBEA" transform="translate(31,69)"/>
<path d="M0 0 C1.32 0 2.64 0 4 0 C4 1.32 4 2.64 4 4 C4.99 4 5.98 4 7 4 C7 4.99 7 5.98 7 7 C5.35 7.33 3.7 7.66 2 8 C2.33 6.68 2.66 5.36 3 4 C2.01 4 1.02 4 0 4 C0 2.68 0 1.36 0 0 Z " fill="#EBEBEA" transform="translate(76,10)"/>
<path d="M0 0 C0 0.99 0 1.98 0 3 C-0.99 3 -1.98 3 -3 3 C-3.33 4.32 -3.66 5.64 -4 7 C-5.98 7.33 -7.96 7.66 -10 8 C-10 7.34 -10 6.68 -10 6 C-9.01 6 -8.02 6 -7 6 C-7 5.34 -7 4.68 -7 4 C-2.52941176 0 -2.52941176 0 0 0 Z " fill="#EBEBEA" transform="translate(145,235)"/>
<path d="M0 0 C1.32 0 2.64 0 4 0 C4 2.64 4 5.28 4 8 C2.68 7.67 1.36 7.34 0 7 C0 4.69 0 2.38 0 0 Z " fill="#F2F2F2" transform="translate(0,76)"/>
<path d="M0 0 C1.32 0 2.64 0 4 0 C4 1.32 4 2.64 4 4 C3.01 4 2.02 4 1 4 C1 4.99 1 5.98 1 7 C-0.32 7 -1.64 7 -3 7 C-3 6.01 -3 5.02 -3 4 C-2.01 4 -1.02 4 0 4 C0 2.68 0 1.36 0 0 Z " fill="#FAFAFA" transform="translate(10,203)"/>
<path d="M0 0 C1.32 0 2.64 0 4 0 C4 0.99 4 1.98 4 3 C4.99 3 5.98 3 7 3 C7 4.32 7 5.64 7 7 C5.68 7 4.36 7 3 7 C3 5.68 3 4.36 3 3 C2.01 3 1.02 3 0 3 C0 2.01 0 1.02 0 0 Z " fill="#EBEBEA" transform="translate(0,176)"/>
<path d="M0 0 C1.32 0 2.64 0 4 0 C3.67 1.32 3.34 2.64 3 4 C2.01 4 1.02 4 0 4 C0 4.99 0 5.98 0 7 C-0.99 7 -1.98 7 -3 7 C-3 5.68 -3 4.36 -3 3 C-2.01 3 -1.02 3 0 3 C0 2.01 0 1.02 0 0 Z " fill="#FBFBFB" transform="translate(162,231)"/>
<path d="M0 0 C1.32 0 2.64 0 4 0 C3.67 1.32 3.34 2.64 3 4 C2.01 4 1.02 4 0 4 C0 4.99 0 5.98 0 7 C-0.99 7 -1.98 7 -3 7 C-3 5.68 -3 4.36 -3 3 C-2.01 3 -1.02 3 0 3 C0 2.01 0 1.02 0 0 Z " fill="#FBFBFB" transform="translate(24,231)"/>
<path d="M0 0 C1.32 0 2.64 0 4 0 C4 0.99 4 1.98 4 3 C3.01 3 2.02 3 1 3 C0.67 4.32 0.34 5.64 0 7 C-0.99 7 -1.98 7 -3 7 C-3 5.68 -3 4.36 -3 3 C-2.01 3 -1.02 3 0 3 C0 2.01 0 1.02 0 0 Z " fill="#FBFBFB" transform="translate(172,221)"/>
<path d="M0 0 C1.32 0 2.64 0 4 0 C4 0.99 4 1.98 4 3 C3.01 3 2.02 3 1 3 C0.67 4.32 0.34 5.64 0 7 C-0.99 7 -1.98 7 -3 7 C-3 5.68 -3 4.36 -3 3 C-2.01 3 -1.02 3 0 3 C0 2.01 0 1.02 0 0 Z " fill="#FBFBFB" transform="translate(34,221)"/>
<path d="M0 0 C0.99 0 1.98 0 3 0 C2.67 1.32 2.34 2.64 2 4 C1.34 4 0.68 4 0 4 C0 4.99 0 5.98 0 7 C-1.32 7 -2.64 7 -4 7 C-4 5.68 -4 4.36 -4 3 C-2.68 3 -1.36 3 0 3 C0 2.01 0 1.02 0 0 Z " fill="#EAEAE9" transform="translate(197,207)"/>
<path d="M0 0 C1.32 0 2.64 0 4 0 C3.67 1.32 3.34 2.64 3 4 C2.01 4 1.02 4 0 4 C0 4.99 0 5.98 0 7 C-0.99 7 -1.98 7 -3 7 C-3 5.68 -3 4.36 -3 3 C-2.01 3 -1.02 3 0 3 C0 2.01 0 1.02 0 0 Z " fill="#EAEAE9" transform="translate(155,200)"/>
<path d="M0 0 C0.99 0 1.98 0 3 0 C3 0.99 3 1.98 3 3 C4.32 3.33 5.64 3.66 7 4 C7 4.99 7 5.98 7 7 C5.68 7 4.36 7 3 7 C3 6.01 3 5.02 3 4 C2.01 4 1.02 4 0 4 C0 2.68 0 1.36 0 0 Z " fill="#EAEAE9" transform="translate(183,0)"/>
<path d="M0 0 C0.99 0 1.98 0 3 0 C3 0.99 3 1.98 3 3 C4.32 3.33 5.64 3.66 7 4 C7 4.99 7 5.98 7 7 C5.68 7 4.36 7 3 7 C3 6.01 3 5.02 3 4 C2.01 4 1.02 4 0 4 C0 2.68 0 1.36 0 0 Z " fill="#EAEAE9" transform="translate(114,0)"/>
<path d="M0 0 C0.99 0 1.98 0 3 0 C3 0.99 3 1.98 3 3 C4.32 3.33 5.64 3.66 7 4 C7 4.99 7 5.98 7 7 C5.68 7 4.36 7 3 7 C3 6.01 3 5.02 3 4 C2.01 4 1.02 4 0 4 C0 2.68 0 1.36 0 0 Z " fill="#EAEAE9" transform="translate(45,0)"/>
<path d="M0 0 C1.32 0 2.64 0 4 0 C4 1.32 4 2.64 4 4 C4.99 4 5.98 4 7 4 C7 4.99 7 5.98 7 7 C4.20171644 6.61402985 3.1794116 6.19863427 1.25 4.0625 C0 2 0 2 0 0 Z " fill="#EAEAEA" transform="translate(200,79)"/>
<path d="M0 0 C1.32 0 2.64 0 4 0 C4 0.99 4 1.98 4 3 C4.99 3 5.98 3 7 3 C7 3.99 7 4.98 7 6 C5.68 5.67 4.36 5.34 3 5 C3 4.34 3 3.68 3 3 C2.01 3 1.02 3 0 3 C0 2.01 0 1.02 0 0 Z " fill="#E9E9E8" transform="translate(200,45)"/>
<path d="M0 0 C0.99 0 1.98 0 3 0 C3 0.99 3 1.98 3 3 C2.01 3.495 2.01 3.495 1 4 C0.67 4.99 0.34 5.98 0 7 C-1.32 6.67 -2.64 6.34 -4 6 C-2.1875 3 -2.1875 3 0 0 Z " fill="#EAEAE9" transform="translate(97,231)"/>
<path d="M0 0 C1.32 0 2.64 0 4 0 C4 0.99 4 1.98 4 3 C4.99 3 5.98 3 7 3 C7 3.99 7 4.98 7 6 C6.01 6 5.02 6 4 6 C3.67 5.34 3.34 4.68 3 4 C2.01 3.67 1.02 3.34 0 3 C0 2.01 0 1.02 0 0 Z " fill="#E8E8E8" transform="translate(200,183)"/>
<path d="M0 0 C0.99 0 1.98 0 3 0 C3 0.99 3 1.98 3 3 C2.01 3.495 2.01 3.495 1 4 C0.67 4.99 0.34 5.98 0 7 C-0.99 7 -1.98 7 -3 7 C-3 5.68 -3 4.36 -3 3 C-2.01 3 -1.02 3 0 3 C0 2.01 0 1.02 0 0 Z " fill="#E8E8E7" transform="translate(17,69)"/>
<path d="M0 0 C1.32 0 2.64 0 4 0 C4 1.65 4 3.3 4 5 C2.68 5.33 1.36 5.66 0 6 C0 4.02 0 2.04 0 0 Z " fill="#F6F6F6" transform="translate(10,72)"/>
<path d="M0 0 C1.32 0 2.64 0 4 0 C4 0.99 4 1.98 4 3 C3.01 3.33 2.02 3.66 1 4 C0.67 4.66 0.34 5.32 0 6 C-0.99 6 -1.98 6 -3 6 C-3 5.01 -3 4.02 -3 3 C-2.01 3 -1.02 3 0 3 C0 2.01 0 1.02 0 0 Z " fill="#E8E8E8" transform="translate(3,14)"/>
<path d="M0 0 C0.99 0 1.98 0 3 0 C3 0.99 3 1.98 3 3 C2.01 3.495 2.01 3.495 1 4 C0.67 4.99 0.34 5.98 0 7 C-0.99 7 -1.98 7 -3 7 C-3 5.68 -3 4.36 -3 3 C-2.01 3 -1.02 3 0 3 C0 2.01 0 1.02 0 0 Z " fill="#E8E8E7" transform="translate(86,0)"/>
<path d="M0 0 C0.99 0 1.98 0 3 0 C3 0.99 3 1.98 3 3 C2.01 3.495 2.01 3.495 1 4 C0.67 4.99 0.34 5.98 0 7 C-0.99 7 -1.98 7 -3 7 C-3 5.68 -3 4.36 -3 3 C-2.01 3 -1.02 3 0 3 C0 2.01 0 1.02 0 0 Z " fill="#E8E8E7" transform="translate(17,0)"/>
<path d="M0 0 C0.99 0.99 1.98 1.98 3 3 C2.34 3 1.68 3 1 3 C0.67 4.32 0.34 5.64 0 7 C-0.99 7 -1.98 7 -3 7 C-3 5.68 -3 4.36 -3 3 C-2.01 3 -1.02 3 0 3 C0 2.01 0 1.02 0 0 Z " fill="#ECECEB" transform="translate(3,166)"/>
<path d="M0 0 C2.31 0 4.62 0 7 0 C7 0.99 7 1.98 7 3 C4.69 3 2.38 3 0 3 C0 2.01 0 1.02 0 0 Z " fill="#F2F2F2" transform="translate(55,21)"/>
<path d="M0 0 C0.93423645 3.01031744 1.04449911 3.86650268 0 7 C-1.32 7 -2.64 7 -4 7 C-4 5.68 -4 4.36 -4 3 C-2.68 3 -1.36 3 0 3 C0 2.01 0 1.02 0 0 Z " fill="#EBEBEA" transform="translate(59,207)"/>
<path d="M0 0 C0.93423645 3.01031744 1.04449911 3.86650268 0 7 C-1.32 7 -2.64 7 -4 7 C-3.67 5.68 -3.34 4.36 -3 3 C-2.01 3 -1.02 3 0 3 C0 2.01 0 1.02 0 0 Z " fill="#EAEAE9" transform="translate(59,200)"/>
<path d="M0 0 C0.99 0 1.98 0 3 0 C3 0.99 3 1.98 3 3 C3.99 3.33 4.98 3.66 6 4 C4.02 4.33 2.04 4.66 0 5 C0 3.35 0 1.7 0 0 Z " fill="#F6F6F6" transform="translate(52,238)"/>
<path d="M0 0 C1.32 0 2.64 0 4 0 C4 0.99 4 1.98 4 3 C2.68 3 1.36 3 0 3 C0 2.01 0 1.02 0 0 Z M-3 3 C-2.01 3 -1.02 3 0 3 C0 3.66 0 4.32 0 5 C-0.99 5 -1.98 5 -3 5 C-3 4.34 -3 3.68 -3 3 Z " fill="#FCFCFC" transform="translate(3,238)"/>
<path d="M0 0 C0.99 0 1.98 0 3 0 C3 0.99 3 1.98 3 3 C2.01 3 1.02 3 0 3 C-0.33 4.32 -0.66 5.64 -1 7 C-1.625 5.1875 -1.625 5.1875 -2 3 C-1.34 2.01 -0.68 1.02 0 0 Z " fill="#EAEAE9" transform="translate(173,59)"/>
</svg>
