<?xml version="1.0" encoding="UTF-8"?>
<svg version="1.1" xmlns="http://www.w3.org/2000/svg" width="225" height="225">
<path d="M0 0 C74.25 0 148.5 0 225 0 C225 74.25 225 148.5 225 225 C150.75 225 76.5 225 0 225 C0 150.75 0 76.5 0 0 Z " fill="#FEFEFE" transform="translate(0,0)"/>
<path d="M0 0 C7.92 0 15.84 0 24 0 C24 51.15 24 102.3 24 155 C16.08 155 8.16 155 0 155 C0 103.85 0 52.7 0 0 Z " fill="#1F2880" transform="translate(159,9)"/>
<path d="M0 0 C7.59 0 15.18 0 23 0 C23 50.82 23 101.64 23 154 C15.41 154 7.82 154 0 154 C0 103.18 0 52.36 0 0 Z " fill="#171F7C" transform="translate(47,61)"/>
<path d="M0 0 C7.92 0 15.84 0 24 0 C24 15.51 24 31.02 24 47 C16.08 47 8.16 47 0 47 C0 31.49 0 15.98 0 0 Z " fill="#1F287F" transform="translate(84,117)"/>
<path d="M0 0 C7.92 0 15.84 0 24 0 C24 15.51 24 31.02 24 47 C16.08 47 8.16 47 0 47 C0 31.49 0 15.98 0 0 Z " fill="#1F2980" transform="translate(84,19)"/>
<path d="M0 0 C7.59 0 15.18 0 23 0 C23 15.51 23 31.02 23 47 C15.41 47 7.82 47 0 47 C0 31.49 0 15.98 0 0 Z " fill="#18207D" transform="translate(122,56)"/>
<path d="M0 0 C7.59 0 15.18 0 23 0 C23 15.18 23 30.36 23 46 C15.41 46 7.82 46 0 46 C0 30.82 0 15.64 0 0 Z " fill="#161E7C" transform="translate(122,155)"/>
<path d="M0 0 C7.59 0 15.18 0 23 0 C23 7.59 23 15.18 23 23 C15.41 23 7.82 23 0 23 C0 15.41 0 7.82 0 0 Z " fill="#FD4080" transform="translate(122,117)"/>
<path d="M0 0 C7.59 0 15.18 0 23 0 C23 7.59 23 15.18 23 23 C15.41 23 7.82 23 0 23 C0 15.41 0 7.82 0 0 Z " fill="#F9C02C" transform="translate(85,80)"/>
</svg>
