<?xml version="1.0" standalone="no"?>
<!DOCTYPE svg PUBLIC "-//W3C//DTD SVG 20010904//EN"
 "http://www.w3.org/TR/2001/REC-SVG-20010904/DTD/svg10.dtd">
<svg version="1.0" xmlns="http://www.w3.org/2000/svg"
 width="306.000000pt" height="165.000000pt" viewBox="0 0 306.000000 165.000000"
 preserveAspectRatio="xMidYMid meet">

<g transform="translate(0.000000,165.000000) scale(0.100000,-0.100000)"
fill="#000000" stroke="none">
<path d="M109 863 l-24 -28 28 24 c25 23 32 31 24 31 -2 0 -14 -12 -28 -27z"/>
<path d="M1461 828 c-51 -19 -55 -23 -86 -92 -81 -176 -117 -374 -81 -444 36
-69 106 -72 200 -7 l66 45 14 -29 c22 -42 58 -61 118 -61 56 0 99 19 150 68
l27 25 10 -26 c17 -45 47 -67 91 -67 35 0 47 6 89 48 l47 47 15 -45 c13 -43
16 -45 54 -48 36 -3 47 3 101 50 60 51 134 133 134 146 0 4 15 12 34 18 l33
10 -28 -60 c-33 -68 -36 -111 -13 -144 25 -37 72 -29 143 23 l61 45 0 -33 c0
-52 11 -60 59 -47 40 11 41 12 41 54 0 80 11 105 71 169 78 81 89 70 49 -48
-34 -100 -37 -131 -14 -163 18 -27 61 -29 107 -6 46 23 107 85 107 108 0 17
-6 15 -38 -17 -40 -40 -82 -49 -82 -19 0 9 14 61 32 114 26 78 30 102 22 125
-21 61 -105 35 -190 -60 l-36 -39 7 33 c4 19 13 49 21 68 l14 33 -48 -7 c-26
-4 -50 -10 -54 -14 -11 -10 -58 -151 -58 -172 0 -22 -77 -91 -97 -87 -40 8
-39 35 3 158 23 66 38 123 33 126 -5 3 -33 -20 -62 -51 -67 -68 -89 -73 -74
-15 9 34 8 43 -6 57 -22 22 -60 5 -87 -39 -24 -39 -26 -71 -5 -88 24 -20 18
-32 -43 -93 -101 -100 -120 -71 -68 108 19 66 32 122 29 125 -2 3 -27 -7 -54
-22 l-48 -28 -25 25 c-32 32 -59 31 -124 -1 -63 -31 -116 -91 -137 -154 -29
-86 -113 -139 -180 -114 -13 5 -45 53 -45 67 0 2 26 14 58 25 102 38 152 105
118 158 -34 51 -98 54 -169 8 -46 -30 -95 -105 -104 -157 -6 -39 -52 -86 -105
-106 -44 -17 -68 10 -68 75 0 50 4 59 50 118 86 110 128 235 106 321 -8 30
-15 30 -85 3z m55 -92 c-7 -47 -60 -161 -96 -206 l-19 -25 15 65 c20 90 51
182 70 209 24 33 38 12 30 -43z m242 -207 c4 -42 -24 -82 -68 -97 -28 -10 -30
-9 -30 14 0 33 27 96 48 112 28 21 47 10 50 -29z m371 18 c25 -65 -49 -227
-104 -227 -48 0 -56 49 -23 137 36 96 106 146 127 90z"/>
<path d="M775 810 c10 -11 20 -20 23 -20 3 0 -3 9 -13 20 -10 11 -20 20 -23
20 -3 0 3 -9 13 -20z"/>
<path d="M810 776 c0 -2 8 -10 18 -17 15 -13 16 -12 3 4 -13 16 -21 21 -21 13z"/>
<path d="M941 474 c0 -11 3 -14 6 -6 3 7 2 16 -1 19 -3 4 -6 -2 -5 -13z"/>
<path d="M528 23 c7 -3 16 -2 19 1 4 3 -2 6 -13 5 -11 0 -14 -3 -6 -6z"/>
<path d="M678 23 c7 -3 16 -2 19 1 4 3 -2 6 -13 5 -11 0 -14 -3 -6 -6z"/>
</g>
</svg>
